<?xml version="1.0" encoding="UTF-8"?>
<svg version="1.1" xmlns="http://www.w3.org/2000/svg" width="1563" height="1563">
<path d="M0 0 C0.9888085 0.00040031 0.9888085 0.00040031 1.99759293 0.00080872 C24.07560272 0.01200211 46.05206583 0.38358234 68.0625 2.1875 C68.84298706 2.25066406 69.62347412 2.31382812 70.4276123 2.37890625 C159.34411935 9.64284676 245.98539275 28.57429882 431.0625 95.1875 C431.70634644 95.46924072 432.35019287 95.75098145 433.0135498 96.04125977 C452.54523441 104.60806198 471.72198791 113.86966825 490.8125 123.375 C492.29845169 124.11201645 492.29845169 124.11201645 493.81442261 124.86392212 C507.61230497 131.72021485 521.08514027 139.02954453 534.44694519 146.69908142 C539.48004612 149.56323893 544.56001202 152.34301947 549.64642334 155.11116028 C554.84604104 157.97104104 554.84604104 157.97104104 557.0625 160.1875 C557.5342258 161.81840565 557.94168842 163.46823289 558.3125 165.125 C562.7942936 182.12031631 574.58758262 193.30254957 589.265625 202.109375 C602.60826396 209.533141 617.57450103 213.58920448 632.0625 218.1875 C633.39652495 218.61185163 634.73050943 219.03633053 636.06445312 219.4609375 C637.04729279 219.77368874 637.04729279 219.77368874 638.04998779 220.09275818 C639.98641607 220.7094479 641.9224182 221.32746208 643.85839844 221.94555664 C646.27118977 222.7138268 648.68582731 223.4763303 651.10253906 224.23217773 C660.49262309 227.20283615 667.65656771 231.1094877 675.5625 236.9375 C676.39136719 237.53304688 677.22023438 238.12859375 678.07421875 238.7421875 C686.02344048 244.58088454 692.13761357 250.22899664 694.0625 260.1875 C695.30338609 270.51289786 692.67652483 279.14905741 686.375 287.375 C667.14467658 309.71040316 640.3455865 315.49107698 612.6796875 321.1015625 C611.83872025 321.27247406 610.99775299 321.44338562 610.13130188 321.61947632 C605.9053813 322.47700075 601.6780543 323.32577049 597.44702148 324.15771484 C583.28200863 326.97280845 568.88957927 330.01237574 555.625 335.875 C554.46315186 336.37918457 554.46315186 336.37918457 553.27783203 336.89355469 C525.80389867 349.04388926 499.1674269 366.67071369 480.0625 390.1875 C479.63501465 390.7026416 479.2075293 391.2177832 478.76708984 391.74853516 C453.36979108 422.37140334 437.96471648 457.28070472 430.0625 496.1875 C425.6475122 497.42219998 422.2597025 496.89670628 417.7890625 496.03515625 C417.08193115 495.90046936 416.3747998 495.76578247 415.64624023 495.62701416 C413.32417495 495.17980767 411.00576385 494.7164904 408.6875 494.25 C407.48368683 494.01100479 407.48368683 494.01100479 406.2555542 493.7671814 C353.15654457 483.18932016 302.91447941 465.29779229 254.0625 442.1875 C253.0096582 441.69008301 251.95681641 441.19266602 250.87207031 440.68017578 C236.12909666 433.65303602 222.04797177 425.6093139 208.0625 417.1875 C207.14549316 416.63803711 206.22848633 416.08857422 205.28369141 415.52246094 C192.92102722 408.09100945 181.00024539 400.15741244 169.27099609 391.76416016 C167.2989037 390.35627018 165.31842084 388.96182205 163.33203125 387.57421875 C149.22743716 377.68681235 135.74733464 367.00812138 122.77880859 355.67724609 C120.97444664 354.11107018 119.15549894 352.56341 117.33203125 351.01953125 C106.53428258 341.86896856 106.53428258 341.86896856 101.74414062 336.86816406 C100.04023855 335.16525148 98.266984 333.6089585 96.43359375 332.046875 C91.7541734 327.97755765 87.37236172 323.64461293 83 319.25 C81.8543457 318.11014648 81.8543457 318.11014648 80.68554688 316.94726562 C76.51844259 312.77303199 72.52101052 308.51299058 68.6730957 304.04321289 C66.2505446 301.25197279 63.71539892 298.57043334 61.1875 295.875 C55.88875534 290.17265128 50.93351964 284.26035619 46.0625 278.1875 C45.0797335 276.99476658 44.09525069 275.80344599 43.109375 274.61328125 C22.12500108 249.21233125 3.5030326 221.73310662 -12.9375 193.1875 C-13.31310059 192.54377441 -13.68870117 191.90004883 -14.07568359 191.23681641 C-44.689264 138.72706762 -67.19358821 81.52722839 -81.0625 22.375 C-81.35793701 21.11768066 -81.65337402 19.86036133 -81.95776367 18.56494141 C-84.10730351 9.1022433 -84.10730351 9.1022433 -83.9375 4.1875 C-79.31960042 3.77360225 -74.70126779 3.36501075 -70.08251953 2.96069336 C-68.52152786 2.82337065 -66.96064863 2.68476179 -65.39990234 2.54467773 C-43.58456667 0.5890635 -21.90338064 -0.01849875 0 0 Z " fill="#902BB8" transform="translate(351.9375,919.8125)"/>
<path d="M0 0 C-0.52094238 0.24008789 -1.04188477 0.48017578 -1.57861328 0.72753906 C-15.70869405 7.270896 -29.41795986 14.38937406 -43 22 C-43.8765625 22.48726562 -44.753125 22.97453125 -45.65625 23.4765625 C-83.34127418 44.45007298 -118.86728832 69.41373345 -152 97 C-150.40285156 96.47599609 -150.40285156 96.47599609 -148.7734375 95.94140625 C-124.81759786 88.32452111 -102.85230788 91.49918276 -80.66210938 102.84838867 C-70.64104223 108.18790921 -62.23826467 115.24550216 -54 123 C-53.40832031 123.52722656 -52.81664062 124.05445313 -52.20703125 124.59765625 C-45.01082407 131.28106957 -39.42738103 139.85892845 -34 148 C-34 148.99 -34 149.98 -34 151 C-48.50921845 159.11939708 -64.39886081 164.41506872 -81 166 C-82.24910156 166.12117187 -83.49820312 166.24234375 -84.78515625 166.3671875 C-110.74484374 168.57496807 -137.61172354 164.41069135 -158.5 147.8125 C-166.86607659 140.70313019 -174.80714386 133.11943794 -181 124 C-184.07486553 125.37149237 -186.18314469 126.93451106 -188.5559082 129.31298828 C-189.23373856 129.987742 -189.91156891 130.66249573 -190.60993958 131.35769653 C-191.33291733 132.0878598 -192.05589508 132.81802307 -192.80078125 133.5703125 C-193.55538132 134.32537079 -194.30998138 135.08042908 -195.08744812 135.85836792 C-196.68428739 137.45822751 -198.27869627 139.06051605 -199.87084961 140.66503906 C-202.28779873 143.10011349 -204.71252165 145.52722151 -207.13867188 147.953125 C-208.69317839 149.5125524 -210.24722932 151.07243411 -211.80078125 152.6328125 C-212.87613884 153.70983932 -212.87613884 153.70983932 -213.97322083 154.80862427 C-218.50781372 159.38531026 -222.79884866 164.1170941 -227 169 C-228.64144767 170.83726101 -230.28655874 172.67126507 -231.9375 174.5 C-232.70964844 175.3559375 -233.48179687 176.211875 -234.27734375 177.09375 C-234.84582031 177.7228125 -235.41429687 178.351875 -236 179 C-232.58920477 179 -229.76226255 178.27470195 -226.4375 177.5 C-198.73223708 171.59895286 -169.42376987 180.07023931 -145.81298828 194.80517578 C-138.06416767 199.91192613 -130.64457297 205.84794104 -124.33203125 212.66015625 C-122.83832599 214.25149224 -122.83832599 214.25149224 -120 216 C-120 216.66 -120 217.32 -120 218 C-119.34 218 -118.68 218 -118 218 C-116.61061923 219.96147874 -115.2739589 221.96166576 -114 224 C-129.07258846 236.89139755 -146.82447311 245.9871851 -166 251 C-166.90105469 251.23976563 -167.80210937 251.47953125 -168.73046875 251.7265625 C-200.58263227 259.89378391 -230.36272204 258.2379276 -259 242 C-263.88248236 238.94460008 -268.45362611 235.52852899 -273 232 C-273.99 231.34 -274.98 230.68 -276 230 C-289.90364885 249.44722588 -302.62981678 269.55132977 -315 290 C-311.56130126 290 -309.09351053 289.15951885 -305.8125 288.125 C-273.29264105 278.69992269 -238.33827736 285.26029148 -208.98657227 301.17504883 C-200.96617879 305.62721292 -193.42750301 310.62014765 -186 316 C-193.18786542 335.43021155 -219.75242234 350.88699465 -237.5625 359.3125 C-240.35696113 360.58627663 -243.17008425 361.80725878 -246 363 C-246.65291016 363.27682617 -247.30582031 363.55365234 -247.97851562 363.83886719 C-279.94234425 377.15445208 -311.36007828 378.36253627 -343.92041016 366.73022461 C-346.60312995 365.7882177 -349.30115159 364.89458901 -352 364 C-358.14420899 379.05028925 -364.16881989 394.12255275 -369.625 409.4375 C-370.0379834 410.59604492 -370.4509668 411.75458984 -370.87646484 412.94824219 C-372.74967717 418.26183986 -374.54322026 423.55665635 -376 429 C-375.09121094 428.55269531 -374.18242187 428.10539062 -373.24609375 427.64453125 C-337.34155496 410.24972579 -298.32714853 408.92621629 -260.56567383 421.65771484 C-253.5603312 424.12814969 -246.75780129 426.91565482 -240 430 C-244.83160328 445.69120683 -256.69368799 459.54934273 -267.625 471.5 C-268.13377686 472.0580835 -268.64255371 472.61616699 -269.16674805 473.19116211 C-270.39994356 474.50409462 -271.69482566 475.7585964 -273 477 C-273.66 477 -274.32 477 -275 477 C-275 477.66 -275 478.32 -275 479 C-277.98917367 481.78322667 -281.229887 484.25769838 -284.44433594 486.77539062 C-285.86310339 487.89223581 -287.26458464 489.0309517 -288.6640625 490.171875 C-321.39885109 516.02009423 -357.99886867 525.71668886 -399 521 C-402.97110678 542.91462629 -405.91413205 564.82875621 -408 587 C-408.12004395 588.25248535 -408.24008789 589.5049707 -408.36376953 590.79541016 C-414.45423072 657.69971635 -409.25192125 726.23850985 -396 792 C-395.8700061 792.6514801 -395.74001221 793.30296021 -395.6060791 793.97418213 C-383.19977326 856.09215974 -362.14569974 916.45549509 -333.13720703 972.78320312 C-331.80735894 975.37552187 -330.49665408 977.97726388 -329.18359375 980.578125 C-311.0726583 1016.20824684 -289.3952044 1050.32564135 -265 1082 C-264.4210498 1082.75861328 -263.84209961 1083.51722656 -263.24560547 1084.29882812 C-256.19012939 1093.53882105 -248.9719758 1102.60428086 -241.37402344 1111.40380859 C-239.92092372 1113.09186225 -238.47915546 1114.78912147 -237.0390625 1116.48828125 C-227.79605647 1127.37528255 -218.29993904 1137.89935953 -208.01953125 1147.8203125 C-206 1150 -206 1150 -206 1152 C-205.34 1152 -204.68 1152 -204 1152 C-202.64613064 1153.65002828 -201.31321858 1155.3174387 -200 1157 C-199.34 1157.33 -198.68 1157.66 -198 1158 C-198 1158.66 -198 1159.32 -198 1160 C-197.40993164 1160.26337158 -196.81986328 1160.52674316 -196.21191406 1160.7980957 C-193.90427185 1162.05201652 -192.43272606 1163.35195261 -190.609375 1165.23046875 C-189.98635498 1165.8651709 -189.36333496 1166.49987305 -188.72143555 1167.15380859 C-188.07086182 1167.82492676 -187.42028809 1168.49604492 -186.75 1169.1875 C-182.25184897 1173.75833211 -177.77752932 1178.26445799 -172.875 1182.40625 C-170.59616622 1184.34325871 -168.39675343 1186.35905625 -166.1875 1188.375 C-161.84570979 1192.29255422 -157.37926529 1196.01936666 -152.83203125 1199.6953125 C-149.96055884 1202.03209694 -147.13731484 1204.41962573 -144.3125 1206.8125 C-137.09135373 1212.8347687 -129.57315323 1218.4306857 -122 1224 C-121.31196289 1224.50901855 -120.62392578 1225.01803711 -119.91503906 1225.54248047 C-102.84600474 1238.15128461 -85.24886557 1250.15888374 -67 1261 C-65.36846824 1261.98043324 -63.73696001 1262.96090563 -62.10546875 1263.94140625 C-19.11578411 1289.66955444 25.59988181 1310.84024789 73 1327 C73.66926514 1327.22925171 74.33853027 1327.45850342 75.02807617 1327.69470215 C124.00168663 1344.45233892 174.31143442 1355.55429895 225.6875 1361.75 C227.09962769 1361.92366089 227.09962769 1361.92366089 228.5402832 1362.10083008 C231.69108233 1362.45620368 234.83962177 1362.74197021 238 1363 C238.73375854 1363.06035431 239.46751709 1363.12070862 240.22351074 1363.18289185 C254.1761809 1364.2650036 267.49674844 1363.56987057 281.375 1361.9375 C283.43543678 1361.70523019 285.49590285 1361.47322006 287.55639648 1361.24145508 C375.24654599 1351.20425288 460.16862936 1327.45912172 597 1260 C598.05993164 1259.38688965 599.11986328 1258.7737793 600.21191406 1258.14208984 C616.55925255 1248.68497152 632.43761169 1238.6988008 648 1228 C648.88268555 1227.39414063 649.76537109 1226.78828125 650.67480469 1226.1640625 C669.05430818 1213.51045469 686.9401715 1200.39110628 704 1186 C705.15229993 1185.03249989 706.30464142 1184.06504928 707.45703125 1183.09765625 C710.11376919 1180.86228266 712.75943181 1178.6142499 715.40087891 1176.36083984 C717.05849996 1174.95021698 718.72229828 1173.54712211 720.38671875 1172.14453125 C728.526661 1165.25953016 736.3556596 1158.09137241 744.10791016 1150.77441406 C746.0328134 1148.96922738 747.97253665 1147.18146747 749.91796875 1145.3984375 C750.86736328 1144.52626587 750.86736328 1144.52626587 751.8359375 1143.63647461 C753.03274291 1142.53829834 754.23181162 1141.44258131 755.43359375 1140.34985352 C757.94878935 1138.03490042 760.13983525 1135.82309999 762.26953125 1133.12890625 C762.84058594 1132.42636719 763.41164063 1131.72382812 764 1131 C764.66 1131 765.32 1131 766 1131 C766.25885986 1130.41444336 766.51771973 1129.82888672 766.78442383 1129.22558594 C768.09221724 1126.8311604 769.49736101 1125.28906671 771.44921875 1123.390625 C772.13306641 1122.71773437 772.81691406 1122.04484375 773.52148438 1121.3515625 C774.23626953 1120.65804688 774.95105469 1119.96453125 775.6875 1119.25 C780.46643848 1114.5906457 785.0770326 1109.88415245 789.42993164 1104.82177734 C791.52351201 1102.39256 793.69905566 1100.04294143 795.875 1097.6875 C799.96757435 1093.19986568 803.85270834 1088.59069772 807.6640625 1083.86328125 C809.71771612 1081.34601018 811.81555735 1078.87455552 813.93603516 1076.41357422 C819.63460903 1069.785116 824.91551529 1062.9047249 830.11328125 1055.87890625 C832.60096519 1052.5180346 835.16482381 1049.22418128 837.75 1045.9375 C854.34368127 1024.41632108 869.11119669 1001.34165615 883 978 C883.54849609 977.08105957 884.09699219 976.16211914 884.66210938 975.21533203 C898.65756112 951.66305266 911.22747687 927.38426151 922.8125 902.5625 C923.10150177 901.94379028 923.39050354 901.32508057 923.68826294 900.68762207 C927.01568733 893.54107348 930.17164044 886.35919622 933 879 C934.67243484 883.05685825 933.18200066 886.39588345 931.82421875 890.31640625 C931.58392944 891.03602539 931.34364014 891.75564453 931.09606934 892.49707031 C930.30443907 894.85617648 929.49686208 897.20942332 928.6875 899.5625 C928.12836112 901.20749864 927.569526 902.85260055 927.01098633 904.49780273 C925.36093901 909.33898182 923.68466306 914.17077392 922 919 C921.3503125 920.86785156 921.3503125 920.86785156 920.6875 922.7734375 C910.18569611 952.68976044 897.19838499 981.67126661 883 1010 C882.49936035 1011.00385742 881.9987207 1012.00771484 881.48291016 1013.04199219 C873.40909881 1029.14651145 864.33277327 1044.60377526 855 1060 C854.43667969 1060.93585938 853.87335938 1061.87171875 853.29296875 1062.8359375 C840.34099829 1084.32801501 826.13036639 1104.9866955 811 1125 C810.52981445 1125.62326172 810.05962891 1126.24652344 809.57519531 1126.88867188 C804.59232193 1133.47717788 799.47509156 1139.94679159 794.21484375 1146.31640625 C792.71870021 1148.12919392 791.23192165 1149.94974557 789.75390625 1151.77734375 C785.35263956 1157.21599738 780.82668963 1162.49403475 776.1171875 1167.66796875 C774.21948831 1169.75823889 772.35266585 1171.86986115 770.5 1174 C766.38689548 1178.71548138 762.20476822 1183.3661738 758 1188 C757.12730469 1188.96679688 756.25460937 1189.93359375 755.35546875 1190.9296875 C749.47581524 1197.4008884 743.42138897 1203.68137786 737.25 1209.875 C736.55326172 1210.57633057 735.85652344 1211.27766113 735.13867188 1212.00024414 C731.13573404 1215.99132493 727.02118799 1219.78528224 722.74121094 1223.47705078 C720.73322468 1225.23333489 718.85265146 1227.08118241 717 1229 C713.16398851 1232.88035844 709.13870076 1236.44783485 705 1240 C703.84827706 1241.0031246 702.69730163 1242.00710776 701.546875 1243.01171875 C672.21036255 1268.603787 640.92599188 1292.20870466 608 1313 C607.20110352 1313.50644043 606.40220703 1314.01288086 605.57910156 1314.53466797 C592.88377935 1322.56251963 579.97380566 1330.13914943 566.83789062 1337.42236328 C564.09847041 1338.94525845 561.36908899 1340.4849284 558.640625 1342.02734375 C544.12673054 1350.16573936 529.15850072 1357.15402417 514 1364 C511.70960099 1365.0454975 509.4192359 1366.09106932 507.12890625 1367.13671875 C491.96331928 1374.01604431 476.63287636 1380.26488718 461 1386 C460.36684875 1386.23332031 459.73369751 1386.46664063 459.08135986 1386.70703125 C379.34175948 1416.07715827 294.87162648 1432.78539954 121 1431 C119.87612885 1430.88495117 119.87612885 1430.88495117 118.72955322 1430.76757812 C30.16585984 1421.6735027 -55.62522437 1399.12507408 -136.35791016 1361.23730469 C-138.76892099 1360.10821553 -141.18555967 1358.99266766 -143.60546875 1357.8828125 C-189.34010381 1336.81351948 -232.97181357 1309.52011308 -273 1279 C-274.21741121 1278.07937855 -275.43485746 1277.15880342 -276.65234375 1276.23828125 C-286.41341495 1268.82299113 -295.84291752 1261.02170656 -305.17285156 1253.07519531 C-308.48565875 1250.25882059 -311.84672806 1247.51964814 -315.25 1244.8125 C-322.47003945 1238.9357237 -329.12137265 1232.44225754 -335.85986328 1226.02685547 C-338.49675184 1223.52954212 -341.16053703 1221.0624048 -343.82714844 1218.59692383 C-353.77561012 1209.38872169 -363.73859567 1200.07192806 -372.50390625 1189.7109375 C-374.05117606 1187.9414749 -375.68475308 1186.32025552 -377.375 1184.6875 C-381.0983207 1181.03037166 -384.28820713 1177.00903553 -387.5546875 1172.9453125 C-390.06164111 1169.92575495 -392.69198795 1167.04877897 -395.375 1164.1875 C-399.84881871 1159.39429056 -403.94613846 1154.38945062 -407.95141602 1149.20068359 C-410.81742269 1145.48946162 -413.76725448 1141.88021411 -416.8125 1138.3125 C-440.13144974 1110.49921872 -459.62926409 1079.20738291 -478 1048 C-478.5244873 1047.11231934 -479.04897461 1046.22463867 -479.58935547 1045.31005859 C-504.23616555 1003.45138569 -524.07967378 959.10655144 -539.89306641 913.2109375 C-540.93142507 910.19891872 -541.98635867 907.19315166 -543.04296875 904.1875 C-559.46288551 856.87339182 -569.84360361 807.46683695 -576.375 757.875 C-576.62697144 755.9722229 -576.62697144 755.9722229 -576.8840332 754.03100586 C-577.68713179 747.63094791 -578.18031377 741.44968481 -578 735 C-576.22154376 738.194555 -575.37328941 741.22897677 -574.58984375 744.79296875 C-574.32727783 745.9629541 -574.06471191 747.13293945 -573.79418945 748.33837891 C-573.51148193 749.60858887 -573.22877441 750.87879883 -572.9375 752.1875 C-566.28969161 781.35371758 -557.84378056 809.75706429 -548 838 C-547.76861328 838.66751282 -547.53722656 839.33502563 -547.29882812 840.02276611 C-537.06419128 869.54173884 -524.37057438 897.82524126 -510.56494141 925.82324219 C-509.15152169 928.69241807 -507.75141716 931.56761016 -506.35546875 934.4453125 C-487.70193592 972.6486105 -464.35920858 1008.90874271 -439 1043 C-438.19908878 1044.08584165 -437.39830029 1045.17177383 -436.59765625 1046.2578125 C-428.2918309 1057.43929268 -419.66637846 1068.3270583 -410.6171875 1078.9140625 C-408.19308244 1081.75605565 -405.84268601 1084.65290065 -403.5 1087.5625 C-399.44174232 1092.55168418 -395.15484434 1097.27670615 -390.7734375 1101.98046875 C-388.67258401 1104.24510979 -386.63238205 1106.55569773 -384.60546875 1108.88671875 C-381.12864165 1112.87581601 -377.55931922 1116.76744967 -373.9375 1120.625 C-373.29917236 1121.30506104 -372.66084473 1121.98512207 -372.00317383 1122.68579102 C-367.46189817 1127.50040226 -362.85730876 1132.24750211 -358.1875 1136.9375 C-357.59509521 1137.53449707 -357.00269043 1138.13149414 -356.39233398 1138.74658203 C-353.47435203 1141.73989972 -353.47435203 1141.73989972 -350 1144 C-350 1144.66 -350 1145.32 -350 1146 C-349.44828125 1146.22300781 -348.8965625 1146.44601562 -348.328125 1146.67578125 C-345.2694324 1148.41554097 -343.1926188 1150.65764482 -340.75 1153.1875 C-336.33781827 1157.6914353 -331.80959972 1161.9258889 -327 1166 C-325.94989174 1166.90161156 -324.90047298 1167.80402651 -323.8515625 1168.70703125 C-320.83577384 1171.30216997 -317.81197376 1173.88778569 -314.78613281 1176.47119141 C-313.12117836 1177.89627954 -311.46223918 1179.32803478 -309.8046875 1180.76171875 C-301.78307711 1187.66701665 -293.44354383 1194.10124722 -285 1200.48046875 C-283.19811061 1201.84948237 -281.40824597 1203.23183908 -279.625 1204.625 C-240.97878769 1234.7690456 -198.59789899 1259.80103672 -155 1282 C-154.1941748 1282.41121094 -153.38834961 1282.82242187 -152.55810547 1283.24609375 C-135.47613822 1291.94377492 -118.20724527 1299.96202066 -100.375 1307 C-99.50437927 1307.34549896 -98.63375854 1307.69099792 -97.73675537 1308.04696655 C-83.59172688 1313.65891776 -69.41026322 1319.10185543 -55 1324 C-53.77877441 1324.42055664 -52.55754883 1324.84111328 -51.29931641 1325.27441406 C-28.18901776 1333.21002792 -4.76589599 1339.35953599 19 1345 C16.00652553 1343.43786498 12.97999758 1342.18384225 9.8203125 1340.99609375 C-18.02294552 1330.38235352 -45.47856552 1318.52927277 -71.65966797 1304.26416016 C-73.85472768 1303.07847069 -76.06370014 1301.92826471 -78.28515625 1300.79296875 C-106.48270724 1286.33448794 -133.61586706 1268.9386132 -159 1250 C-160.37735308 1248.98273286 -161.75495605 1247.96580398 -163.1328125 1246.94921875 C-172.26528553 1240.1829262 -181.17412516 1233.16008107 -190 1226 C-191.43085937 1224.84564453 -191.43085937 1224.84564453 -192.890625 1223.66796875 C-205.36744343 1213.54423449 -217.31022772 1202.96588057 -228.97119141 1191.91552734 C-232.94191304 1188.16651628 -236.94844568 1184.45561675 -240.95288086 1180.74267578 C-242.64301751 1179.16976172 -244.32445008 1177.58843725 -246 1176 C-246.87156738 1175.17653076 -246.87156738 1175.17653076 -247.76074219 1174.33642578 C-249.21393413 1172.93127676 -250.61234292 1171.46990423 -252 1170 C-252 1169.34 -252 1168.68 -252 1168 C-252.66 1168 -253.32 1168 -254 1168 C-255.41015625 1166.56640625 -255.41015625 1166.56640625 -257.0625 1164.5625 C-259.75174994 1161.39242783 -262.53513377 1158.41418475 -265.5 1155.5 C-269.54780442 1151.49308249 -273.31759239 1147.34239105 -277 1143 C-278.18142578 1141.61748047 -278.18142578 1141.61748047 -279.38671875 1140.20703125 C-282.27498684 1136.81905721 -285.13866912 1133.41072785 -288 1130 C-288.53544434 1129.36416992 -289.07088867 1128.72833984 -289.62255859 1128.07324219 C-299.18493752 1116.69677851 -308.191143 1104.9670202 -317 1093 C-317.5554248 1092.25137695 -318.11084961 1091.50275391 -318.68310547 1090.73144531 C-327.99700496 1078.16929189 -336.59909549 1065.18723011 -345 1052 C-345.56219238 1051.11940918 -346.12438477 1050.23881836 -346.70361328 1049.33154297 C-355.69277819 1035.19503326 -363.94768049 1020.68695908 -372 1006 C-372.4223291 1005.23800293 -372.8446582 1004.47600586 -373.27978516 1003.69091797 C-415.22910231 927.92476739 -440.00755252 842.06461094 -455 716 C-455.04732269 715.33607239 -455.09464539 714.67214478 -455.1434021 713.98809814 C-456.2329806 698.25792726 -456.20118301 682.51066034 -456.1875 666.75 C-456.18709969 665.71687557 -456.18709969 665.71687557 -456.18669128 664.66287994 C-456.17682473 644.37392797 -456.01046784 624.20976471 -454 604 C-453.8742514 602.64396441 -453.74945527 601.28784025 -453.62548828 599.93164062 C-449.12224355 551.19166217 -439.73394142 502.69114627 -425 456 C-424.67352478 454.95996826 -424.67352478 454.95996826 -424.3404541 453.89892578 C-402.37392151 384.03232618 -370.56105673 316.75059333 -328 257 C-327.22293701 255.90631104 -327.22293701 255.90631104 -326.43017578 254.79052734 C-310.20395569 232.00446405 -292.88018464 209.97184155 -274.05078125 189.26953125 C-272.14771912 187.16347582 -270.28846179 185.02679531 -268.4375 182.875 C-265.32769311 179.29180331 -262.00766498 175.96495719 -258.6015625 172.6640625 C-256.91371276 171.07577267 -256.91371276 171.07577267 -256 169 C-255.34 169 -254.68 169 -254 169 C-253.62415771 168.13628784 -253.62415771 168.13628784 -253.24072266 167.25512695 C-251.83143301 164.69361407 -250.22091237 162.9781505 -248.1484375 160.91796875 C-247.37886719 160.15033203 -246.60929687 159.38269531 -245.81640625 158.59179688 C-245.01074219 157.79837891 -244.20507812 157.00496094 -243.375 156.1875 C-242.59253906 155.40568359 -241.81007813 154.62386719 -241.00390625 153.81835938 C-236.75241972 149.59860036 -232.41463789 145.54147372 -227.87597656 141.63305664 C-224.9031873 139.04521341 -222.05417326 136.32903394 -219.1875 133.625 C-214.19454716 128.95316099 -209.09431243 124.50199685 -203.75390625 120.2265625 C-201.28832681 118.23311529 -198.87449322 116.19016142 -196.47167969 114.12182617 C-188.90705496 107.62249493 -181.03817701 101.56687109 -173.07177734 95.5703125 C-171.20730698 94.15712921 -169.36054249 92.72476415 -167.51953125 91.28125 C-145.36201893 74.06151899 -121.24477603 59.06825014 -97 45 C-95.70829993 44.24354662 -94.41662881 43.4870438 -93.125 42.73046875 C-90.39361312 41.14896998 -87.65261759 39.58907117 -84.89453125 38.0546875 C-83.50199662 37.27946203 -82.11169023 36.50023053 -80.72265625 35.71875 C-60.05634023 24.11208266 -38.80611194 13.8913966 -17 4.625 C-16.31720978 4.33174835 -15.63441956 4.0384967 -14.93093872 3.73635864 C-12.99991294 2.90992835 -11.06371784 2.09725476 -9.125 1.2890625 C-8.01382813 0.82193848 -6.90265625 0.35481445 -5.7578125 -0.12646484 C-3 -1 -3 -1 0 0 Z " fill="#D70F8B" transform="translate(603,129)"/>
<path d="M0 0 C2.13996623 3.20994935 2.31006701 4.36215741 2.53723907 8.09549427 C2.60617229 9.15585229 2.6751055 10.2162103 2.74612761 11.30870038 C2.8128657 12.47791034 2.8796038 13.6471203 2.94836426 14.85176086 C3.02624947 16.09089129 3.10413468 17.33002172 3.18438005 18.60670155 C3.39918655 22.053355 3.6058411 25.50032562 3.80912995 28.94766629 C4.03027714 32.66437102 4.26184815 36.38042761 4.49217224 40.09657288 C4.89036005 46.54422469 5.28192178 52.99225176 5.66905212 59.44057655 C6.23076853 68.79648533 6.80265294 78.151751 7.37702352 87.50689044 C8.31125382 102.7275592 9.23751778 117.94870186 10.15869141 133.17016602 C11.04914019 147.88361267 11.94282046 162.59685642 12.84130859 177.30981445 C12.89640526 178.21205883 12.95150192 179.1143032 13.00826818 180.04388831 C13.39468342 186.37106501 13.78130902 192.69822886 14.16796875 199.02539062 C14.59998085 206.09514343 15.03191403 213.16490105 15.46374512 220.23466492 C15.51629147 221.0948501 15.56883782 221.95503528 15.62297648 222.84128668 C16.34458474 234.65526486 17.06348812 246.46940465 17.78011894 258.28368576 C18.06954226 263.05373925 18.359403 267.82376618 18.64924967 272.59379397 C18.87278252 276.27336092 19.0960009 279.9529463 19.31837273 283.63258362 C20.47444654 302.76012693 21.70262613 321.8815664 23 341 C26.46162869 325.80925272 29.9225145 310.61833653 33.3823061 295.42717075 C34.99021709 288.36728746 36.5983901 281.30746407 38.20727539 274.24780273 C39.60903315 268.09699771 41.01020272 261.94605899 42.4107722 255.79498327 C43.18254484 252.40559265 43.95460708 249.01626855 44.72732925 245.62709427 C47.95461423 231.47131325 51.16308565 217.31188798 54.30224609 203.13623047 C54.81485894 200.82738386 55.32748769 198.51854079 55.84013367 196.20970154 C56.78743907 191.94160209 57.72638083 187.6717795 58.66047668 183.40077209 C59.07829852 181.51443287 59.49638751 179.62815279 59.91479492 177.74194336 C60.19021024 176.46522294 60.19021024 176.46522294 60.4711895 175.16271019 C61.26518554 171.61117946 61.96041124 169.05938314 64 166 C62.61923353 184.56654773 60.85223159 203.086384 58.97020483 221.60733199 C58.58094729 225.44521653 58.19516172 229.28344997 57.80911255 233.12165833 C56.66769783 244.46367754 55.52073269 255.80513457 54.37329102 267.14654541 C53.47494975 276.02667243 52.57802111 284.90693773 51.6851207 293.78761369 C51.22776691 298.33480321 50.76760122 302.88169641 50.30524039 307.42837942 C50.01929399 310.24622726 49.73582598 313.06432041 49.45303345 315.88248634 C49.25945715 317.80406438 49.06289726 319.72534113 48.86624146 321.64660645 C48.75133362 322.796707 48.63642578 323.94680756 48.51803589 325.13175964 C48.41739271 326.12616656 48.31674953 327.12057348 48.21305656 328.14511395 C47.99198604 331.10738436 47.96348966 334.03062103 48 337 C61.88206732 302.40002339 75.54399521 267.7154398 89.16799927 233.01315308 C97.65107424 211.40779018 106.18370545 189.82233615 114.73483276 168.24383545 C118.41435535 158.95730092 122.08364653 149.66674032 125.75 140.375 C126.20437943 139.22351471 126.20437943 139.22351471 126.66793823 138.04876709 C128.17525092 134.2288561 129.68239843 130.40887997 131.18945312 126.58886719 C133.97884592 119.51870438 136.76984341 112.44917499 139.56066895 105.37957764 C140.49332219 103.01691668 141.42587622 100.65421658 142.35839844 98.29150391 C145.24345576 90.98185204 148.1291122 83.67243849 151.01696777 76.3638916 C152.35652467 72.97364706 153.69573013 69.58326374 155.03491211 66.19287109 C155.66315623 64.60263313 156.29156562 63.01246045 156.92016602 61.42236328 C161.31845582 50.29635909 165.67375506 39.15421663 170 28 C171.37960758 32.46345998 170.2305855 36.04339982 169.06005859 40.44018555 C168.83986809 41.29760597 168.61967758 42.1550264 168.39281464 43.03842926 C167.6537155 45.90694427 166.90107184 48.77172789 166.1484375 51.63671875 C165.62125295 53.67152345 165.094914 55.70654739 164.56936646 57.74177551 C163.14604209 63.24407972 161.71106977 68.74328666 160.27407837 74.24203491 C158.76492765 80.02543076 157.2667737 85.81167342 155.76757812 91.59765625 C153.03620868 102.13307339 150.29617792 112.66621352 147.55226517 123.19836998 C144.86300736 133.52216221 142.18353061 143.84847269 139.5078125 154.17578125 C139.08307387 155.81490711 138.65833025 157.45403166 138.23358154 159.09315491 C137.60741334 161.50956999 136.98125343 163.92598721 136.35515213 166.34241962 C134.9048564 171.93934251 133.45276834 177.53579854 132 183.13208008 C125.04135006 209.94167229 118.12582488 236.7623155 111.22158813 263.58596802 C110.39398795 266.801231 109.56626582 270.01646257 108.73852539 273.23168945 C101.46636237 301.48115932 94.22095801 329.73739845 87 358 C95.61138324 343.89630943 104.17874342 329.77702799 112.5 315.5 C118.13293662 305.83548179 123.8583191 296.23494867 129.6875 286.6875 C136.24287722 275.95043134 142.63376764 265.12595174 148.94921875 254.24609375 C152.89317936 247.4528474 156.92602014 240.71608362 161 234 C161.67095703 232.89350098 162.34191406 231.78700195 163.03320312 230.64697266 C168.01753053 222.42851599 173.00731588 214.21338236 178 206 C178.33 206.66 178.66 207.32 179 208 C178.07319254 210.46094596 177.07932255 212.80550882 175.984375 215.19140625 C175.65780914 215.91945969 175.33124329 216.64751312 174.99478149 217.39762878 C173.92027102 219.78917957 172.83504813 222.17571417 171.75 224.5625 C171.0038558 226.21933762 170.25858075 227.87656693 169.51416016 229.53417969 C168.02775767 232.84267876 166.53812857 236.14969192 165.04589844 239.45556641 C162.45368445 245.20492587 159.90754159 250.97413844 157.375 256.75 C156.94421143 257.7304126 156.51342285 258.7108252 156.06958008 259.72094727 C151.93336949 269.138628 147.8136982 278.56357179 143.6940918 287.98852539 C140.27820324 295.8019481 136.85414763 303.61172831 133.421875 311.41796875 C122.09604242 337.15916201 122.09604242 337.15916201 111 363 C111.38889404 362.54399414 111.77778809 362.08798828 112.1784668 361.61816406 C115.01964059 358.29374976 117.88051576 354.99498473 120.8125 351.75 C124.53227629 347.57934173 128.07054581 343.28167249 131.58984375 338.94140625 C134.14589134 335.82195108 136.75564442 332.75365693 139.375 329.6875 C143.19424779 325.20713875 146.88645133 320.64764689 150.5 316 C154.98837563 310.22717475 159.64885289 304.62850001 164.39453125 299.06640625 C167.48224446 295.44473606 170.48975763 291.75966238 173.49609375 288.0703125 C180.88551349 279.00933915 188.29805913 269.96757897 195.875 261.0625 C199.56996984 256.71865419 203.17402536 252.31488095 206.71875 247.84765625 C214.40144186 238.25744672 222.27326897 228.8187355 230.23754883 219.46166992 C233.54281661 215.5682544 236.73522157 211.59652359 239.90625 207.59375 C242.85083084 203.94598567 245.89451533 200.3854602 248.93359375 196.81640625 C251.67774533 193.58575688 254.36747809 190.32301946 257 187 C260.54855146 182.52068094 264.22936876 178.16659964 267.93359375 173.81640625 C270.67774533 170.58575688 273.36747809 167.32301946 276 164 C279.09073517 160.0985802 282.27378506 156.28908648 285.5 152.5 C289.31856297 148.01275156 293.05006756 143.47298578 296.7109375 138.85546875 C301.51751355 132.85955221 306.43794175 126.95566785 311.32861328 121.02832031 C314.89853307 116.69602501 318.44983107 112.34848734 322 108 C322.33 108.66 322.66 109.32 323 110 C322.05053711 111.89746094 322.05053711 111.89746094 320.52734375 114.234375 C319.96466797 115.10707031 319.40199219 115.97976563 318.82226562 116.87890625 C317.88930664 118.30009766 317.88930664 118.30009766 316.9375 119.75 C315.63390402 121.76548882 314.33052446 123.78111764 313.02734375 125.796875 C312.35558105 126.83005859 311.68381836 127.86324219 310.99169922 128.92773438 C307.96348625 133.59885868 304.98248663 138.29960446 302 143 C300.83359713 144.83350118 299.66692945 146.66683392 298.5 148.5 C297.9225 149.4075 297.345 150.315 296.75 151.25 C257.66666667 212.66666667 218.58333333 274.08333333 179.5 335.5 C178.92241943 336.40766113 178.34483887 337.31532227 177.74975586 338.25048828 C176.58402939 340.08227445 175.41817669 341.9139803 174.25219727 343.74560547 C171.32010086 348.35195718 168.39026849 352.95972038 165.46484375 357.5703125 C157.72268425 369.76586984 149.89984282 381.90597216 142 394 C150.14031149 387.91808415 157.75259267 381.38265341 165.16186523 374.44360352 C168.50959002 371.3256294 171.92932081 368.36484726 175.5 365.5 C180.90436782 361.16072656 185.94955123 356.49603585 191.015625 351.7734375 C195.63353761 347.46894486 200.40761607 343.35687595 205.2109375 339.26171875 C206.41162041 338.23716908 207.61213621 337.21242354 208.8125 336.1875 C209.41868164 335.67018311 210.02486328 335.15286621 210.64941406 334.61987305 C214.3907082 331.41497771 218.06115383 328.14790722 221.6875 324.8125 C225.16136309 321.62263156 228.69910025 318.57951106 232.375 315.625 C237.81386605 311.23655873 242.90728904 306.53553588 248.015625 301.7734375 C251.60402404 298.42858485 255.27787379 295.1950419 259 292 C260.14063746 291.01694154 261.28126114 290.03386709 262.421875 289.05078125 C263.67686855 287.97110446 264.93207858 286.89167925 266.1875 285.8125 C266.78232178 285.30074219 267.37714355 284.78898437 267.98999023 284.26171875 C271.27788237 281.44286663 274.59941839 278.68332145 278 276 C276.33922701 280.14689982 273.34019055 283.06716167 270.3125 286.25 C269.21798673 287.41725351 268.12423255 288.58521929 267.03125 289.75390625 C266.5053125 290.31480957 265.979375 290.87571289 265.4375 291.45361328 C263.13378503 293.9318284 260.92067669 296.48461939 258.70703125 299.04296875 C256.66366569 301.3855915 254.58319141 303.69273422 252.5 306 C249.81016569 308.98062721 247.13689636 311.97245233 244.5 315 C241.10625985 318.89651647 237.64569997 322.73064945 234.18359375 326.56640625 C232.29151315 328.67511146 230.42094242 330.79919801 228.5625 332.9375 C224.91062947 337.13164365 221.15733816 341.23094292 217.41015625 345.33984375 C214.83006864 348.18755795 212.29798144 351.07244018 209.77734375 353.97265625 C207.70640513 356.33489173 205.60487152 358.66795853 203.5 361 C200.81016569 363.98062721 198.13689636 366.97245233 195.5 370 C190.62856797 375.58979989 185.6410485 381.07534898 180.671875 386.578125 C178.4439478 389.04854768 176.22138852 391.52369805 174 394 C173.32324219 394.74765625 172.64648438 395.4953125 171.94921875 396.265625 C171.32660156 396.96171875 170.70398437 397.6578125 170.0625 398.375 C169.51722656 398.98085938 168.97195313 399.58671875 168.41015625 400.2109375 C166.95631429 402.05542398 166.01821055 403.89160899 165 406 C165.96317139 405.38294189 165.96317139 405.38294189 166.94580078 404.75341797 C181.04479793 395.72214773 195.15505856 386.70912098 209.28515625 377.7265625 C212.05544949 375.96473572 214.82474226 374.20134638 217.59375 372.4375 C226.99224154 366.45135613 236.3991884 360.47922597 245.82373047 354.53417969 C254.6321639 348.97501424 263.41655961 343.37816293 272.20166016 337.78222656 C276.80023762 334.85345187 281.40018027 331.92682309 286 329 C287.83334004 327.83334387 289.66667337 326.6666772 291.5 325.5 C390.49999999 262.50000001 390.49999999 262.50000001 393.25195312 260.7487793 C395.07880287 259.5862238 396.90562594 258.42362638 398.73242188 257.26098633 C403.41473235 254.28106836 408.09755411 251.30195879 412.78125 248.32421875 C413.73161133 247.719729 414.68197266 247.11523926 415.66113281 246.49243164 C417.5296513 245.30444083 419.39877622 244.11740323 421.26855469 242.93139648 C425.33993299 240.34587132 429.40010468 237.7481066 433.421875 235.0859375 C434.07736328 234.65450439 434.73285156 234.22307129 435.40820312 233.77856445 C437.11489358 232.65170534 438.81553034 231.51569204 440.515625 230.37890625 C441.33546875 229.92386719 442.1553125 229.46882812 443 229 C443.66 229.33 444.32 229.66 445 230 C437.065216 236.74898162 429.0813638 243.42652915 421 250 C419.16620121 251.49943092 417.33287057 252.99943458 415.5 254.5 C412.77618311 256.7299804 410.05119199 258.95835987 407.3203125 261.1796875 C402.31476871 265.25666665 397.35530311 269.38057253 392.4375 273.5625 C387.96771082 277.36136616 383.44318403 281.07221739 378.84765625 284.71875 C369.88593435 291.89796205 361.04536378 299.23195624 352.3125 306.6875 C347.97983242 310.38487118 343.56129052 313.94446068 339.0625 317.4375 C333.58374026 321.69207079 328.28620775 326.11866732 323.04150391 330.65771484 C318.68532251 334.42605056 314.25340413 338.08841312 309.78125 341.71875 C306.63615929 344.29843114 303.53529458 346.92642411 300.4375 349.5625 C295.96785804 353.36153337 291.44317691 357.07222303 286.84765625 360.71875 C277.25744672 368.40144186 267.8187355 376.27326897 258.46166992 384.23754883 C254.5682544 387.54281661 250.59652359 390.73522157 246.59375 393.90625 C243.51920272 396.38811347 240.50829908 398.93858593 237.5 401.5 C233.00500287 405.32515697 228.45662264 409.06217413 223.83203125 412.73046875 C217.93461357 417.45653726 212.1270131 422.29343388 206.29931641 427.10498047 C203.94640016 429.04417519 201.58905414 430.97786191 199.23046875 432.91015625 C198.45904541 433.5429248 197.68762207 434.17569336 196.89282227 434.82763672 C195.41122515 436.04270904 193.92868069 437.25662738 192.44506836 438.46923828 C191.77483643 439.01950684 191.10460449 439.56977539 190.4140625 440.13671875 C189.8257666 440.61842529 189.2374707 441.10013184 188.63134766 441.59643555 C187.00571858 442.9950799 185.49575078 444.46423008 184 446 C185.55219238 445.32179199 185.55219238 445.32179199 187.13574219 444.62988281 C191.1315732 442.88427853 195.1279735 441.13998054 199.12451172 439.39599609 C200.82485258 438.65381644 202.52505678 437.91132358 204.22509766 437.16845703 C218.59296183 430.89056779 232.99823868 424.7019066 247.41387939 418.53460693 C253.19495418 416.06071427 258.97437736 413.58297027 264.75390625 411.10546875 C271.1832703 408.34966605 277.61269466 405.59400618 284.04305363 402.84052563 C295.44422277 397.95849305 306.84386541 393.07340826 318.2265625 388.1484375 C320.63740147 387.10735513 323.04839084 386.066622 325.45944214 385.02603149 C327.62821778 384.0881368 329.79471139 383.14510904 331.96118164 382.2019043 C333.24874285 381.6460486 334.53641413 381.09044777 335.82421875 380.53515625 C336.90791748 380.064729 337.99161621 379.59430176 339.1081543 379.10961914 C341.75432111 378.09426851 344.20854763 377.4510038 347 377 C343.67798768 379.76390525 340.35262839 382.08024189 336.59765625 384.21484375 C335.55399902 384.81176025 334.5103418 385.40867676 333.43505859 386.02368164 C332.32211426 386.6552417 331.20916992 387.28680176 330.0625 387.9375 C327.70057847 389.28689199 325.34052975 390.63954476 322.98046875 391.9921875 C322.38764099 392.33147781 321.79481323 392.67076813 321.184021 393.02033997 C315.71830377 396.15195761 310.29167235 399.34701923 304.875 402.5625 C294.29098011 408.8384998 283.66570401 415.04213346 273.03222656 421.23388672 C267.02253855 424.73421547 261.01597388 428.23990226 255.00927734 431.74536133 C249.96149826 434.69079106 244.91207466 437.63333057 239.859375 440.5703125 C227.17796295 447.94627702 214.55709281 455.41426179 202 463 C214.94247191 460.217418 227.76803288 457.08637228 240.58203125 453.765625 C242.56401459 453.25439317 244.54606719 452.74342982 246.52818298 452.23271179 C251.84790589 450.86123541 257.16667602 449.48609793 262.48527527 448.11027145 C268.13251341 446.65014833 273.78065985 445.19354696 279.42871094 443.73657227 C288.75258892 441.33093065 298.07596145 438.92334007 307.39892578 436.51416016 C319.9097197 433.28122359 332.42145995 430.0519653 344.93359375 426.82421875 C348.76213207 425.83653204 352.59066343 424.84881835 356.41918945 423.86108398 C357.35728297 423.61906407 358.29537649 423.37704416 359.26189709 423.12769032 C365.85860618 421.4257111 372.45510966 419.72293658 379.05151367 418.01977539 C398.55568978 412.98403174 418.06092347 407.95243307 437.56819153 402.92867851 C440.96763947 402.05319701 444.36706317 401.17762148 447.76647949 400.30201721 C450.00219662 399.72616326 452.23791439 399.15031181 454.47363281 398.57446289 C455.57096237 398.29182618 456.66829193 398.00918947 457.7988739 397.71798801 C464.2608368 396.05368457 470.72298291 394.39009478 477.18526268 392.72702217 C481.17798422 391.69932744 485.17054202 390.67099767 489.16305923 389.64250946 C491.00953116 389.16700119 492.85607376 388.69176725 494.70269394 388.21683502 C496.42843193 387.77297357 498.15407686 387.32875015 499.87961769 386.88412285 C501.4753798 386.47296812 503.07135751 386.06264901 504.66757774 385.65327644 C509.79875733 384.33138031 514.89599638 382.91598779 519.96957397 381.38569641 C522 381 522 381 525 382 C503.98954297 390.43518576 482.94245643 398.77506309 461.87890625 407.07666016 C454.70878668 409.90281909 447.54039176 412.73334641 440.37188721 415.56359863 C437.98544407 416.50574656 435.59893443 417.44772585 433.21240234 418.38964844 C426.2534537 421.13625856 419.29464486 423.88321817 412.3368988 426.63287354 C391.45422293 434.88549678 370.55831156 443.10404563 349.6572876 451.31008911 C334.26390833 457.35424551 318.87635181 463.41265836 303.5 469.5 C287.10633611 475.98969468 270.70119609 482.45000135 254.29067993 488.89694214 C252.46946826 489.61244065 250.64830789 490.32806974 248.82714844 491.04370117 C235.22764943 496.38716942 221.62313083 501.71704252 208 507 C222.17252368 505.9817131 236.34016733 504.94985419 250.48657227 503.60986328 C255.68509613 503.13383079 260.77941676 502.91491482 266 503 C263.20717746 505.20062404 260.41462302 506.92321907 257.24609375 508.53125 C255.8535437 509.24522949 255.8535437 509.24522949 254.43286133 509.97363281 C253.44439209 510.47733398 252.45592285 510.98103516 251.4375 511.5 C242.76178409 515.9544467 234.26676319 520.61601748 225.94116211 525.69726562 C225.21421143 526.13232422 224.48726074 526.56738281 223.73828125 527.015625 C223.10962158 527.40008789 222.48096191 527.78455078 221.83325195 528.18066406 C220 529 220 529 216 529 C215.67 529.99 215.34 530.98 215 532 C212.54296875 533.62109375 212.54296875 533.62109375 209.1875 535.4375 C207.89469928 536.1529024 206.60309941 536.87047774 205.3125 537.58984375 C204.61382813 537.97769043 203.91515625 538.36553711 203.1953125 538.76513672 C180.41687184 551.57800959 158.64537642 566.13417288 137 580.75 C136.23011749 581.26944183 135.46023499 581.78888367 134.66702271 582.32406616 C120.02033363 592.21608076 105.42588755 602.18834839 91.4375 613 C89.65277311 614.37035105 87.86761269 615.74013763 86.08203125 617.109375 C85.22303223 617.76873047 84.3640332 618.42808594 83.47900391 619.10742188 C79.88368241 621.85224483 76.25451821 624.55067789 72.625 627.25 C64.9343445 632.98194627 57.45144124 638.96176314 50 645 C46.35357722 643.61506851 42.97196994 641.98474835 39.546875 640.12109375 C38.46962158 639.5381958 37.39236816 638.95529785 36.2824707 638.35473633 C35.70888824 638.04323639 35.13530579 637.73173645 34.54434204 637.41079712 C4.90518466 621.33375839 -25.11528425 606.07653185 -55.875 592.25 C-57.00260742 591.74307617 -58.13021484 591.23615234 -59.29199219 590.71386719 C-102.11486137 571.61701547 -146.04184498 555.33875072 -190.625 540.875 C-191.31143585 540.65225403 -191.9978717 540.42950806 -192.70510864 540.20001221 C-201.75175808 537.27415999 -210.84234854 534.5549227 -220 532 C-217.02209492 530.34560829 -214.33822957 529.61449997 -211 529 C-211.89222511 528.79875283 -211.89222511 528.79875283 -212.80247498 528.59344006 C-227.54045981 525.2691314 -242.27823249 521.9438838 -257.01579285 518.6176939 C-264.1438951 517.00894051 -271.27205998 515.40046576 -278.40039062 513.79272461 C-313.28158625 505.92535514 -348.15345427 498.01980406 -383 490 C-383 489.67 -383 489.34 -383 489 C-374.66667897 488.78221017 -366.47708449 489.62756005 -358.19897461 490.46875 C-356.61149823 490.62676427 -355.02398284 490.78438713 -353.43643188 490.94165039 C-349.14950834 491.36742456 -344.86314782 491.79863894 -340.57687068 492.23086548 C-336.08888277 492.68248646 -331.60039229 493.12905597 -327.11195374 493.57617188 C-318.62268788 494.42260008 -310.13388073 495.27354069 -301.64523083 496.12612152 C-291.97687442 497.09696609 -282.30801474 498.0627516 -272.63911045 499.02812195 C-252.75884365 501.01313716 -232.87921431 503.00447395 -213 505 C-214.73051983 504.20655368 -216.46179982 503.41476517 -218.19338989 502.62365723 C-219.15741289 502.1825486 -220.12143589 501.74143997 -221.11467171 501.28696442 C-225.3310318 499.40631 -229.61732218 497.73930135 -233.9296875 496.09375 C-234.85686081 495.73651855 -235.78403412 495.37928711 -236.73930359 495.01123047 C-238.738153 494.24114698 -240.73751196 493.47238498 -242.73733521 492.70483398 C-248.20972219 490.60348848 -253.6772494 488.48958609 -259.14453125 486.375 C-260.28339279 485.93458374 -261.42225433 485.49416748 -262.59562683 485.04040527 C-274.94358449 480.25834578 -287.25554807 475.38643901 -299.5625 470.5 C-301.2206926 469.84183792 -301.2206926 469.84183792 -302.91238403 469.17037964 C-308.46219553 466.96735444 -314.01153082 464.76313341 -319.56054688 462.55810547 C-329.64174485 458.55253824 -339.7265939 454.55619524 -349.8125 450.5625 C-351.26500656 449.98725586 -351.26500656 449.98725586 -352.74685669 449.40039062 C-370.34102459 442.43383311 -387.95312853 435.5132649 -405.56811523 428.59954834 C-423.94387139 421.38671423 -442.3084479 414.14627242 -460.65893555 406.86938477 C-462.58511446 406.10560821 -464.51130256 405.34185483 -466.4375 404.578125 C-467.38192459 404.20364731 -468.32634918 403.82916962 -469.2993927 403.44334412 C-476.34065758 400.6531687 -483.38820139 397.87918087 -490.4375 395.109375 C-493.43444652 393.93029201 -496.43127985 392.75092185 -499.42807007 391.57144165 C-501.33416808 390.82210678 -503.24075593 390.0740166 -505.14785767 389.32723999 C-507.76257051 388.30331012 -510.37558647 387.27515982 -512.98828125 386.24609375 C-514.14704773 385.79438812 -514.14704773 385.79438812 -515.32922363 385.33355713 C-518.46239851 384.09546352 -521.18554971 382.87630019 -524 381 C-519.08601834 381.62695543 -514.4038757 382.5664659 -509.59619141 383.79980469 C-508.52887598 384.07200285 -508.52887598 384.07200285 -507.43999863 384.34969997 C-505.07625663 384.9535216 -502.71391984 385.5626606 -500.3515625 386.171875 C-498.65702811 386.60603588 -496.96241551 387.03989158 -495.26773071 387.47346497 C-490.67910831 388.64852041 -486.09173212 389.82837459 -481.5045929 391.00920486 C-477.63226714 392.00538737 -473.75921926 392.9987461 -469.88617706 393.99213886 C-440.82348507 401.44700362 -411.77823042 408.96896452 -382.73882484 416.51395416 C-364.92156322 421.14281377 -347.0999572 425.75370696 -329.265625 430.31640625 C-328.4059078 430.53635946 -327.54619061 430.75631268 -326.66042137 430.98293114 C-318.90947842 432.96562041 -311.15809556 434.94658578 -303.40615845 436.92538452 C-284.47457539 441.75819303 -265.55291121 446.62526127 -246.65234375 451.578125 C-244.91978041 452.03168922 -243.18720606 452.48521138 -241.45462036 452.93869019 C-234.03451114 454.88139979 -226.61516925 456.82680485 -219.19951534 458.78646088 C-216.22371697 459.57170706 -213.24672495 460.3523502 -210.26941109 461.13182831 C-208.8890672 461.49438838 -207.50927806 461.85906776 -206.13007927 462.22595978 C-204.25926221 462.72348041 -202.38640175 463.21329883 -200.51342773 463.70263672 C-199.46613998 463.97904999 -198.41885223 464.25546326 -197.33982849 464.54025269 C-196.56768509 464.6919693 -195.79554169 464.84368591 -195 465 C-194.67 464.67 -194.34 464.34 -194 464 C-194.85182861 463.51893799 -195.70365723 463.03787598 -196.58129883 462.54223633 C-204.45080989 458.08146473 -212.22004286 453.48824538 -219.93359375 448.76171875 C-229.11836603 443.13630143 -238.34022012 437.59278415 -247.69140625 432.24731445 C-254.93479256 428.08470894 -262.058013 423.72837041 -269.1875 419.375 C-279.99554051 412.77005105 -279.99554051 412.77005105 -291 406.5 C-299.03246891 402.08888929 -306.82368317 397.28218066 -314.6427002 392.50735474 C-325.0060287 386.18056459 -335.45199922 380.01443887 -346 374 C-341.98882446 372.66294149 -340.77342067 373.73991355 -336.98046875 375.5078125 C-336.37888947 375.78433655 -335.77731018 376.0608606 -335.15750122 376.34576416 C-333.85117468 376.94727567 -332.54684308 377.55313416 -331.24429321 378.16278076 C-327.72154923 379.81080838 -324.1838712 381.42629924 -320.6484375 383.046875 C-319.55946922 383.54766068 -319.55946922 383.54766068 -318.44850159 384.05856323 C-311.44852613 387.27128163 -304.38970031 390.33596974 -297.3125 393.375 C-286.17146264 398.16857133 -275.07664725 403.05953774 -264 408 C-251.63083183 413.51610897 -239.23381076 418.95984921 -226.79589844 424.3190918 C-220.58270571 427.00014435 -214.3835451 429.70835655 -208.20703125 432.47265625 C-207.57538559 432.75509186 -206.94373993 433.03752747 -206.29295349 433.32852173 C-203.27540586 434.67876882 -200.26024133 436.03387297 -197.24780273 437.39550781 C-196.19149658 437.86956055 -195.13519043 438.34361328 -194.046875 438.83203125 C-192.65227051 439.46202026 -192.65227051 439.46202026 -191.22949219 440.10473633 C-189.09109495 441.12421143 -189.09109495 441.12421143 -187 441 C-187.66644531 440.45472656 -188.33289063 439.90945313 -189.01953125 439.34765625 C-190.97531843 437.74746674 -192.93104229 436.14719983 -194.88671875 434.546875 C-196.78455246 432.99404889 -198.68301951 431.44201129 -200.58203125 429.890625 C-207.57724386 424.17410717 -214.55211469 418.43311262 -221.5234375 412.6875 C-224.48466442 410.24716983 -227.44829105 407.80980482 -230.4140625 405.375 C-236.95792195 399.99987018 -243.4872528 394.61232293 -249.9375 389.125 C-254.28137921 385.43007002 -258.68511814 381.82597536 -263.15234375 378.28125 C-272.74255328 370.59855814 -282.1812645 362.72673103 -291.53833008 354.76245117 C-295.4317456 351.45718339 -299.40347641 348.26477843 -303.40625 345.09375 C-307.05401433 342.14916916 -310.6145398 339.10548467 -314.18359375 336.06640625 C-317.41424312 333.32225467 -320.67698054 330.63252191 -324 328 C-327.90141826 324.90926605 -331.71094338 321.72624925 -335.5 318.5 C-340.12592945 314.56278119 -344.80761265 310.7140786 -349.56640625 306.9375 C-353.52180408 303.78841922 -357.42734721 300.57898151 -361.33349609 297.36914062 C-362.53390319 296.38292864 -363.73481063 295.39732555 -364.93603516 294.41210938 C-372.31017897 288.36347958 -379.67343078 282.3056777 -386.9375 276.125 C-391.28134581 272.43003016 -395.68511905 268.82597464 -400.15234375 265.28125 C-409.73278827 257.60638086 -419.16263785 249.74329104 -428.50976562 241.78662109 C-433.25870957 237.75487079 -438.10691425 233.85482376 -443 230 C-439.40327453 230 -438.23993142 230.87900816 -435.23046875 232.7890625 C-433.7906665 233.69603882 -433.7906665 233.69603882 -432.32177734 234.62133789 C-431.28746582 235.28254639 -430.2531543 235.94375488 -429.1875 236.625 C-428.1145166 237.30361084 -427.0415332 237.98222168 -425.93603516 238.68139648 C-422.61980071 240.78102853 -419.30955279 242.88985577 -416 245 C-414.09793206 246.20746584 -412.19560312 247.41452066 -410.29296875 248.62109375 C-405.76815923 251.49337119 -401.24863953 254.37385294 -396.73095703 257.25732422 C-392.09357776 260.2165244 -387.4532185 263.17104011 -382.8125 266.125 C-381.89710449 266.70773682 -380.98170898 267.29047363 -380.03857422 267.89086914 C-374.19985027 271.60580542 -368.35310354 275.30776811 -362.5 279 C-346.73381921 288.94698174 -331.02280938 298.98008748 -315.32446289 309.03369141 C-305.79521223 315.13494726 -296.25056382 321.21179025 -286.70166016 327.28222656 C-282.13353943 330.18673564 -277.56684923 333.09349229 -273 336 C-271.16667337 337.1666772 -269.33334004 338.33334387 -267.5 339.5 C-263.83333333 341.83333333 -260.16666667 344.16666667 -256.5 346.5 C-255.5927417 347.07733887 -254.6854834 347.65467773 -253.75073242 348.24951172 C-251.91493088 349.41776388 -250.0791562 350.58605824 -248.2434082 351.75439453 C-243.69805624 354.64714755 -239.15226033 357.5391977 -234.60546875 360.4296875 C-223.83876839 367.27556634 -213.08519257 374.14156045 -202.34130859 381.02319336 C-194.43158923 386.08799501 -186.50977336 391.13352572 -178.58349609 396.17236328 C-171.37349247 400.75763158 -164.1802926 405.36834368 -157 410 C-163.0496351 401.8395888 -169.62073294 394.24379151 -176.55639648 386.83813477 C-180.45883534 382.64814126 -184.07266318 378.27899952 -187.65625 373.8125 C-190.33208171 370.60150195 -193.14358276 367.54970863 -196 364.5 C-200.43832674 359.76133536 -204.5914225 354.87880674 -208.65625 349.8125 C-211.33208171 346.60150195 -214.14358276 343.54970863 -217 340.5 C-221.43832674 335.76133536 -225.5914225 330.87880674 -229.65625 325.8125 C-232.33208171 322.60150195 -235.14358276 319.54970863 -238 316.5 C-241.64886656 312.60421766 -245.15698239 308.66665963 -248.5 304.5 C-251.88890891 300.27926799 -255.43976377 296.27236267 -259.125 292.3125 C-259.89118652 291.48806396 -259.89118652 291.48806396 -260.67285156 290.64697266 C-262.11455702 289.09734951 -263.55722814 287.54863021 -265 286 C-266.42550509 284.4665021 -267.84387709 282.92628944 -269.25 281.375 C-270.06210937 280.48941406 -270.06210937 280.48941406 -270.890625 279.5859375 C-272 278 -272 278 -272 275 C-271.154375 275.78503906 -270.30875 276.57007813 -269.4375 277.37890625 C-263.99799886 282.41994445 -258.55647371 287.44586238 -252.94921875 292.30078125 C-248.04651697 296.5746796 -243.24887834 300.96919471 -238.421875 305.328125 C-234.63525041 308.74305638 -230.84416383 312.14986526 -227 315.5 C-221.41020011 320.37143203 -215.92465102 325.3589515 -210.421875 330.328125 C-205.99878599 334.31704577 -201.55384995 338.27567907 -197.0625 342.1875 C-193.82624923 345.03147795 -190.63591332 347.92612701 -187.4375 350.8125 C-185.30582519 352.72554149 -183.1598089 354.61887612 -181 356.5 C-177.10487189 359.89253093 -173.27217237 363.35194201 -169.4375 366.8125 C-166.67260172 369.29381897 -163.87669281 371.73711721 -161.07421875 374.17578125 C-157.81448051 377.04263202 -154.60589216 379.96588484 -151.39453125 382.88671875 C-148.99011391 385.00872492 -146.51988903 387.01720988 -144 389 C-148.24250075 381.48512666 -152.75429125 374.20019769 -157.46484375 366.97363281 C-161.28622499 361.11093733 -165.05961641 355.21926679 -168.8125 349.3125 C-169.40248779 348.38429443 -169.99247559 347.45608887 -170.6003418 346.49975586 C-171.80391942 344.60576398 -173.0072878 342.71163911 -174.21044922 340.81738281 C-177.09694848 336.273017 -179.98550065 331.72995872 -182.875 327.1875 C-183.44565186 326.2903125 -184.01630371 325.393125 -184.60424805 324.46875 C-189.0977972 317.40808353 -193.60991948 310.35941138 -198.125 303.3125 C-203.30043654 295.23373972 -208.45176557 287.14068205 -213.56738281 279.02392578 C-219.08944988 270.26420712 -224.65460813 261.53199286 -230.21777344 252.79833984 C-233.14654813 248.19976238 -236.07317691 243.59981973 -239 239 C-240.16665613 237.16665996 -241.3333228 235.33332663 -242.5 233.5 C-291.5 156.5 -291.5 156.5 -293.25195312 153.74682617 C-294.41198286 151.92399174 -295.57213794 150.10123709 -296.73242188 148.27856445 C-299.75169662 143.53526345 -302.76840866 138.79035914 -305.78125 134.04296875 C-306.40386719 133.06263672 -307.02648437 132.08230469 -307.66796875 131.07226562 C-308.84847429 129.21340989 -310.02822069 127.35407171 -311.20703125 125.49414062 C-314.73187762 119.94608291 -318.32990234 114.45307078 -322 109 C-321.67 108.34 -321.34 107.68 -321 107 C-315.02745435 113.85852537 -309.12482908 120.74003975 -303.5625 127.9375 C-299.10842623 133.69480878 -294.41687087 139.20374975 -289.62304688 144.67993164 C-286.04035427 148.77878392 -282.58264708 152.94755613 -279.2109375 157.22265625 C-272.01579061 166.26108282 -264.61010782 175.13826345 -257.125 183.9375 C-253.43008666 188.28139509 -249.82597613 192.68511718 -246.28125 197.15234375 C-239.03716293 206.19504833 -231.63218417 215.11231126 -224.125 223.9375 C-220.43008666 228.28139509 -216.82597613 232.68511718 -213.28125 237.15234375 C-206.03716293 246.19504833 -198.63218417 255.11231126 -191.125 263.9375 C-187.43008666 268.28139509 -183.82597613 272.68511718 -180.28125 277.15234375 C-173.03716293 286.19504833 -165.63218417 295.11231126 -158.125 303.9375 C-154.43008666 308.28139509 -150.82597613 312.68511718 -147.28125 317.15234375 C-139.67663667 326.64508881 -131.8880285 335.98896534 -123.98876953 345.23730469 C-120.09095623 349.83027861 -116.37225497 354.55621149 -112.70239258 359.33276367 C-110.30128217 362.43792157 -107.80045797 365.25499664 -105 368 C-105.51570557 366.79843262 -106.03141113 365.59686523 -106.56274414 364.35888672 C-109.06356684 358.53131216 -111.563186 352.70322174 -114.0625 346.875 C-114.5302887 345.78425171 -114.99807739 344.69350342 -115.4800415 343.56970215 C-120.9060542 330.91566468 -126.32193009 318.25744603 -131.70703125 305.5859375 C-132.40784569 303.93713341 -132.40784569 303.93713341 -133.12281799 302.25502014 C-136.92509289 293.30898953 -136.92509289 293.30898953 -138.79678345 288.90341187 C-144.30059607 275.95368684 -149.84338574 263.02186653 -155.4609375 250.12109375 C-155.72656368 249.51078686 -155.99218987 248.90047997 -156.26586533 248.27167892 C-159.0792862 241.80779023 -161.89886301 235.34666155 -164.72802734 228.88964844 C-165.64688366 226.7845374 -166.56566997 224.67939581 -167.484375 222.57421875 C-167.89891937 221.63291611 -168.31346375 220.69161346 -168.74057007 219.7217865 C-171.13289364 214.22970373 -173.21806731 208.72012198 -175 203 C-172.44364113 205.4634849 -170.78204022 207.86217953 -169.0234375 210.9609375 C-168.15416626 212.48195068 -168.15416626 212.48195068 -167.26733398 214.03369141 C-166.64286377 215.13632324 -166.01839355 216.23895508 -165.375 217.375 C-164.02184404 219.7461161 -162.66506889 222.11515659 -161.30859375 224.484375 C-160.78154594 225.40647263 -160.78154594 225.40647263 -160.24385071 226.34719849 C-156.35946995 233.13645354 -152.40065459 239.88153206 -148.4375 246.625 C-147.35733126 248.46469285 -146.27740153 250.30452587 -145.19747925 252.1443634 C-144.48801206 253.35305113 -143.77847892 254.56170013 -143.06887817 255.77030945 C-134.08827155 271.06797459 -125.18043355 286.40663318 -116.32592773 301.77758789 C-112.51482038 308.38865184 -108.67831764 314.98334955 -104.79833984 321.55419922 C-98.82224518 331.67737919 -92.91833774 341.84298898 -87 352 C-89.74850803 340.12768282 -92.66031405 328.30510374 -95.68359375 316.5 C-96.13551395 314.7307149 -96.5873235 312.96140154 -97.03903198 311.19206238 C-98.25027684 306.44984243 -99.46379078 301.70820607 -100.67795181 296.96673203 C-101.4461143 293.96635325 -102.21366465 290.96581847 -102.98104858 287.96524048 C-110.66348786 257.928552 -118.4094079 227.9087182 -126.20537758 197.9013176 C-134.62189806 165.50410445 -142.9697406 133.08933509 -151.30857754 100.67204952 C-151.8467557 98.57995974 -152.38499669 96.48788611 -152.92330265 94.3958292 C-154.20962676 89.39627337 -155.4948117 84.39643107 -156.77729797 79.39588928 C-159.01431113 70.67857281 -161.26574055 61.96593565 -163.57177734 53.26660156 C-164.14439096 51.09474886 -164.71643265 48.9227464 -165.28827477 46.75069046 C-165.80756162 44.78947238 -166.33586163 42.83064767 -166.86445618 40.87191772 C-167.16530624 39.72905304 -167.46615631 38.58618835 -167.77612305 37.40869141 C-168.03894577 36.42720123 -168.30176849 35.44571106 -168.57255554 34.43447876 C-169 32 -169 32 -168 29 C-159.56481424 50.01045703 -151.22493691 71.05754357 -142.92333984 92.12109375 C-140.09718091 99.29121332 -137.26665359 106.45960824 -134.43640137 113.62811279 C-133.49425344 116.01455593 -132.55227415 118.40106557 -131.61035156 120.78759766 C-128.86373138 127.74657177 -126.11676238 134.70540636 -123.36709595 141.66317749 C-116.11162806 160.02263043 -108.88011346 178.39134066 -101.6663208 196.76721191 C-92.24563203 220.76449324 -82.7807381 244.74385136 -73.28329468 268.71084595 C-69.51511186 278.22110051 -65.75567933 287.73480154 -62 297.25 C-61.69562012 298.02114136 -61.39124023 298.79228271 -61.07763672 299.58679199 C-55.36898305 314.0515356 -49.67884433 328.52352811 -44 343 C-43.79374186 334.61114491 -44.5931002 326.34413659 -45.37695312 318.00292969 C-45.52509311 316.39400474 -45.67286449 314.78504582 -45.82029724 313.17605591 C-46.13712965 309.72685392 -46.45652173 306.2779022 -46.77793884 302.82912445 C-47.28620985 297.3750129 -47.7885789 291.92036737 -48.29016113 286.46563721 C-49.08393423 277.84073536 -49.88148688 269.21618805 -50.68073893 260.59179235 C-52.11299808 245.13686647 -53.54133341 229.68157945 -54.96450567 214.2258141 C-55.46396511 208.80364881 -55.96590369 203.38172039 -56.46982574 197.95996809 C-56.78259873 194.59035131 -57.09352254 191.22056569 -57.40397835 187.85073471 C-57.54829962 186.28857176 -57.69341025 184.7264815 -57.83936882 183.16447067 C-58.0385244 181.03209639 -58.23487116 178.89948112 -58.43054199 176.76678467 C-58.54115715 175.57369061 -58.65177231 174.38059654 -58.76573944 173.15134811 C-58.96900144 170.41700259 -59.04694931 167.73993229 -59 165 C-57.09878522 167.85182217 -56.53968569 169.35276823 -55.83972168 172.60688782 C-55.63265594 173.55423294 -55.42559021 174.50157806 -55.21224976 175.47763062 C-54.99203156 176.51666534 -54.77181335 177.55570007 -54.54492188 178.6262207 C-54.30709991 179.72319778 -54.06927795 180.82017487 -53.82424927 181.95039368 C-53.03297799 185.60756781 -52.25089479 189.26664534 -51.46875 192.92578125 C-50.91321076 195.50184775 -50.35708892 198.07778868 -49.80041504 200.65361023 C-48.47561032 206.78832147 -47.15733333 212.92441627 -45.84143305 219.06104296 C-44.38382563 225.85726448 -42.91977958 232.65209208 -41.45477486 239.44672227 C-40.73683586 242.77652451 -40.01913565 246.1063782 -39.30151367 249.43624878 C-39.16018226 250.0920445 -39.01885084 250.74784021 -38.87323666 251.42350852 C-37.88089629 256.02884746 -36.88993572 260.63448198 -35.8996582 265.24026489 C-30.9695609 288.16814475 -25.99200075 311.08553385 -21 334 C-18.53828359 301.0059909 -16.45986261 267.98983099 -14.4309115 234.96694234 C-13.96977901 227.46290839 -13.50629008 219.95902044 -13.04273017 212.45513613 C-12.21536319 199.06109086 -11.38980875 185.66693455 -10.56542969 172.27270508 C-9.76931384 159.3377422 -8.97219181 146.40284192 -8.17382812 133.46801758 C-8.12440277 132.66724003 -8.07497742 131.86646249 -8.02405433 131.04141896 C-7.82524865 127.8204711 -7.62643791 124.59952356 -7.42762002 121.37857645 C-6.52151773 106.69903229 -5.61609186 92.01944639 -4.7109375 77.33984375 C-4.6654077 76.6014544 -4.61987791 75.86306504 -4.57296842 75.10230026 C-4.00391394 65.87319427 -3.43521556 56.64406643 -2.86705208 47.41490555 C-2.70951838 44.85642707 -2.5519082 42.2979533 -2.39421272 39.73948479 C-1.57788893 26.49403152 -0.76808414 13.24834748 0 0 Z M-43 345 C-42 348 -42 348 -42 348 Z " fill="#4B4874" transform="translate(865,397)"/>
<path d="M0 0 C0.20564698 10.7176951 -0.40163275 21.31674671 -1.1875 32 C-1.25246674 32.88894958 -1.31743347 33.77789917 -1.3843689 34.69378662 C-8.2413716 126.78641663 -35.6049723 216.56679691 -81 297 C-81.47018555 297.83515137 -81.94037109 298.67030273 -82.42480469 299.53076172 C-99.1743397 328.98495853 -118.96981042 357.18739252 -140.56738281 383.26318359 C-142.62882132 385.76234405 -144.65416707 388.29045371 -146.6875 390.8125 C-150.53037588 395.50856483 -154.56916997 399.99844905 -158.6796875 404.4609375 C-160.58415342 406.54494903 -162.42615302 408.65871086 -164.25 410.8125 C-168.33695754 415.54112962 -172.83060848 419.87958899 -177.29003906 424.25317383 C-177.88268555 424.83736084 -178.47533203 425.42154785 -179.0859375 426.0234375 C-179.8910376 426.81113525 -179.8910376 426.81113525 -180.71240234 427.61474609 C-182.11276003 428.9910379 -182.11276003 428.9910379 -183 431 C-183.66 431 -184.32 431 -185 431 C-185 431.66 -185 432.32 -185 433 C-185.66 433 -186.32 433 -187 433 C-187 433.66 -187 434.32 -187 435 C-187.66 435 -188.32 435 -189 435 C-189 435.66 -189 436.32 -189 437 C-190.50390625 438.48046875 -190.50390625 438.48046875 -192.5625 440.1875 C-195.3253868 442.53279758 -197.96679757 444.90829405 -200.5 447.5 C-203.39616027 450.43494813 -206.3992918 453.17728599 -209.5234375 455.8671875 C-211.47642465 457.54909757 -213.41668465 459.24274906 -215.3515625 460.9453125 C-223.68611004 468.2593706 -232.18296808 475.27634358 -241 482 C-241.75974121 482.58040039 -242.51948242 483.16080078 -243.30224609 483.75878906 C-253.7219152 491.6981756 -264.24470908 499.4332744 -275.12060547 506.73681641 C-276.98236325 507.98814594 -278.83723219 509.24918717 -280.69140625 510.51171875 C-295.95968008 520.85872969 -311.76508694 530.25561854 -328 539 C-328.84062988 539.45455566 -329.68125977 539.90911133 -330.54736328 540.37744141 C-397.51115591 576.42535563 -484.97011352 612.13930398 -562.5 611.0625 C-563.3559375 611.05347656 -564.211875 611.04445313 -565.09375 611.03515625 C-565.7228125 611.02355469 -566.351875 611.01195312 -567 611 C-566.38078454 591.80432086 -558.47777316 574.70147064 -545 561 C-544.34 561 -543.68 561 -543 561 C-542.67 560.01 -542.34 559.02 -542 558 C-538.53509742 554.76262385 -534.73549955 551.91777826 -531 549 C-529.63101563 547.90945313 -529.63101563 547.90945313 -528.234375 546.796875 C-511.04033141 533.44507578 -491.38096288 523.32407954 -472.125 513.3125 C-468.08285268 511.20925495 -464.04122278 509.10502095 -460 507 C-458.85547363 506.40493652 -457.71094727 505.80987305 -456.53173828 505.19677734 C-434.50397085 493.72225622 -412.14379406 481.64896854 -394.671875 463.6171875 C-392 461 -392 461 -390 461 C-389.59587891 460.09507812 -389.59587891 460.09507812 -389.18359375 459.171875 C-387.98679448 456.9757681 -386.92985934 455.87537879 -385.0625 454.25 C-367.44196513 437.03326906 -356.64038316 411.42453129 -356 387 C-356.35481005 367.31477914 -364.51915786 350.10250533 -378.05859375 336.1796875 C-380 334 -380 334 -380 332 C-380.5465625 331.75636719 -381.093125 331.51273438 -381.65625 331.26171875 C-384.52547816 329.71711759 -386.93155907 327.81823142 -389.5 325.8125 C-421.43061013 301.5084253 -462.16518789 299.10794467 -500.82833862 297.1836853 C-563.44475696 294.05022094 -563.44475696 294.05022094 -583.13671875 276.1484375 C-584.99848864 274.00174266 -585.62928076 272.77725265 -586 270 C-578.90572226 263.90740599 -571.74341259 257.93575088 -564.36352539 252.19140625 C-561.37178271 249.86262751 -558.3940896 247.5207204 -555.44921875 245.1328125 C-545.53346517 237.09395505 -535.325857 229.50261144 -525 222 C-524.2481543 221.4519873 -523.49630859 220.90397461 -522.72167969 220.33935547 C-506.24141027 208.33106455 -489.64973651 196.50749719 -472.44238281 185.55908203 C-469.650583 183.77695152 -466.86815507 181.98064572 -464.0859375 180.18359375 C-451.1996298 171.87353657 -438.23286698 163.74694568 -425 156 C-423.49783936 155.12045654 -423.49783936 155.12045654 -421.96533203 154.22314453 C-401.50211803 142.27252799 -380.78481569 130.88012565 -359.7421875 119.984375 C-356.02635026 118.05949872 -352.32385548 116.11260765 -348.6328125 114.140625 C-321.15793726 99.5122111 -292.77818096 86.82315991 -264 75 C-262.94746033 74.56654266 -262.94746033 74.56654266 -261.87365723 74.12432861 C-212.13246691 53.6527492 -161.26279267 36.15621238 -109.20227051 22.57629395 C-107.11356393 22.02971761 -105.02670658 21.47666735 -102.94042969 20.92089844 C-85.55219717 16.30841315 -68.04390444 12.43009698 -50.4375 8.75 C-49.44073242 8.54108124 -48.44396484 8.33216248 -47.41699219 8.11691284 C-36.40129262 5.81708533 -25.36840446 3.65358665 -14.28515625 1.703125 C-13.31219101 1.53061218 -12.33922577 1.35809937 -11.33677673 1.18035889 C-9.98103294 0.9465451 -9.98103294 0.9465451 -8.59790039 0.70800781 C-7.80444717 0.57066223 -7.01099396 0.43331665 -6.1934967 0.29180908 C-4 0 -4 0 0 0 Z " fill="#D80F8B" transform="translate(1508,811)"/>
<path d="M0 0 C1.77845624 3.194555 2.62671059 6.22897677 3.41015625 9.79296875 C3.67272217 10.9629541 3.93528809 12.13293945 4.20581055 13.33837891 C4.48851807 14.60858887 4.77122559 15.87879883 5.0625 17.1875 C11.71030839 46.35371758 20.15621944 74.75706429 30 103 C30.23138672 103.66751282 30.46277344 104.33502563 30.70117188 105.02276611 C40.93580872 134.54173884 53.62942562 162.82524126 67.43505859 190.82324219 C68.84847831 193.69241807 70.24858284 196.56761016 71.64453125 199.4453125 C90.29806408 237.6486105 113.64079142 273.90874271 139 308 C139.80091122 309.08584165 140.60169971 310.17177383 141.40234375 311.2578125 C149.7081691 322.43929268 158.33362154 333.3270583 167.3828125 343.9140625 C169.80691756 346.75605565 172.15731399 349.65290065 174.5 352.5625 C178.55825768 357.55168418 182.84515566 362.27670615 187.2265625 366.98046875 C189.32741599 369.24510979 191.36761795 371.55569773 193.39453125 373.88671875 C196.87135835 377.87581601 200.44068078 381.76744967 204.0625 385.625 C204.70082764 386.30506104 205.33915527 386.98512207 205.99682617 387.68579102 C210.53810183 392.50040226 215.14269124 397.24750211 219.8125 401.9375 C220.70110718 402.83299561 220.70110718 402.83299561 221.60766602 403.74658203 C224.52564797 406.73989972 224.52564797 406.73989972 228 409 C228 409.66 228 410.32 228 411 C228.82757813 411.33451172 228.82757813 411.33451172 229.671875 411.67578125 C232.7305676 413.41554097 234.8073812 415.65764482 237.25 418.1875 C241.66218173 422.6914353 246.19040028 426.9258889 251 431 C252.05010826 431.90161156 253.09952702 432.80402651 254.1484375 433.70703125 C257.16422616 436.30216997 260.18802624 438.88778569 263.21386719 441.47119141 C264.87882164 442.89627954 266.53776082 444.32803478 268.1953125 445.76171875 C276.21692289 452.66701665 284.55645617 459.10124722 293 465.48046875 C294.80188939 466.84948237 296.59175403 468.23183908 298.375 469.625 C337.02121231 499.7690456 379.40210101 524.80103672 423 547 C423.8058252 547.41121094 424.61165039 547.82242188 425.44189453 548.24609375 C442.52386178 556.94377492 459.79275473 564.96202066 477.625 572 C478.49562073 572.34549896 479.36624146 572.69099792 480.26324463 573.04696655 C494.4086481 578.65906653 508.59163784 584.09544324 523 589 C524.19995605 589.41523926 525.39991211 589.83047852 526.63623047 590.25830078 C544.48689368 596.42082181 562.49112093 601.60701443 580.8125 606.1875 C581.78555084 606.43191833 582.75860168 606.67633667 583.76113892 606.92816162 C586.53277611 607.62069655 589.30666515 608.30304791 592.08203125 608.98046875 C593.32509033 609.28897514 593.32509033 609.28897514 594.59326172 609.60371399 C598.50786954 610.54251215 601.95200283 611.12109195 606 611 C606.99 611.33 607.98 611.66 609 612 C644.35212838 622.3625179 682.29470768 626.63527937 719 629 C719.64038208 629.04276062 720.28076416 629.08552124 720.94055176 629.12957764 C740.93784338 630.46292492 760.89444288 631.188807 780.9375 631.1875 C781.82037689 631.18840637 782.70325378 631.18931274 783.61288452 631.19024658 C805.81738635 631.18765275 827.85012233 630.08438925 849.9375 627.8125 C851.00694855 627.70395691 852.07639709 627.59541382 853.17825317 627.48358154 C938.19948071 618.79764227 1019.85757825 597.76482911 1175 525 C1176.05993164 524.38688965 1177.11986328 523.7737793 1178.21191406 523.14208984 C1194.55925255 513.68497152 1210.43761169 503.6988008 1226 493 C1226.88268555 492.39414063 1227.76537109 491.78828125 1228.67480469 491.1640625 C1247.05430818 478.51045469 1264.9401715 465.39110628 1282 451 C1283.15229993 450.03249989 1284.30464142 449.06504928 1285.45703125 448.09765625 C1288.11376919 445.86228266 1290.75943181 443.6142499 1293.40087891 441.36083984 C1295.05849996 439.95021698 1296.72229828 438.54712211 1298.38671875 437.14453125 C1306.526661 430.25953016 1314.3556596 423.09137241 1322.10791016 415.77441406 C1324.0328134 413.96922738 1325.97253665 412.18146747 1327.91796875 410.3984375 C1328.55089844 409.81698975 1329.18382812 409.23554199 1329.8359375 408.63647461 C1331.03274291 407.53829834 1332.23181162 406.44258131 1333.43359375 405.34985352 C1335.94878935 403.03490042 1338.13983525 400.82309999 1340.26953125 398.12890625 C1340.84058594 397.42636719 1341.41164063 396.72382812 1342 396 C1342.66 396 1343.32 396 1344 396 C1344.38828979 395.12166504 1344.38828979 395.12166504 1344.78442383 394.22558594 C1346.09221724 391.8311604 1347.49736101 390.28906671 1349.44921875 388.390625 C1350.13306641 387.71773437 1350.81691406 387.04484375 1351.52148438 386.3515625 C1352.59366211 385.31128906 1352.59366211 385.31128906 1353.6875 384.25 C1358.46643848 379.5906457 1363.0770326 374.88415245 1367.42993164 369.82177734 C1369.52351201 367.39256 1371.69905566 365.04294143 1373.875 362.6875 C1377.96757435 358.19986568 1381.85270834 353.59069772 1385.6640625 348.86328125 C1387.71771612 346.34601018 1389.81555735 343.87455552 1391.93603516 341.41357422 C1397.63460903 334.785116 1402.91551529 327.9047249 1408.11328125 320.87890625 C1410.60096519 317.5180346 1413.16482381 314.22418128 1415.75 310.9375 C1432.34368127 289.41632108 1447.11119669 266.34165615 1461 243 C1461.54849609 242.08105957 1462.09699219 241.16211914 1462.66210938 240.21533203 C1476.65756112 216.66305266 1489.22747687 192.38426151 1500.8125 167.5625 C1501.10150177 166.94379028 1501.39050354 166.32508057 1501.68826294 165.68762207 C1505.01568733 158.54107348 1508.17164044 151.35919622 1511 144 C1512.67243484 148.05685825 1511.18200066 151.39588345 1509.82421875 155.31640625 C1509.58392944 156.03602539 1509.34364014 156.75564453 1509.09606934 157.49707031 C1508.30443907 159.85617648 1507.49686208 162.20942332 1506.6875 164.5625 C1506.12836112 166.20749864 1505.569526 167.85260055 1505.01098633 169.49780273 C1503.36093901 174.33898182 1501.68466306 179.17077392 1500 184 C1499.3503125 185.86785156 1499.3503125 185.86785156 1498.6875 187.7734375 C1488.18569611 217.68976044 1475.19838499 246.67126661 1461 275 C1460.24904053 276.50578613 1460.24904053 276.50578613 1459.48291016 278.04199219 C1451.40909881 294.14651145 1442.33277327 309.60377526 1433 325 C1432.43667969 325.93585938 1431.87335938 326.87171875 1431.29296875 327.8359375 C1418.34099829 349.32801501 1404.13036639 369.9866955 1389 390 C1388.29472168 390.93489258 1388.29472168 390.93489258 1387.57519531 391.88867188 C1382.59232193 398.47717788 1377.47509156 404.94679159 1372.21484375 411.31640625 C1370.71870021 413.12919392 1369.23192165 414.94974557 1367.75390625 416.77734375 C1363.35263956 422.21599738 1358.82668963 427.49403475 1354.1171875 432.66796875 C1352.21948831 434.75823889 1350.35266585 436.86986115 1348.5 439 C1344.38689548 443.71548138 1340.20476822 448.3661738 1336 453 C1335.12730469 453.96679688 1334.25460937 454.93359375 1333.35546875 455.9296875 C1327.47581524 462.4008884 1321.42138897 468.68137786 1315.25 474.875 C1314.20489258 475.92699585 1314.20489258 475.92699585 1313.13867188 477.00024414 C1309.13573404 480.99132493 1305.02118799 484.78528224 1300.74121094 488.47705078 C1298.73322468 490.23333489 1296.85265146 492.08118241 1295 494 C1291.16398851 497.88035844 1287.13870076 501.44783485 1283 505 C1281.84827706 506.0031246 1280.69730163 507.00710776 1279.546875 508.01171875 C1250.21036255 533.603787 1218.92599188 557.20870466 1186 578 C1185.20110352 578.50644043 1184.40220703 579.01288086 1183.57910156 579.53466797 C1170.88377935 587.56251963 1157.97380566 595.13914943 1144.83789062 602.42236328 C1142.09847041 603.94525845 1139.36908899 605.4849284 1136.640625 607.02734375 C1122.12673054 615.16573936 1107.15850072 622.15402417 1092 629 C1089.70960099 630.0454975 1087.4192359 631.09106932 1085.12890625 632.13671875 C1069.96331928 639.01604431 1054.63287636 645.26488718 1039 651 C1038.36684875 651.23332031 1037.73369751 651.46664062 1037.08135986 651.70703125 C957.34175948 681.07715827 872.87162648 697.78539954 699 696 C698.25075256 695.92330078 697.50150513 695.84660156 696.72955322 695.76757812 C608.16585984 686.6735027 522.37477563 664.12507408 441.64208984 626.23730469 C439.23107901 625.10821553 436.81444033 623.99266766 434.39453125 622.8828125 C388.65989619 601.81351948 345.02818643 574.52011308 305 544 C303.78258879 543.07937855 302.56514254 542.15880342 301.34765625 541.23828125 C291.58658505 533.82299113 282.15708248 526.02170656 272.82714844 518.07519531 C269.51434125 515.25882059 266.15327194 512.51964814 262.75 509.8125 C255.52996055 503.9357237 248.87862735 497.44225754 242.14013672 491.02685547 C239.50324816 488.52954212 236.83946297 486.0624048 234.17285156 483.59692383 C224.22438988 474.38872169 214.26140433 465.07192806 205.49609375 454.7109375 C203.94882394 452.9414749 202.31524692 451.32025552 200.625 449.6875 C196.9016793 446.03037166 193.71179287 442.00903553 190.4453125 437.9453125 C187.93835889 434.92575495 185.30801205 432.04877897 182.625 429.1875 C178.15118129 424.39429056 174.05386154 419.38945062 170.04858398 414.20068359 C167.18257731 410.48946162 164.23274552 406.88021411 161.1875 403.3125 C137.86855026 375.49921872 118.37073591 344.20738291 100 313 C99.4755127 312.11231934 98.95102539 311.22463867 98.41064453 310.31005859 C73.76383445 268.45138569 53.92032622 224.10655144 38.10693359 178.2109375 C37.06857493 175.19891872 36.01364133 172.19315166 34.95703125 169.1875 C18.53711449 121.87339182 8.15639639 72.46683695 1.625 22.875 C1.45701904 21.60648193 1.28903809 20.33796387 1.1159668 19.03100586 C0.31286821 12.63094791 -0.18031377 6.44968481 0 0 Z " fill="#902BB8" transform="translate(25,864)"/>
<path d="M0 0 C15.14736382 6.95213355 27.54248666 15.94708986 39.48144531 27.53271484 C40.91710362 28.91990238 42.37589527 30.28303181 43.8359375 31.64453125 C55.200817 42.50466681 64.21395638 55.3907809 72 69 C72.65484375 70.134375 73.3096875 71.26875 73.984375 72.4375 C97.94452737 115.01655439 100.30691014 157.73230168 87.75390625 204.46923828 C86.75287249 207.82957375 85.58093446 210.86820321 84 214 C76.79499367 217.60250316 59.81507215 210.97825511 52.3125 208.609375 C27.53968882 200.03658038 9.35699305 185.19271482 -3 162 C-3.46277344 161.17886719 -3.92554687 160.35773438 -4.40234375 159.51171875 C-25.26254578 120.9236773 -23.96356253 70.92032626 -12 30 C-10.71062701 25.85187242 -9.34731614 21.73366314 -7.9375 17.625 C-7.44503784 16.18930664 -7.44503784 16.18930664 -6.94262695 14.72460938 C-5.06924189 9.45948521 -2.94052257 4.75460888 0 0 Z " fill="#D80F8B" transform="translate(74,424)"/>
<path d="M0 0 C13.98683655 3.80722771 26.7521432 23.95171296 33.71191406 35.95166016 C54.06276463 72.21011038 65.92076323 114.79366163 55 156 C49.85085829 173.95977578 41.41687239 189.97128105 32 206 C26.77993588 205.41182376 22.62220939 203.73413147 17.9375 201.5 C17.19234131 201.14542725 16.44718262 200.79085449 15.67944336 200.42553711 C4.53383343 194.96785056 -5.15180923 187.69589833 -14 179 C-14.69738281 178.31550781 -15.39476562 177.63101563 -16.11328125 176.92578125 C-36.00364644 156.03124228 -38.95780064 127.1548584 -38.34765625 99.65234375 C-37.56227429 76.90441689 -30.96751133 54.38830824 -21 34 C-20.62858887 33.23800293 -20.25717773 32.47600586 -19.87451172 31.69091797 C-8.36484125 8.36484125 -8.36484125 8.36484125 0 0 Z " fill="#D80F8B" transform="translate(185,267)"/>
<path d="M0 0 C15.32820553 11.05993113 23.4380888 35.41091683 28 53 C28.31759277 54.21623047 28.31759277 54.21623047 28.64160156 55.45703125 C36.89063568 88.66233501 33.83090506 125.37899654 16.25585938 154.98583984 C9.4552625 165.89270692 1.24682017 179.03572471 -9 187 C-17.82767601 186.85309465 -25.99575153 176.56973049 -32 171 C-32.928125 170.18789063 -32.928125 170.18789063 -33.875 169.359375 C-48.11043604 156.31022529 -55.21675467 136.77655442 -56.28515625 117.8671875 C-57.63279284 76.84127917 -38.2281405 40.38116744 -11.50634766 10.60693359 C-7.9288263 6.79052426 -4.0106657 3.35405229 0 0 Z " fill="#D70F8B" transform="translate(314,150)"/>
<path d="M0 0 C17.195277 33.32384946 18.32220045 68.23255155 8 104 C6.60963163 108.17566369 4.98781429 112.07592857 3 116 C2.52175781 116.95519531 2.04351562 117.91039062 1.55078125 118.89453125 C-3.151719 127.58220121 -9.38101827 134.74397446 -16 142 C-16.61746094 142.68964844 -17.23492187 143.37929687 -17.87109375 144.08984375 C-23.23661562 149.77649411 -29.68446647 154.42723395 -36 159 C-36.87398438 159.63421875 -37.74796875 160.2684375 -38.6484375 160.921875 C-41 162 -41 162 -43.08203125 161.421875 C-56.86451796 151.20430848 -67.52358223 130.6300978 -70 114 C-72.54509022 86.46858754 -61.31776977 58.14236557 -44 37 C-33.51368646 24.87782154 -22.30849083 13.29595293 -8.9375 4.375 C-8.28217285 3.93712158 -7.6268457 3.49924316 -6.95166016 3.0480957 C-2.2699325 0 -2.2699325 0 0 0 Z " fill="#D70F8B" transform="translate(449,71)"/>
<path d="M0 0 C0.77420157 2.17945046 1.44540958 4.39596618 2.0625 6.625 C2.40410156 7.83414063 2.74570312 9.04328125 3.09765625 10.2890625 C9.04774377 34.75911942 5.10279434 61.22521619 -5 84 C-5.28327148 84.63921387 -5.56654297 85.27842773 -5.85839844 85.93701172 C-15.68548108 107.44257766 -36.00920558 124.57627028 -58 133 C-59.32 133 -60.64 133 -62 133 C-72.62202901 115.38918502 -80.71332532 96.91809177 -75.8125 75.875 C-67.48291362 46.56575448 -46.71781636 22.29461172 -20.41015625 7.31640625 C-3.6692043 -1.83460215 -3.6692043 -1.83460215 0 0 Z " fill="#D70F8B" transform="translate(578,25)"/>
<path d="M0 0 C12.54132257 9.62268169 22.68113918 21.22763885 30.16381836 35.15161133 C30.48995117 35.75755127 30.81608398 36.36349121 31.15209961 36.98779297 C33.22933824 41.01796739 34.54724742 44.91081895 35.66381836 49.27661133 C14.74244578 60.38580378 -14.68276231 57.71455542 -36.49633789 51.53442383 C-47.09517708 48.19030261 -57.12460538 43.90373376 -65.33618164 36.27661133 C-66.26688477 35.4593457 -67.19758789 34.64208008 -68.15649414 33.80004883 C-77.90136564 24.9152039 -86.71203801 13.10363655 -90.33618164 0.27661133 C-62.11646761 -20.28659114 -28.22462173 -20.72852137 0 0 Z " fill="#D70F8B" transform="translate(617.336181640625,175.723388671875)"/>
<path d="M0 0 C3.41570851 15.24433974 1.73391626 32.23949389 -3 47 C-3.36222656 48.13308594 -3.72445312 49.26617187 -4.09765625 50.43359375 C-11.15020129 70.3480684 -23.75458281 88.11872424 -42.94384766 97.62695312 C-64.44810245 107.85063252 -64.44810245 107.85063252 -70 106 C-72.08965317 101.83309517 -73.51367004 97.41317834 -75 93 C-75.25265625 92.26394531 -75.5053125 91.52789062 -75.765625 90.76953125 C-79.54348937 77.25017376 -77.64163336 61.94797943 -71.26953125 49.6640625 C-66.97321021 42.30629114 -61.92059352 36.09442787 -56 30 C-55.32582031 29.25234375 -54.65164063 28.5046875 -53.95703125 27.734375 C-41.49734509 14.36300449 -18.70095338 0 0 0 Z " fill="#D70F8B" transform="translate(695,3)"/>
<path d="M0 0 C2.23975552 1.70374565 4.39055611 3.47928471 6.53515625 5.30078125 C7.18871094 5.80996094 7.84226562 6.31914062 8.515625 6.84375 C23.00320809 18.55526926 32.24574512 36.40942165 36.53515625 54.30078125 C36.53515625 54.96078125 36.53515625 55.62078125 36.53515625 56.30078125 C12.28134358 62.55099376 -11.99473395 56.77153361 -33.83203125 45.57421875 C-50.55010819 35.58126058 -59.9966344 19.50743285 -65.46484375 1.30078125 C-65.46484375 -0.01921875 -65.46484375 -1.33921875 -65.46484375 -2.69921875 C-43.12813297 -12.22904645 -20.9692701 -14.45583597 0 0 Z " fill="#D70F8B" transform="translate(698.46484375,130.69921875)"/>
<path d="M0 0 C3.08448622 17.58157146 -3.20943229 34.96259185 -12 50 C-14.77312557 53.89534365 -17.78145015 57.46744529 -21 61 C-21.63679687 61.72960938 -22.27359375 62.45921875 -22.9296875 63.2109375 C-33.56852273 74.73266362 -48.73911753 79.95805094 -64 82 C-65.66643 82.0280859 -67.33370516 82.03520341 -69 82 C-73.31884452 66.75550715 -73.86684582 52.42970999 -66.4921875 38.0625 C-54.99065293 18.80411654 -35.00621066 7.95212174 -14 2 C-4.60824742 0 -4.60824742 0 0 0 Z " fill="#D70F8B" transform="translate(796,0)"/>
<path d="M0 0 C0.8559375 0.7940625 1.711875 1.588125 2.59375 2.40625 C2.59375 3.39625 2.59375 4.38625 2.59375 5.40625 C0.58772885 7.15008601 -1.35503446 8.65133194 -3.53125 10.15625 C-4.16216553 10.59727051 -4.79308105 11.03829102 -5.44311523 11.49267578 C-23.47370939 23.80548812 -44.48158854 30.2775857 -66.40625 28.40625 C-78.25044544 25.9525253 -88.07039118 20.90489231 -97.27734375 13.17578125 C-99.48448561 11.27806058 -99.48448561 11.27806058 -102.40625 9.40625 C-99.6167922 -0.51182219 -89.60740494 -7.31438245 -81.40625 -12.59375 C-54.29262803 -26.87867615 -22.94979866 -17.95136476 0 0 Z " fill="#D70F8B" transform="translate(888.40625,74.59375)"/>
<path d="M0 0 C2.54853181 2.22612719 4.99135561 4.52067788 7.40625 6.890625 C8.03402344 7.49390625 8.66179688 8.0971875 9.30859375 8.71875 C20.36335986 20.24979855 26.69437297 37.12254871 27.40625 52.890625 C7.72617777 56.40492361 -12.4529418 48.94357164 -28.51953125 37.875 C-42.32631538 27.23183409 -50.0260932 13.54345227 -52.28125 -3.796875 C-52.384375 -4.89 -52.4875 -5.983125 -52.59375 -7.109375 C-34.56739217 -14.38316851 -15.20504621 -12.36554963 0 0 Z " fill="#D70F8B" transform="translate(783.59375,109.109375)"/>
<path d="M0 0 C0.97812873 3.05628064 1.00835683 4.85277447 0.00390625 7.890625 C-0.33930664 8.95410156 -0.33930664 8.95410156 -0.68945312 10.0390625 C-0.93630859 10.76867187 -1.18316406 11.49828125 -1.4375 12.25 C-1.68048828 12.99507812 -1.92347656 13.74015625 -2.17382812 14.5078125 C-2.77332981 16.34158235 -3.38544487 18.17122004 -4 20 C-4.99 19.67 -5.98 19.34 -7 19 C-6.33392561 14.59041892 -4.73375271 10.73427814 -2.9375 6.6875 C-2.65583984 6.04232422 -2.37417969 5.39714844 -2.08398438 4.73242188 C-1.3937257 3.15301642 -0.69746802 1.57623507 0 0 Z " fill="#922CA3" transform="translate(1536,1008)"/>
<path d="M0 0 C-5.28 1.98 -10.56 3.96 -16 6 C-14 2 -14 2 -11.50390625 0.91796875 C-10.53324219 0.67691406 -9.56257813 0.43585937 -8.5625 0.1875 C-7.59441406 -0.06644531 -6.62632813 -0.32039062 -5.62890625 -0.58203125 C-3 -1 -3 -1 0 0 Z " fill="#6A3C7E" transform="translate(1390,779)"/>
<path d="M0 0 C1.3805087 3.76668598 0.59568159 6.44789173 -0.4375 10.25 C-0.72496094 11.32765625 -1.01242187 12.4053125 -1.30859375 13.515625 C-1.53675781 14.33546875 -1.76492188 15.1553125 -2 16 C-2.99 15.67 -3.98 15.34 -5 15 C-1.92482916 4.44191344 -1.92482916 4.44191344 0 0 Z " fill="#723A81" transform="translate(1035,425)"/>
<path d="M0 0 C-5.94 3.465 -5.94 3.465 -12 7 C-12.33 6.34 -12.66 5.68 -13 5 C-9.76220634 1.00037254 -4.97776602 -1.65925534 0 0 Z " fill="#6A3D7E" transform="translate(1212,775)"/>
<path d="M0 0 C0.33 0.66 0.66 1.32 1 2 C0.00390625 4.6015625 0.00390625 4.6015625 -1.4375 7.625 C-1.91058594 8.62789062 -2.38367187 9.63078125 -2.87109375 10.6640625 C-3.24363281 11.43492187 -3.61617187 12.20578125 -4 13 C-4.99 13 -5.98 13 -7 13 C-5.35821735 8.22390502 -2.73453298 4.20617096 0 0 Z " fill="#6C3C7F" transform="translate(1043,603)"/>
<path d="M0 0 C2.72675159 2.40689803 4.11966596 4.92471023 5.6875 8.1875 C6.12449219 9.08855469 6.56148437 9.98960937 7.01171875 10.91796875 C7.33785156 11.60503906 7.66398438 12.29210937 8 13 C7.01 13 6.02 13 5 13 C4.16209211 11.21046815 3.32980604 9.41830305 2.5 7.625 C1.80390625 6.12839844 1.80390625 6.12839844 1.09375 4.6015625 C0 2 0 2 0 0 Z " fill="#743982" transform="translate(690,600)"/>
<path d="M0 0 C0.33 0.66 0.66 1.32 1 2 C0.109375 3.9453125 0.109375 3.9453125 -1.25 6.125 C-1.68828125 6.84945313 -2.1265625 7.57390625 -2.578125 8.3203125 C-3.04734375 8.87460937 -3.5165625 9.42890625 -4 10 C-4.99 10 -5.98 10 -7 10 C-5.33248852 6.05860922 -2.77289351 3.2107188 0 0 Z " fill="#693D7E" transform="translate(1187,505)"/>
<path d="M0 0 C2 1 2 1 2 1 Z " fill="#952D8D" transform="translate(1212,773)"/>
<path d="" fill="#952D8D" transform="translate(0,0)"/>
<path d="" fill="#952D8D" transform="translate(0,0)"/>
<path d="M0 0 C2 1 2 1 2 1 Z " fill="#952D8D" transform="translate(603,127)"/>
<path d="" fill="#952D8D" transform="translate(0,0)"/>
<path d="" fill="#952D8D" transform="translate(0,0)"/>
<path d="" fill="#952D8D" transform="translate(0,0)"/>
<path d="" fill="#952D8D" transform="translate(0,0)"/>
<path d="" fill="#952D8D" transform="translate(0,0)"/>
<path d="" fill="#952D8D" transform="translate(0,0)"/>
<path d="" fill="#952D8D" transform="translate(0,0)"/>
<path d="" fill="#952D8D" transform="translate(0,0)"/>
<path d="" fill="#4A4974" transform="translate(0,0)"/>
<path d="" fill="#952D8D" transform="translate(0,0)"/>
<path d="" fill="#952D8D" transform="translate(0,0)"/>
<path d="" fill="#952D8D" transform="translate(0,0)"/>
<path d="" fill="#952D8D" transform="translate(0,0)"/>
</svg>
