<?xml version="1.0" encoding="UTF-8"?>
<svg version="1.1" xmlns="http://www.w3.org/2000/svg" width="1594" height="1563">
<path d="M0 0 C2.21020545 1.64304542 4.31667817 3.2297352 6.26171875 5.1796875 C6.26171875 5.8396875 6.26171875 6.4996875 6.26171875 7.1796875 C6.92171875 7.1796875 7.58171875 7.1796875 8.26171875 7.1796875 C9.53125 8.4375 9.53125 8.4375 11.07421875 10.3046875 C13.94372975 13.68939255 16.90192764 16.9588735 19.94165039 20.18945312 C35.79814244 37.05310534 49.83385543 55.65500811 62.26171875 75.1796875 C62.94492187 76.2521875 63.628125 77.3246875 64.33203125 78.4296875 C69.16702482 86.16567721 73.70064048 94.06048535 78.09082031 102.05517578 C78.86256377 103.45544926 79.64042966 104.85236838 80.42480469 106.24560547 C108.07235083 155.42877145 125.2118063 215.22762657 125.46484375 271.70703125 C125.4719487 272.76567886 125.47905365 273.82432648 125.4863739 274.91505432 C125.72051381 320.0813256 125.72051381 320.0813256 122.26171875 341.1796875 C122.09769562 342.18630432 122.09769562 342.18630432 121.93035889 343.21325684 C117.58054121 369.6674344 111.74052631 396.31377911 101.2578125 421.0859375 C99.66327177 426.0383934 99.53329463 429.54680343 101.66796875 434.33203125 C105.20779785 438.21837977 108.96126387 439.75026923 113.76171875 441.7421875 C115.75845726 442.6118023 117.75451935 443.48297145 119.75 444.35546875 C120.80912598 444.81260254 121.86825195 445.26973633 122.95947266 445.74072266 C128.65918436 448.22439121 134.30635198 450.81990096 139.94921875 453.4296875 C141.11646484 453.96932129 142.28371094 454.50895508 143.48632812 455.06494141 C154.21058536 460.07047526 164.69838558 465.47205802 175.16796875 470.98828125 C177.19852889 472.05339953 179.22978291 473.117196 181.26171875 474.1796875 C182.35299072 474.75259521 183.4442627 475.32550293 184.56860352 475.91577148 C185.63393311 476.46434814 186.6992627 477.0129248 187.796875 477.578125 C188.75215088 478.0736084 189.70742676 478.5690918 190.69165039 479.07958984 C194.34722283 480.64432903 196.56674458 480.61243259 200.26171875 479.1796875 C204.19948305 475.58802852 207.40918199 471.58004439 210.63671875 467.3671875 C214.09103926 462.91681479 217.5754522 458.54617023 221.33984375 454.3515625 C222.89884049 452.58976944 224.42182465 450.80974035 225.93359375 449.0078125 C234.97622201 438.2554248 244.51067418 428.2527106 255.26171875 419.1796875 C256.16792969 418.38433594 257.07414062 417.58898437 258.0078125 416.76953125 C302.55923924 377.90035667 358.49478187 353.94574153 416.44921875 343.9296875 C417.31313232 343.77846436 418.1770459 343.62724121 419.06713867 343.47143555 C436.9198762 340.58586485 454.83093213 339.8493807 472.88696289 339.91894531 C476.22104735 339.92975829 479.55460258 339.91892429 482.88867188 339.90625 C521.0265874 339.88009558 521.0265874 339.88009558 534.26171875 352.1796875 C541.60219968 359.73032535 545.2926757 368.27467531 545.4609375 378.8125 C545.37093553 385.05440103 544.635376 391.08691445 543.63671875 397.2421875 C543.45778076 398.36069092 543.27884277 399.47919434 543.09448242 400.6315918 C533.21415849 460.39275818 510.17312791 520.36524178 469.7421875 566.33203125 C467.48188636 568.92692815 465.37254231 571.58840178 463.26171875 574.3046875 C453.0483913 586.8409017 441.05618465 598.31432031 428.26171875 608.1796875 C426.48852499 609.65602371 424.7177685 611.13529125 422.94921875 612.6171875 C415.70937546 618.54351636 408.07872984 623.97678656 400.2890625 629.15625 C395.48672008 632.36724184 391.74632753 634.87165966 389.26171875 640.1796875 C388.77614665 645.01572311 389.53288584 647.26454644 392.51171875 651.0546875 C393.24648437 652.01246094 393.98125 652.97023438 394.73828125 653.95703125 C395.1446582 654.47507324 395.55103516 654.99311523 395.96972656 655.52685547 C398.31487115 658.5269743 400.59888088 661.57327333 402.88671875 664.6171875 C403.39033936 665.28685547 403.89395996 665.95652344 404.4128418 666.64648438 C415.10471868 680.93111093 425.60800048 695.54650553 434.26171875 711.1796875 C434.58466968 711.70373501 434.90762061 712.22778253 435.24035794 712.76771027 C438.53025351 718.54476219 438.82658847 723.46153335 438.76292419 730.01805115 C438.76845859 731.0878278 438.77399299 732.15760446 438.77969509 733.25979859 C438.79327546 736.83416342 438.77834467 740.40782677 438.76342773 743.98217773 C438.7672124 746.550474 438.77271365 749.11876822 438.77980042 751.6870575 C438.79371976 757.93890168 438.78618067 764.19054352 438.77112483 770.44237804 C438.75419684 777.75347144 438.75748478 785.06451533 438.76121891 792.37562228 C438.76709784 805.45642867 438.75293883 818.5371389 438.72827148 831.61791992 C438.70447366 844.23937611 438.69721901 856.86070317 438.70776367 869.48217773 C438.71926012 883.26725987 438.72098714 897.05228224 438.70666558 910.83736378 C438.70514008 912.31818679 438.70361972 913.79900981 438.70210457 915.27983284 C438.70134675 916.00808277 438.70058894 916.7363327 438.69980816 917.48665081 C438.69512239 922.54877728 438.69693424 927.61087627 438.70116997 932.67300224 C438.74262108 991.65409655 438.74262108 991.65409655 435.26171875 1018.1796875 C435.10288649 1019.40396391 434.94405422 1020.62824032 434.78040886 1021.88961601 C428.47095751 1069.75606956 415.94690029 1116.07730962 396.26171875 1160.1796875 C395.86339844 1161.08315918 395.46507812 1161.98663086 395.0546875 1162.91748047 C389.30128614 1175.96080665 383.13357318 1188.68881381 376.26171875 1201.1796875 C375.67414795 1202.2610498 375.67414795 1202.2610498 375.07470703 1203.36425781 C362.84412759 1225.74747907 348.2582197 1247.32319462 332.26171875 1267.1796875 C331.71435059 1267.86691895 331.16698242 1268.55415039 330.60302734 1269.26220703 C324.68215852 1276.69594179 318.67507152 1284.00788713 312.24609375 1291.01171875 C310.33614492 1293.09837544 308.48226528 1295.22357704 306.63671875 1297.3671875 C303.34387628 1301.14785849 299.84043699 1304.67191301 296.26171875 1308.1796875 C293.1552072 1311.2691926 290.07603901 1314.38411156 287.00390625 1317.5078125 C271.63035736 1333.08653143 271.63035736 1333.08653143 263.8984375 1339.1015625 C261.35022644 1341.10993033 258.92230253 1343.20805818 256.48876953 1345.3515625 C247.51616707 1353.2257378 237.97931376 1360.25724394 228.26171875 1367.1796875 C227.50262207 1367.72238281 226.74352539 1368.26507812 225.96142578 1368.82421875 C158.37130942 1416.8753112 79.32707682 1446.86712175 -2.73828125 1457.6171875 C-3.97666748 1457.78114014 -5.21505371 1457.94509277 -6.4909668 1458.11401367 C-19.17446256 1459.67020144 -31.13721567 1459.18423258 -43.80078125 1457.6171875 C-44.50570709 1457.53110229 -45.21063293 1457.44501709 -45.93692017 1457.35632324 C-121.25527695 1448.02066442 -193.23520611 1420.49007632 -256.73828125 1379.1796875 C-257.83269531 1378.47328125 -258.92710937 1377.766875 -260.0546875 1377.0390625 C-281.8528076 1362.75853642 -302.18519794 1346.26171529 -321.26318359 1328.54150391 C-322.72078172 1327.19584314 -324.19236487 1325.86538228 -325.6640625 1324.53515625 C-335.59515764 1315.55113243 -345.45805123 1306.31361276 -354.1171875 1296.078125 C-356.01921775 1293.85068717 -358.00435845 1291.70945779 -359.98828125 1289.5546875 C-365.12091473 1283.87119216 -369.78254081 1277.85489418 -374.46875 1271.8046875 C-376.2143326 1269.57034177 -378.0085108 1267.37666418 -379.80078125 1265.1796875 C-414.84591187 1221.39104558 -440.63526187 1170.01976556 -458.73828125 1117.1796875 C-459.05394043 1116.26010254 -459.36959961 1115.34051758 -459.69482422 1114.39306641 C-482.40185803 1047.50854664 -484.89833024 979.23423248 -484.90553832 909.3777287 C-484.90625552 905.46600472 -484.90840194 901.5542841 -484.91103554 897.64256096 C-484.91975748 884.67395765 -484.9244615 871.70536282 -484.92370506 858.73675657 C-484.92366511 858.04382466 -484.92362515 857.35089274 -484.92358398 856.63696289 C-484.9235431 855.94316998 -484.92350222 855.24937707 -484.9234601 854.53456014 C-484.92305129 843.22402175 -484.93269382 831.91351626 -484.94672235 820.60298742 C-484.96108051 808.93352943 -484.96781002 797.26408907 -484.96712857 785.59462208 C-484.96687382 779.06450119 -484.96971506 772.53441797 -484.98030663 766.00430489 C-484.98996445 759.88663581 -484.9900828 753.76904073 -484.98278999 747.65136909 C-484.98174241 745.40757133 -484.98411727 743.16376899 -484.99015045 740.9199791 C-484.99784631 737.86038849 -484.99324206 734.80105523 -484.98551941 731.74147034 C-484.99066297 730.85268316 -484.99580654 729.96389599 -485.00110596 729.04817587 C-484.85313887 702.56445521 -454.29152919 670.98757474 -438.4609375 651.35546875 C-436.09793185 648.37090152 -435.5455356 646.61738942 -435.42578125 642.8671875 C-435.38839844 642.10792969 -435.35101563 641.34867188 -435.3125 640.56640625 C-436.02541537 636.57015586 -438.26087948 634.28685084 -441.46459961 631.88598633 C-443.57362299 630.46419338 -445.71206909 629.09926489 -447.86328125 627.7421875 C-461.19424416 619.08290972 -473.6750463 609.44359436 -485.234375 598.52734375 C-487.42827869 596.47034513 -489.66954807 594.53025762 -491.98828125 592.6171875 C-492.89578125 591.8128125 -493.80328125 591.0084375 -494.73828125 590.1796875 C-494.73828125 589.5196875 -494.73828125 588.8596875 -494.73828125 588.1796875 C-495.39828125 588.1796875 -496.05828125 588.1796875 -496.73828125 588.1796875 C-496.73828125 587.5196875 -496.73828125 586.8596875 -496.73828125 586.1796875 C-497.72828125 585.8496875 -498.71828125 585.5196875 -499.73828125 585.1796875 C-501.24609375 583.68359375 -501.24609375 583.68359375 -502.86328125 581.7421875 C-505.52795321 578.59150619 -508.25167831 575.52413617 -511.05078125 572.4921875 C-516.30329067 566.65409426 -521.07641561 560.49116218 -525.73828125 554.1796875 C-526.21168945 553.54144043 -526.68509766 552.90319336 -527.17285156 552.24560547 C-560.5127354 507.01119542 -598.33060348 430.43479546 -590.73828125 372.1796875 C-588.28337444 361.24918064 -581.83535723 352.60981494 -572.73828125 346.1796875 C-558.23743698 337.80779719 -538.10347455 339.81354661 -521.98828125 339.8671875 C-520.85688721 339.86901031 -519.72549316 339.87083313 -518.55981445 339.87271118 C-501.43940327 339.91917153 -484.67074229 340.44175209 -467.73828125 343.1796875 C-466.63307129 343.35129395 -465.52786133 343.52290039 -464.38916016 343.69970703 C-430.9629077 349.0029789 -399.11426254 359.3321632 -368.73828125 374.1796875 C-367.89813477 374.58944824 -367.05798828 374.99920898 -366.19238281 375.42138672 C-345.90854577 385.43207136 -327.18827005 397.81677794 -309.73828125 412.1796875 C-309.12001465 412.68226074 -308.50174805 413.18483398 -307.86474609 413.70263672 C-299.23734229 420.75462189 -291.26310423 428.45589097 -283.36328125 436.3046875 C-282.44772461 437.21089844 -281.53216797 438.11710937 -280.58886719 439.05078125 C-271.00696087 448.67796739 -262.79939525 459.30033565 -254.5390625 470.0546875 C-253.95769531 470.8075 -253.37632812 471.5603125 -252.77734375 472.3359375 C-252.26381348 473.00431641 -251.7502832 473.67269531 -251.22119141 474.36132812 C-248.45465396 477.75368422 -247.42251097 479.01772697 -242.9921875 480.06640625 C-238.59234535 480.45418555 -235.45430866 479.12953128 -231.67578125 476.9921875 C-231.0000708 476.63342529 -230.32436035 476.27466309 -229.62817383 475.9050293 C-228.13117323 475.10897997 -226.63876171 474.30425698 -225.15039062 473.4921875 C-220.76900932 471.10814844 -216.34567233 468.80381591 -211.92578125 466.4921875 C-210.96293213 465.98751953 -210.00008301 465.48285156 -209.00805664 464.96289062 C-192.44623667 456.32686309 -175.65731708 448.01342531 -158.27099609 441.1574707 C-153.49608163 439.21204523 -149.94237188 437.40154809 -146.73828125 433.1796875 C-145.26290384 428.0465353 -146.31942952 424.25762581 -148.0546875 419.37890625 C-148.3064122 418.63377274 -148.5581369 417.88863922 -148.81748962 417.1209259 C-149.35621968 415.52644897 -149.90029029 413.93376819 -150.44921875 412.34277344 C-151.88499157 408.16882377 -153.26960971 403.97820849 -154.6484375 399.78515625 C-154.92148712 398.95494965 -155.19453674 398.12474304 -155.4758606 397.26937866 C-158.90874943 386.7253845 -161.47261078 376.02820527 -163.73828125 365.1796875 C-163.92825684 364.30070801 -164.11823242 363.42172852 -164.31396484 362.51611328 C-179.89725282 289.91616504 -172.068904 211.67855261 -143.73828125 143.1796875 C-143.15336914 141.75487061 -143.15336914 141.75487061 -142.55664062 140.30126953 C-126.8145513 102.31573195 -105.4412104 67.56128474 -79.19580078 35.94580078 C-77.84998164 34.31503769 -76.5223394 32.67184333 -75.203125 31.01953125 C-71.24308212 26.08136458 -67.17571843 21.473918 -62.62890625 17.0703125 C-60.76161367 15.20301992 -59.0642082 13.26104472 -57.36328125 11.2421875 C-41.95378842 -6.51375083 -20.88314787 -13.8823779 0 0 Z M-37.53173828 62.60888672 C-38.37647705 63.66487061 -38.37647705 63.66487061 -39.23828125 64.7421875 C-40.14296143 65.86004639 -40.14296143 65.86004639 -41.06591797 67.00048828 C-52.6355167 81.41974187 -63.20169926 96.34266095 -72.73828125 112.1796875 C-73.22506348 112.98035645 -73.7118457 113.78102539 -74.21337891 114.60595703 C-96.61561191 151.68220625 -112.19885944 193.30257577 -118.73828125 236.1796875 C-118.8878125 237.13246582 -119.03734375 238.08524414 -119.19140625 239.06689453 C-123.9147902 270.57817693 -124.12638654 304.74733632 -118.73828125 336.1796875 C-118.47289551 337.77683594 -118.47289551 337.77683594 -118.20214844 339.40625 C-115.6286379 354.58951769 -112.07225237 369.40692835 -107.73828125 384.1796875 C-107.40828125 384.1796875 -107.07828125 384.1796875 -106.73828125 384.1796875 C-106.81046875 382.92800781 -106.88265625 381.67632812 -106.95703125 380.38671875 C-110.20177042 320.10834045 -103.31719899 260.77459837 -78.73828125 205.1796875 C-78.39265137 204.3973877 -78.04702148 203.61508789 -77.69091797 202.80908203 C-68.16910604 181.48880069 -55.99780641 160.75269086 -40.43359375 143.26171875 C-38.52780997 141.3686966 -38.52780997 141.3686966 -38.73828125 139.1796875 C-37.40494792 138.51302083 -36.07161458 137.84635417 -34.73828125 137.1796875 C-33.83078125 136.6640625 -32.92328125 136.1484375 -31.98828125 135.6171875 C-25.49415198 132.74478417 -20.70903058 132.79394717 -14.109375 134.90234375 C-7.75631781 138.3248309 -3.248754 143.6181362 0.94921875 149.3671875 C1.45904297 150.0593335 1.96886719 150.75147949 2.49414062 151.46459961 C31.94642299 192.01569451 49.45890371 238.78679818 57.51171875 288.0546875 C57.66286133 288.97894531 57.81400391 289.90320313 57.96972656 290.85546875 C58.44642296 293.95883761 58.86185911 297.06545542 59.26171875 300.1796875 C59.34991882 300.82679688 59.4381189 301.47390625 59.5289917 302.140625 C61.65829433 318.15039142 61.50223137 334.1795322 61.39904785 350.29382324 C61.37822233 353.90158685 61.36937745 357.50938053 61.359375 361.1171875 C61.33821916 368.13809168 61.30429661 375.15887769 61.26171875 382.1796875 C87.25781888 343.1855373 78.47620753 265.18702133 70.02099609 221.84619141 C66.43833095 204.5457203 61.55772868 187.68050836 55.26171875 171.1796875 C54.9565332 170.37015625 54.65134766 169.560625 54.33691406 168.7265625 C44.77221729 143.51144478 32.73603795 119.31281653 17.26171875 97.1796875 C16.20102197 95.62163872 15.14120642 94.06298983 14.08203125 92.50390625 C7.01636338 82.17504518 -0.39642563 72.50075054 -8.73828125 63.1796875 C-10.57534516 61.00045798 -12.41173466 58.8208631 -14.23828125 56.6328125 C-16.99951064 53.95787152 -19.31179646 53.2270747 -23.11328125 52.8046875 C-29.81021736 53.49747399 -33.44202801 57.64341982 -37.53173828 62.60888672 Z M60.26171875 384.1796875 C61.26171875 386.1796875 61.26171875 386.1796875 61.26171875 386.1796875 Z M-536.73828125 395.1796875 C-540.30173503 402.30659506 -536.5436788 412.26050946 -534.67578125 419.4296875 C-534.35778564 420.66678467 -534.03979004 421.90388184 -533.7121582 423.1784668 C-525.72945151 453.66165244 -513.73020346 484.12242085 -495.73828125 510.1796875 C-495.31466309 510.80262695 -494.89104492 511.42556641 -494.45458984 512.06738281 C-487.73856238 521.9237003 -480.6787399 531.2800559 -472.73828125 540.1796875 C-472.29661621 540.67774902 -471.85495117 541.17581055 -471.39990234 541.68896484 C-468.23748519 545.24163282 -465.01136378 548.72885124 -461.73828125 552.1796875 C-461.23570801 552.71094238 -460.73313477 553.24219727 -460.21533203 553.78955078 C-452.79439591 561.57586799 -445.00554687 568.4767775 -436.40087891 574.92724609 C-434.83752379 576.1049277 -433.29304003 577.30754241 -431.75 578.51171875 C-424.34337229 584.23456641 -416.56985515 589.201756 -408.58007812 594.0546875 C-406.89950808 595.08120749 -405.23218912 596.12934165 -403.56640625 597.1796875 C-402.674375 597.7365625 -401.78234375 598.2934375 -400.86328125 598.8671875 C-400.10273438 599.34542969 -399.3421875 599.82367187 -398.55859375 600.31640625 C-397.65753906 600.74373047 -397.65753906 600.74373047 -396.73828125 601.1796875 C-396.07828125 600.8496875 -395.41828125 600.5196875 -394.73828125 600.1796875 C-395.36992187 599.66921875 -396.0015625 599.15875 -396.65234375 598.6328125 C-399.69243197 596.16219326 -402.71865578 593.6752312 -405.73828125 591.1796875 C-406.5566748 590.50534668 -406.5566748 590.50534668 -407.39160156 589.81738281 C-419.71436646 579.61699219 -431.6041224 568.59292574 -441.73828125 556.1796875 C-442.16141602 555.67034668 -442.58455078 555.16100586 -443.02050781 554.63623047 C-450.56782794 545.53505032 -457.40609105 536.1610718 -463.73828125 526.1796875 C-464.1048584 525.61411133 -464.47143555 525.04853516 -464.84912109 524.46582031 C-481.29350452 499.01354449 -500.78427049 461.54922474 -497.73828125 430.1796875 C-496.28291251 425.83620093 -494.19499151 423.09972736 -490.23828125 420.7421875 C-481.73923784 417.20485891 -471.25537769 419.2160853 -462.36328125 420.3671875 C-460.81253906 420.5679187 -460.81253906 420.5679187 -459.23046875 420.77270508 C-409.89143781 427.52297646 -364.05760781 449.9300744 -326.73828125 482.6796875 C-324.13306163 485.3930823 -324.13306163 485.3930823 -321.73828125 485.1796875 C-321.73828125 485.8396875 -321.73828125 486.4996875 -321.73828125 487.1796875 C-320.21956153 488.72318793 -320.21956153 488.72318793 -318.234375 490.3203125 C-307.40055871 499.54037882 -297.36638005 509.87071514 -288.73828125 521.1796875 C-287.82195428 522.34401742 -286.90526357 523.50806114 -285.98828125 524.671875 C-278.22418665 534.65556164 -271.567406 545.20275031 -265.08178711 556.05175781 C-263.73497048 558.1849313 -262.27909522 560.18333099 -260.73828125 562.1796875 C-261.40907445 557.83195379 -262.9133072 553.99313223 -264.67578125 549.9921875 C-264.98080566 549.29947754 -265.28583008 548.60676758 -265.60009766 547.89306641 C-271.71990575 534.32279359 -279.39988677 521.49294531 -287.73828125 509.1796875 C-288.19992676 508.49487305 -288.66157227 507.81005859 -289.13720703 507.10449219 C-295.44101744 497.80787967 -301.98939216 489.32560448 -309.73828125 481.1796875 C-310.80760589 479.93552068 -311.87052928 478.68581231 -312.92578125 477.4296875 C-321.92340135 467.11326729 -331.84366457 457.4639925 -342.73828125 449.1796875 C-343.38684082 448.67646973 -344.03540039 448.17325195 -344.70361328 447.65478516 C-376.96859997 422.68601076 -413.94596161 405.1927508 -453.73828125 396.1796875 C-454.58890137 395.98536133 -455.43952148 395.79103516 -456.31591797 395.59082031 C-476.56211863 391.08117095 -497.39324361 389.02488197 -518.11328125 388.6171875 C-519.71659302 388.55869629 -519.71659302 388.55869629 -521.35229492 388.49902344 C-528.26996372 388.47453414 -532.27403323 389.73559153 -536.73828125 395.1796875 Z M283.8046875 460.7890625 C281.57089214 462.88903602 279.28940717 464.88805672 276.94921875 466.8671875 C273.71231452 469.67870801 270.9220926 472.7050015 268.15625 475.9765625 C266.03162723 478.44725784 263.80426862 480.803813 261.57421875 483.1796875 C244.36599207 502.13216711 231.49574616 524.29661247 220.26171875 547.1796875 C219.76913574 548.17871094 219.27655273 549.17773438 218.76904297 550.20703125 C218.30127441 551.18800781 217.83350586 552.16898438 217.3515625 553.1796875 C216.92609131 554.0665625 216.50062012 554.9534375 216.06225586 555.8671875 C214.96032967 558.29080763 214.96032967 558.29080763 216.26171875 561.1796875 C217.13570312 559.63474609 217.13570312 559.63474609 218.02734375 558.05859375 C228.26415021 540.18601505 240.09733392 523.9090612 253.984375 508.6796875 C255.58756633 506.9197519 257.17756254 505.14775084 258.7578125 503.3671875 C259.96630859 502.0059375 259.96630859 502.0059375 261.19921875 500.6171875 C261.93011719 499.79089844 262.66101562 498.96460938 263.4140625 498.11328125 C265.26171875 496.1796875 265.26171875 496.1796875 267.26171875 495.1796875 C267.26171875 494.5196875 267.26171875 493.8596875 267.26171875 493.1796875 C267.85855469 492.91285156 268.45539062 492.64601563 269.0703125 492.37109375 C271.30746199 491.15481818 272.60591942 489.97611491 274.32421875 488.1171875 C314.14302556 447.2881784 377.21605098 419.98799187 434.01171875 418.9296875 C439.95499338 418.99751374 443.83201191 420.27532268 448.57421875 423.9921875 C451.38096577 427.63056327 452.28532549 430.97713221 452.1953125 435.5625 C449.0014277 459.65495384 441.74176278 482.90159217 430.23974609 504.33691406 C429.27555353 506.15362038 428.35251815 507.98623741 427.4375 509.828125 C416.11007358 532.31485277 399.96869997 552.9440928 381.90625 570.4296875 C379.03066887 572.78407897 379.03066887 572.78407897 379.26171875 575.1796875 C378.60171875 575.1796875 377.94171875 575.1796875 377.26171875 575.1796875 C377.26171875 575.8396875 377.26171875 576.4996875 377.26171875 577.1796875 C376.67132812 577.43878906 376.0809375 577.69789063 375.47265625 577.96484375 C373.09474482 579.27143466 371.71724447 580.62514481 369.88671875 582.6171875 C365.58677591 587.06399745 360.83852164 590.76745459 355.92236328 594.49780273 C352.59884295 596.9002301 352.59884295 596.9002301 350.26171875 600.1796875 C355.99845217 598.64619676 360.51422211 595.73868255 365.44921875 592.5546875 C366.29347412 592.01489258 367.13772949 591.47509766 368.00756836 590.91894531 C374.26641753 586.8885757 380.36212911 582.72448538 386.26171875 578.1796875 C387.07382813 577.55964844 387.8859375 576.93960938 388.72265625 576.30078125 C394.57009038 571.73535555 400.02654934 566.81421281 405.453125 561.765625 C407.70244585 559.69462305 409.98247625 557.70561169 412.32421875 555.7421875 C427.64115785 542.37926121 440.0768394 525.22143974 450.96728516 508.19873047 C452.08540858 506.45469413 453.22439402 504.72406534 454.3671875 502.99609375 C472.02915819 475.57451864 483.50016787 443.81405932 490.69921875 412.1171875 C490.86333252 411.39740723 491.02744629 410.67762695 491.1965332 409.93603516 C492.37243396 404.43358291 493.26017661 400.06566346 490.57421875 394.9921875 C487.73132481 391.53461379 485.59112716 389.45590491 480.99487305 388.91088867 C478.13986054 388.80823236 475.30568198 388.81684632 472.44921875 388.8671875 C471.38606445 388.87919189 470.32291016 388.89119629 469.22753906 388.90356445 C401.01040934 390.08474818 333.81510271 413.60682249 283.8046875 460.7890625 Z M-141.17578125 487.4296875 C-142.36155762 487.97181885 -143.54733398 488.5139502 -144.76904297 489.07250977 C-148.43604088 490.75268253 -152.0874774 492.46460798 -155.73828125 494.1796875 C-156.82544434 494.68677246 -157.91260742 495.19385742 -159.03271484 495.71630859 C-170.88761493 501.25935969 -182.60643895 507.05801403 -194.23828125 513.0546875 C-195.7689624 513.83960571 -195.7689624 513.83960571 -197.33056641 514.64038086 C-208.22493851 519.96721304 -208.22493851 519.96721304 -216.86328125 528.1171875 C-218.49693763 533.83498482 -216.6202983 539.02033111 -214.515625 544.40625 C-214.0633252 545.58791748 -213.61102539 546.76958496 -213.14501953 547.98706055 C-212.90527405 548.60817719 -212.66552856 549.22929382 -212.41851807 549.86923218 C-182.6460282 627.45165801 -182.6460282 627.45165801 -193.73828125 659.1796875 C-198.02258758 667.80168715 -205.10369116 674.8315439 -214.1015625 678.40625 C-226.40031013 682.01388264 -240.01267084 681.80508268 -252.73828125 682.1796875 C-253.6523877 682.21368652 -254.56649414 682.24768555 -255.50830078 682.28271484 C-295.14731703 683.64623609 -336.52157065 677.08726454 -373.81762695 663.72338867 C-377.17433139 662.77316867 -379.44253049 663.14213634 -382.73828125 664.1796875 C-389.37737818 668.25931949 -394.00153709 675.15801595 -398.73828125 681.1796875 C-399.58005229 682.23231248 -400.42251449 683.28438507 -401.265625 684.3359375 C-406.54001356 690.94362875 -411.67235421 697.66119117 -416.73828125 704.4296875 C-417.27090576 705.13029297 -417.80353027 705.83089844 -418.35229492 706.55273438 C-419.46598179 708.05382672 -420.55185981 709.57586312 -421.61225796 711.11506176 C-422.73584535 712.73469352 -423.86664116 714.35036458 -425.05144417 715.92576849 C-434.84426432 729.03218845 -436.30902279 739.7087683 -436.05053711 755.77612305 C-436.05399064 758.09252567 -436.06224176 760.40892527 -436.07487488 762.72529602 C-436.09495904 768.9609011 -436.04718865 775.19426193 -435.98534083 781.42952323 C-435.93109977 787.97377972 -435.93672647 794.51801158 -435.93470764 801.06245422 C-435.92464642 812.03639564 -435.8696955 823.00952979 -435.7878418 833.9831543 C-435.70379336 845.25895578 -435.65437114 856.53418765 -435.64428711 867.81030273 C-435.64365876 868.50654685 -435.64303042 869.20279096 -435.64238303 869.92013337 C-435.64176541 870.61521876 -435.64114779 871.31030414 -435.64051145 872.02645272 C-435.63926508 873.4261851 -435.63800819 874.82591747 -435.63674068 876.22564983 C-435.6361232 876.91606789 -435.63550571 877.60648596 -435.63486951 878.31782578 C-435.62323023 889.74893983 -435.57703179 901.17993978 -435.53004384 912.61095452 C-435.51563278 916.50180596 -435.50613736 920.39264606 -435.49741936 924.28351402 C-435.48172283 930.39139424 -435.4449861 936.49880747 -435.39193916 942.60647392 C-435.37547116 944.84657614 -435.36570734 947.0867392 -435.36314392 949.32690048 C-435.35838301 952.38492615 -435.32903854 955.44175891 -435.2933197 958.4995575 C-435.29746775 959.38515325 -435.3016158 960.270749 -435.30588955 961.18318099 C-435.20214289 966.98621761 -434.11913489 970.42221219 -430.73828125 975.1796875 C-426.11424736 978.42634959 -423.27482906 978.30808444 -417.76953125 977.38671875 C-416.0361853 977.09897583 -416.0361853 977.09897583 -414.26782227 976.80541992 C-409.97928928 976.04513009 -405.69838926 975.25307909 -401.42163086 974.42919922 C-375.00244715 969.34606481 -348.54355262 966.19474888 -321.73828125 964.1796875 C-320.51004639 964.08397461 -319.28181152 963.98826172 -318.01635742 963.88964844 C-310.0295938 963.32251656 -302.07480204 963.07723802 -294.0703125 962.96875 C-293.05192291 962.95436386 -292.03353333 962.93997772 -290.98428345 962.92515564 C-286.76193903 962.86776266 -282.53974068 962.8127515 -278.31713867 962.77832031 C-275.19287406 962.75078748 -272.06930822 962.70500851 -268.9453125 962.65625 C-267.99324417 962.65299713 -267.04117584 962.64974426 -266.06025696 962.64639282 C-259.38422959 962.53258946 -259.38422959 962.53258946 -253.73828125 959.1796875 C-250.96186184 955.54537488 -250.28708771 952.59535879 -249.9296875 948.08203125 C-249.82438721 946.83083496 -249.71908691 945.57963867 -249.6105957 944.29052734 C-249.50692238 942.89944395 -249.40366525 941.50832949 -249.30078125 940.1171875 C-249.18350964 938.6504752 -249.06523252 937.18384301 -248.94604492 935.71728516 C-248.68092325 932.42161881 -248.4248203 929.12538492 -248.17382812 925.82861328 C-247.77974179 920.67349145 -247.36186564 915.52047917 -246.94068909 910.36750793 C-246.56403884 905.74656153 -246.19426827 901.12508099 -245.82614136 896.50344849 C-245.64437082 894.22685458 -245.4610727 891.95038207 -245.27615356 889.67404175 C-241.85084845 868.25922189 -241.85084845 868.25922189 -245.73828125 848.1796875 C-250.12927936 845.13976573 -253.26875161 843.24870373 -258.73828125 844.1796875 C-263.77275951 847.04065997 -266.90489752 850.42130118 -270.36328125 854.9296875 C-271.12934692 855.90736084 -271.12934692 855.90736084 -271.91088867 856.90478516 C-278.37995038 865.20251146 -284.65865019 873.65197117 -290.90625 882.1171875 C-291.51082031 882.9215625 -292.11539063 883.7259375 -292.73828125 884.5546875 C-293.23328125 885.22242188 -293.72828125 885.89015625 -294.23828125 886.578125 C-297.04888047 889.57902521 -299.4326509 890.14403063 -303.48828125 890.6171875 C-311.69188212 890.33119041 -318.21903788 883.37688745 -324.34643555 878.48291016 C-327.19480226 875.97637386 -327.19480226 875.97637386 -330.73828125 875.1796875 C-330.73828125 874.5196875 -330.73828125 873.8596875 -330.73828125 873.1796875 C-331.39828125 873.1796875 -332.05828125 873.1796875 -332.73828125 873.1796875 C-335.01955011 867.94618836 -335.43829001 863.59900476 -333.73828125 858.1796875 C-331.83687633 854.8454187 -329.53834831 851.89799245 -327.13085938 848.9140625 C-325.53457359 846.92598147 -323.97143094 844.91412622 -322.41015625 842.8984375 C-319.98721397 839.77071169 -317.55713504 836.64878345 -315.12109375 833.53125 C-311.71028842 829.15615294 -308.37729091 824.72956461 -305.0625 820.28125 C-300.56519266 814.27980122 -295.98897281 808.33816756 -291.42773438 802.38525391 C-288.69561302 798.81849316 -285.96710366 795.24897236 -283.23828125 791.6796875 C-282.15886621 790.26821996 -281.0794391 788.85676164 -280 787.4453125 C-277.79376265 784.56028394 -275.58809843 781.67481837 -273.3828125 778.7890625 C-270.67079916 775.24045261 -267.95761975 771.69273811 -265.24316406 768.14599609 C-264.27093332 766.87566086 -263.29891321 765.60516438 -262.32714844 764.33447266 C-260.21967411 761.57977906 -258.1063563 758.83040486 -255.98046875 756.08984375 C-254.58752402 754.28192768 -253.21380717 752.45880995 -251.87109375 750.61328125 C-246.38613601 743.2803871 -239.6738084 737.65467753 -232.6875 731.81445312 C-230.2242556 729.74858583 -227.78838429 727.65206218 -225.35302734 725.5534668 C-220.80675101 721.636881 -216.23505371 717.75129812 -211.64453125 713.88671875 C-207.23770693 710.17625582 -202.8746504 706.43293671 -198.61328125 702.5546875 C-194.45905002 698.78053842 -190.16060091 695.23124382 -185.796875 691.703125 C-181.55868719 688.20648474 -177.42567572 684.5928147 -173.30395508 680.95996094 C-171.46355062 679.34844754 -169.60344794 677.762448 -167.73828125 676.1796875 C-167.10140381 675.61902588 -166.46452637 675.05836426 -165.80834961 674.48071289 C-159.08310089 668.8517578 -151.46394224 665.4569461 -143.55078125 661.8671875 C-142.05652434 661.17863797 -140.56288552 660.48874571 -139.06982422 659.79760742 C-136.72064062 658.71050997 -134.3710344 657.62442493 -132.01940918 656.5426178 C-123.90702535 652.81004075 -115.84269535 648.97831613 -107.77929688 645.14135742 C-94.78909635 638.96261107 -81.76896581 632.85457892 -68.70922852 626.82421875 C-59.20593298 622.42455791 -49.76911453 617.8933609 -40.35083008 613.31518555 C-38.76564575 612.54621948 -38.76564575 612.54621948 -37.1484375 611.76171875 C-35.75830444 611.08459839 -35.75830444 611.08459839 -34.34008789 610.39379883 C-29.06009171 607.92993273 -24.63748542 606.13183465 -18.73828125 607.1796875 C-14.49590591 608.76562932 -10.51621616 610.80440454 -6.48828125 612.8671875 C-4.67372363 613.77270877 -2.85624635 614.67218952 -1.03865051 615.57159424 C0.21241637 616.191171 1.46258254 616.81256962 2.71186829 617.43572998 C8.8997134 620.51851907 15.16703258 623.41958658 21.44921875 626.3046875 C34.63170818 632.39028449 47.74789584 638.6116696 60.85571289 644.85620117 C69.43035919 648.94011445 78.01179729 653.00802788 86.61328125 657.03515625 C88.27411677 657.81406742 89.93492457 658.5930377 91.59570312 659.37207031 C93.96622101 660.48393047 96.33739541 661.59423021 98.71118164 662.69909668 C100.87847934 663.70791406 103.04297251 664.72253871 105.20703125 665.73828125 C105.83646637 666.02914108 106.46590149 666.32000092 107.1144104 666.61967468 C113.33770271 669.55379645 118.44928926 673.16982561 123.44921875 677.8671875 C127.0538158 681.19525422 130.69526725 684.40945022 134.51171875 687.4921875 C140.93473815 692.68176789 147.13819854 698.11209306 153.36523438 703.53320312 C156.34027064 706.11606159 159.33115935 708.68025664 162.32421875 711.2421875 C162.89760986 711.73307861 163.47100098 712.22396973 164.06176758 712.72973633 C165.21702393 713.71853953 166.37237851 714.70722799 167.52783203 715.69580078 C169.27183261 717.1883431 171.01498979 718.68186377 172.7578125 720.17578125 C173.33660156 720.67190918 173.91539062 721.16803711 174.51171875 721.67919922 C175.67205975 722.67410097 176.83221807 723.66921584 177.9921875 724.66455078 C181.01546519 727.25799873 184.04323273 729.84593001 187.078125 732.42578125 C187.70525391 732.96009766 188.33238281 733.49441406 188.97851562 734.04492188 C190.16974925 735.05967644 191.36235992 736.07281773 192.55664062 737.08398438 C203.52278291 746.43707607 211.82858822 757.8609754 220.39550781 769.35302734 C224.66486511 775.07345661 228.99210143 780.74247136 233.38671875 786.3671875 C239.53318974 794.23411926 245.6123697 802.14986448 251.66601562 810.08837891 C253.76921465 812.84480528 255.87645681 815.59812612 257.98388672 818.35131836 C259.58540907 820.44431188 261.18537928 822.5384847 262.78515625 824.6328125 C265.32689317 827.95969329 267.87541341 831.28129434 270.42578125 834.6015625 C271.85033947 836.46087694 273.2748197 838.32025112 274.69921875 840.1796875 C275.36155518 841.03981445 276.0238916 841.89994141 276.70629883 842.78613281 C279.77552556 846.79857014 282.79612955 850.84147746 285.6875 854.984375 C286.16743408 855.66999512 286.64736816 856.35561523 287.1418457 857.06201172 C289.23851438 861.02680442 289.29595783 864.87754022 288.26171875 869.1796875 C284.73184802 876.22472116 276.48771768 880.78534789 270.26171875 885.1796875 C269.51148438 885.73527344 268.76125 886.29085938 267.98828125 886.86328125 C263.2291719 890.18337137 260.05851001 890.93992242 254.26171875 890.1796875 C244.13305741 885.09158063 237.36413311 872.3576575 230.72583008 863.47729492 C225.69194162 856.73411167 225.69194162 856.73411167 220.57421875 850.0546875 C220.01347656 849.33023437 219.45273438 848.60578125 218.875 847.859375 C215.9238093 844.78670672 213.61029883 844.21904332 209.38671875 843.7421875 C204.55621981 843.85934512 202.54328606 845.74185508 199.26171875 849.1796875 C196.66540402 852.90279636 197.15542445 856.61289731 197.45703125 860.94140625 C197.50787872 861.78781174 197.5587262 862.63421722 197.6111145 863.50627136 C197.81247228 866.73192819 198.03632946 869.95561939 198.26171875 873.1796875 C198.35788822 874.58692201 198.45386578 875.99416965 198.54968262 877.40142822 C199.17855334 886.59264494 199.84300763 895.78089148 200.53527451 904.96754646 C200.87326676 909.45287536 201.20627536 913.93843847 201.52685547 918.42504883 C201.84130443 922.82559891 202.16777875 927.22510065 202.5029335 931.62412071 C202.62746568 933.28430394 202.74787076 934.94480248 202.8639183 936.60560036 C203.02647035 938.91884847 203.20451966 941.23042495 203.38623047 943.54223633 C203.53159744 945.50692619 203.53159744 945.50692619 203.67990112 947.51130676 C204.52414018 952.83426391 205.81764268 956.86935915 209.91088867 960.58349609 C214.09845162 962.57827107 217.29993 962.7487932 221.875 962.71875 C223.12568016 962.73514778 223.12568016 962.73514778 224.40162659 962.75187683 C226.19269774 962.77393443 227.98388861 962.78758411 229.77508545 962.79360962 C234.54076424 962.81247032 239.30531847 962.90145442 244.0703125 962.98046875 C245.50700287 963.00185158 245.50700287 963.00185158 246.97271729 963.02366638 C286.20271118 963.6436626 326.05312905 967.76694868 364.42333984 976.06591797 C365.43378609 976.28144569 365.43378609 976.28144569 366.46464539 976.50132751 C368.30568795 976.89899705 370.14358239 977.31116313 371.98120117 977.72436523 C377.16059528 978.4432437 380.20704132 977.9098488 384.51171875 974.9296875 C389.00720477 970.43420148 389.49015919 966.60291243 389.54319185 960.48256618 C389.54077677 959.59736063 389.53836168 958.71215508 389.53587341 957.80012512 C389.54111009 956.85144096 389.54634677 955.90275679 389.55174214 954.92532462 C389.56675216 951.74420053 389.56744752 948.56323716 389.56811523 945.38208008 C389.57573612 943.10202767 389.58416349 940.82197784 389.59333801 938.54193115 C389.61529884 932.34546747 389.62408425 926.14905315 389.62916446 919.95255494 C389.63280663 916.08045697 389.63904603 912.20837195 389.64616585 908.33627892 C389.66562268 897.60714325 389.68213479 886.87802297 389.68504238 876.14886951 C389.68532374 875.11947622 389.68532374 875.11947622 389.68561077 874.0692871 C389.68597702 872.67817096 389.68634071 871.28705482 389.68670189 869.89593867 C389.6868847 869.20542295 389.68706751 868.51490723 389.68725586 867.8034668 C389.68743641 867.11210417 389.68761696 866.42074154 389.68780298 865.70842852 C389.69134273 854.51215853 389.71835354 843.3160811 389.75575375 832.11987785 C389.79387995 820.61386678 389.81275956 809.10797749 389.81350189 797.60189933 C389.81429467 791.14610149 389.82303386 784.69055202 389.85149956 778.23481178 C389.87768588 772.16001128 389.87988173 766.08566495 389.86384392 760.01083374 C389.86202982 757.78485308 389.86871648 755.55884627 389.88466263 753.33292198 C389.9051533 750.28613621 389.89455292 747.24093499 389.87644958 744.19416809 C389.88964955 743.32011615 389.90284952 742.44606421 389.91644949 741.54552585 C389.80150735 733.03468329 386.00111274 726.28007301 381.16796875 719.42578125 C380.34462036 718.2510022 380.34462036 718.2510022 379.50463867 717.05249023 C378.9294751 716.24884033 378.35431152 715.44519043 377.76171875 714.6171875 C377.15368408 713.75875244 376.54564941 712.90031738 375.91918945 712.01586914 C367.80316717 700.62950864 359.3316342 689.50616962 350.390625 678.75390625 C348.85644141 676.89881086 347.34621563 675.02380916 345.8515625 673.13671875 C345.05878906 672.14027344 344.26601562 671.14382813 343.44921875 670.1171875 C342.74152344 669.21871094 342.03382813 668.32023438 341.3046875 667.39453125 C338.71178234 664.57047135 338.71178234 664.57047135 335.26171875 663.1796875 C328.81708085 663.49354974 323.10919059 665.36882055 317.01171875 667.3671875 C274.5525781 680.76145711 228.96775327 685.20164591 184.63671875 681.3671875 C183.81026855 681.29725586 182.98381836 681.22732422 182.13232422 681.15527344 C170.79924381 679.97174809 160.93171612 676.53178982 153.18359375 667.8515625 C144.41903517 656.14093381 144.24047578 644.155646 146.07421875 630.03515625 C146.45468545 627.47683417 146.85122138 624.92086302 147.26171875 622.3671875 C147.37020142 621.68493103 147.47868408 621.00267456 147.5904541 620.29974365 C152.05748809 592.50780399 159.5571029 565.33886151 170.47509766 539.36743164 C171.83909638 535.57388957 171.92194251 533.20705246 171.26171875 529.1796875 C166.21692622 521.49636628 158.51828726 518.11305529 150.57421875 514.0546875 C149.13568655 513.30729242 147.6975404 512.55915386 146.25976562 511.81030273 C141.94159098 509.57114545 137.60575943 507.36817953 133.26171875 505.1796875 C132.62812439 504.86030212 131.99453003 504.54091675 131.34173584 504.21185303 C118.74043282 497.87615476 105.98138127 491.9109614 93.01171875 486.3671875 C92.02945313 485.93994385 91.0471875 485.5127002 90.03515625 485.07250977 C84.99900934 482.97367438 80.80271389 481.29447974 75.26171875 482.1796875 C69.20081417 485.00862634 66.50871861 489.86277147 63.13671875 495.3671875 C61.99082062 497.17999308 60.84233489 498.99116531 59.69140625 500.80078125 C59.11745117 501.70683105 58.54349609 502.61288086 57.95214844 503.54638672 C50.31014332 515.45087361 41.74445756 526.56676934 32.70458984 537.43261719 C31.44181112 538.96162642 30.20318556 540.51051798 28.96875 542.0625 C22.21722569 550.54940673 14.77104555 558.36721817 7.26171875 566.1796875 C6.62411621 566.84597168 5.98651367 567.51225586 5.32958984 568.19873047 C3.48390503 570.11936214 1.62566983 572.02679348 -0.23828125 573.9296875 C-1.06428833 574.78784058 -1.06428833 574.78784058 -1.90698242 575.66333008 C-7.99141697 581.79750868 -14.12677001 585.22356608 -22.86328125 585.5546875 C-36.26095108 585.27188708 -44.89815716 575.16060376 -53.73828125 566.1796875 C-55.56167117 564.23585347 -57.30827198 562.27116018 -59.01171875 560.22265625 C-60.83821449 558.0614407 -62.74735337 555.98788674 -64.67407227 553.91601562 C-70.29233772 547.869828 -75.60410346 541.64584538 -80.73828125 535.1796875 C-81.23134766 534.5697998 -81.72441406 533.95991211 -82.23242188 533.33154297 C-90.49939307 523.09779235 -98.03471504 512.51641771 -105.23266602 501.50317383 C-111.72167522 490.6919055 -111.72167522 490.6919055 -120.73828125 482.1796875 C-128.44499731 481.0353832 -134.29762127 484.21051141 -141.17578125 487.4296875 Z M214.26171875 561.1796875 C215.26171875 563.1796875 215.26171875 563.1796875 215.26171875 563.1796875 Z M-260.73828125 562.1796875 C-259.73828125 564.1796875 -259.73828125 564.1796875 -259.73828125 564.1796875 Z M213.26171875 563.1796875 C214.26171875 565.1796875 214.26171875 565.1796875 214.26171875 565.1796875 Z M-259.73828125 564.1796875 C-258.73828125 566.1796875 -258.73828125 566.1796875 -258.73828125 566.1796875 Z M-27.97265625 661.609375 C-28.84728516 661.98674805 -29.72191406 662.36412109 -30.62304688 662.75292969 C-36.62601919 665.50225337 -42.60346919 668.30034386 -48.56152344 671.14575195 C-51.04359176 672.33110189 -53.52742778 673.51267546 -56.01171875 674.69335938 C-59.49744138 676.35042897 -62.98244678 678.0089916 -66.46679688 679.66894531 C-74.07877844 683.29505358 -81.69419858 686.91388355 -89.31213379 690.52746582 C-91.72715925 691.67440546 -94.14052117 692.82478984 -96.55371094 693.97558594 C-103.16804631 697.12311028 -109.77812516 700.24038656 -116.51953125 703.109375 C-127.25890032 707.68140662 -135.64586513 712.48653513 -144.06982422 720.60009766 C-147.02994427 723.40255255 -150.14477473 726.02658425 -153.23828125 728.6796875 C-154.49272022 729.76761521 -155.74662881 730.85615479 -157 731.9453125 C-160.0765939 734.61196129 -163.16757599 737.2612342 -166.26464844 739.90405273 C-168.56169108 741.86608383 -170.85229901 743.83550891 -173.14111328 745.80712891 C-174.67811304 747.12798073 -176.22174144 748.4411072 -177.765625 749.75390625 C-178.66410156 750.53378906 -179.56257813 751.31367187 -180.48828125 752.1171875 C-181.266875 752.78621094 -182.04546875 753.45523438 -182.84765625 754.14453125 C-186.30707123 757.86840564 -186.99440925 761.88437134 -187.37329102 766.83544922 C-187.46453247 767.9770047 -187.55577393 769.11856018 -187.64978027 770.29470825 C-187.78833435 772.18296829 -187.78833435 772.18296829 -187.9296875 774.109375 C-188.03622424 775.48067447 -188.14346597 776.85191931 -188.25134277 778.22311401 C-188.54842561 782.02773588 -188.83519281 785.83307217 -189.11964798 789.63865662 C-189.42587809 793.72328115 -189.73861613 797.80740837 -190.05053711 801.89160156 C-190.46622368 807.33993041 -190.88059873 812.78835154 -191.29127502 818.23706055 C-192.24913374 830.92001527 -193.2455108 843.59952739 -194.26435947 856.27772713 C-195.13418579 867.10195002 -195.99137524 877.92713043 -196.84040737 888.75300407 C-197.37136654 895.5175468 -197.90854749 902.28148625 -198.4602356 909.04437256 C-198.98642779 915.49548088 -199.49392325 921.94789747 -199.98948669 928.40143204 C-200.17709165 930.80479735 -200.37094673 933.20768389 -200.57139587 935.61001205 C-200.84692737 938.92352105 -201.10006796 942.23803155 -201.34790039 945.55371094 C-201.4334295 946.51844267 -201.51895861 947.4831744 -201.60707951 948.47714043 C-202.03079244 954.5533722 -201.35388454 958.65078426 -198.73828125 964.1796875 C-192.61415229 970.79374677 -177.19850386 970.59239454 -168.76171875 971.359375 C-164.17145306 971.08656851 -161.71208914 969.12644517 -158.48828125 965.9921875 C-154.98220016 960.35741432 -155.5157418 952.54522737 -155.18164062 946.01660156 C-155.11067924 944.69776978 -155.11067924 944.69776978 -155.0382843 943.35229492 C-154.88361582 940.46676542 -154.73287351 937.58104431 -154.58203125 934.6953125 C-154.47405352 932.67281525 -154.36577215 930.65033419 -154.25720215 928.62786865 C-153.97245544 923.31274657 -153.69079124 917.99746629 -153.41009521 912.68212891 C-152.96151012 904.19040516 -152.5098381 895.69884886 -152.05513 887.20745087 C-151.89790998 884.25868283 -151.74298573 881.30980053 -151.58825684 878.36090088 C-150.06868142 849.65850152 -150.06868142 849.65850152 -146.73828125 845.1796875 C-141.53274694 841.8023672 -137.08797647 841.75620215 -131.09765625 841.8054657 C-129.65073898 841.79950409 -129.65073898 841.79950409 -128.17459106 841.79342204 C-124.94567073 841.78380554 -121.71718923 841.7956135 -118.48828125 841.80737305 C-116.1720361 841.80494488 -113.85579199 841.80122531 -111.53955078 841.79631042 C-105.25039167 841.78690134 -98.96138818 841.79632716 -92.67224121 841.80964255 C-86.0926918 841.82095484 -79.51315009 841.81684971 -72.93359375 841.81489563 C-61.8840896 841.8134702 -50.83464355 841.8250244 -39.78515625 841.84350586 C-28.42055407 841.86250935 -17.05602318 841.86959321 -5.69140625 841.86401367 C8.00945713 841.85730701 21.71027287 841.86060542 35.41113281 841.87311745 C40.64225856 841.87776369 45.87336494 841.87863717 51.10449219 841.8765316 C57.26372969 841.87464884 63.42287565 841.88275183 69.58209229 841.898592 C71.84360373 841.90283678 74.10512446 841.9036841 76.36663818 841.90090179 C79.45155739 841.8976821 82.53620271 841.90675674 85.62109375 841.91899109 C86.51778778 841.91521177 87.41448181 841.91143244 88.33834839 841.90753859 C92.97582818 841.9401121 97.01150298 842.09660655 101.26171875 844.1796875 C104.9756915 849.65246803 104.83445883 857.52420418 105.10546875 863.91259766 C105.18667969 865.46315102 105.18667969 865.46315102 105.26953125 867.04502869 C105.38470973 869.27416047 105.49414931 871.50359483 105.59838867 873.73326492 C105.76389245 877.26513694 105.94532732 880.79587861 106.13085938 884.32675171 C106.58817054 893.09112511 107.01871716 901.8567733 107.44921875 910.62249756 C107.81458445 918.0431557 108.19054063 925.46312737 108.58081055 932.88251877 C108.75912801 936.35578757 108.92182167 939.82956442 109.08398438 943.30361938 C109.1945338 945.43764221 109.30582248 947.5716269 109.41796875 949.70556641 C109.45857422 950.66678909 109.49917969 951.62801178 109.54101562 952.61836243 C109.85021561 958.1348134 110.59752379 962.30341512 113.26171875 967.1796875 C117.29297735 970.43136428 119.84559637 971.4646441 125.00390625 971.203125 C126.71770153 971.01094826 128.42890198 970.79424551 130.13671875 970.5546875 C130.98363281 970.45800781 131.83054687 970.36132812 132.703125 970.26171875 C143.58163156 969.36387141 143.58163156 969.36387141 152.82421875 964.3671875 C158.95663256 955.73676125 154.79417646 939.13766971 154.00830078 928.90844727 C153.87322102 927.10350958 153.73854833 925.29854139 153.60424805 923.49354553 C153.24103011 918.63007074 152.87160577 913.76708696 152.50057459 908.9042027 C152.19066733 904.83577772 151.883668 900.76713528 151.57659805 896.69849533 C150.85234117 887.10374125 150.1228457 877.50939524 149.39013672 867.9152832 C148.63495641 858.02560529 147.88907641 848.13525621 147.14764512 838.24453884 C146.50940869 829.73512576 145.8652436 821.22617544 145.21635711 812.71756786 C144.82942184 807.64288748 144.44477634 802.56805987 144.06592178 797.49276924 C143.70996161 792.72743546 143.34660618 787.96272245 142.97755432 783.19838524 C142.84348282 781.45147354 142.71202479 779.70435899 142.58338547 777.95703888 C142.40726533 775.57044717 142.22167922 773.18477197 142.03372192 770.79908752 C141.98507433 770.10949764 141.93642674 769.41990776 141.88630497 768.70942122 C141.17736137 760.04245517 138.36874402 754.67728321 131.83984375 749.1171875 C129.95213259 747.58142249 128.05725576 746.05443394 126.15625 744.53515625 C123.4418444 742.32626748 120.84453111 740.04005669 118.26171875 737.6796875 C113.96502333 733.76371193 109.51132149 730.09169084 104.98828125 726.44140625 C101.51650199 723.56152059 98.21953815 720.51527842 94.94140625 717.41796875 C86.22568705 710.13792924 76.29365923 705.67601578 66.07421875 700.9296875 C64.39190095 700.14186377 62.70994126 699.35327492 61.02832031 698.56396484 C57.53078673 696.92292789 54.03173358 695.28519345 50.53173828 693.64941406 C42.97660052 690.11406287 35.44633598 686.52644574 27.91290283 682.94515991 C21.03472173 679.67828177 14.14903958 676.42724417 7.26171875 673.1796875 C6.57543396 672.85599182 5.88914917 672.53229614 5.18206787 672.1987915 C0.85922232 670.16125285 -3.46906879 668.13580758 -7.80078125 666.1171875 C-8.85297852 665.62234863 -9.90517578 665.12750977 -10.98925781 664.61767578 C-11.94928711 664.17278809 -12.90931641 663.72790039 -13.8984375 663.26953125 C-14.71965088 662.88659912 -15.54086426 662.50366699 -16.38696289 662.10913086 C-20.72658391 660.39373918 -23.62524534 659.72588913 -27.97265625 661.609375 Z M-102.73828125 897.1796875 C-103.99285655 899.6888381 -104.01379812 901.64775016 -104.203125 904.453125 C-104.27998535 905.57058105 -104.3568457 906.68803711 -104.43603516 907.83935547 C-104.51515137 909.06541504 -104.59426758 910.29147461 -104.67578125 911.5546875 C-104.76005371 912.82586426 -104.84432617 914.09704102 -104.93115234 915.40673828 C-105.2104228 919.66376262 -105.47607522 923.92158159 -105.73828125 928.1796875 C-105.78531189 928.9418457 -105.83234253 929.70400391 -105.88079834 930.48925781 C-106.17216048 935.23398104 -106.45485729 939.9791388 -106.72854614 944.72491455 C-106.81702777 946.25489519 -106.90673105 947.78480576 -106.99777222 949.31463623 C-107.45483745 957.04648769 -107.82687146 964.77353885 -107.90625 972.51953125 C-107.91938232 973.71441162 -107.93251465 974.90929199 -107.94604492 976.14038086 C-107.74946059 979.0161486 -107.55264486 980.53154094 -105.92578125 982.8671875 C-103.08969555 984.92473987 -101.16053775 985.88768886 -97.92578125 987.02734375 C-96.94826904 987.37192627 -95.97075684 987.71650879 -94.96362305 988.0715332 C-89.17100087 990.06174682 -83.37107095 992.02170145 -77.55078125 993.9296875 C-75.72256836 994.54650391 -75.72256836 994.54650391 -73.85742188 995.17578125 C-64.96598838 998.11526947 -64.96598838 998.11526947 -55.73828125 998.1796875 C-53.42964072 997.09102611 -53.42964072 997.09102611 -51.80078125 995.3671875 C-51.23488281 994.84511719 -50.66898438 994.32304688 -50.0859375 993.78515625 C-46.91502446 990.00763376 -47.57651365 985.32610335 -47.5612793 980.67260742 C-47.5547081 979.80398575 -47.5481369 978.93536407 -47.54136658 978.04042053 C-47.52164344 975.1636649 -47.50997364 972.28696143 -47.5 969.41015625 C-47.49592447 968.42746576 -47.49184895 967.44477528 -47.48764992 966.43230629 C-47.46679415 961.23180985 -47.45248985 956.03133976 -47.44311523 950.83081055 C-47.43204719 945.4605762 -47.39764121 940.0907558 -47.35794353 934.72066784 C-47.33179619 930.58994273 -47.3234251 926.45931659 -47.31983376 922.32851601 C-47.31496355 920.34898391 -47.30333723 918.36945636 -47.28479576 916.39000511 C-47.26044273 913.6179867 -47.26136223 910.84704385 -47.26831055 908.07495117 C-47.25550049 907.25966949 -47.24269043 906.44438782 -47.22949219 905.60440063 C-47.27742385 900.35009594 -48.2199587 897.3241231 -51.73828125 893.1796875 C-58.56913744 889.27046257 -66.02860131 889.75440817 -73.68408203 889.84350586 C-75.86528242 889.86720925 -78.04526487 889.86403781 -80.2265625 889.85742188 C-92.89499342 889.82599588 -92.89499342 889.82599588 -102.73828125 897.1796875 Z M4.08987427 895.23432922 C1.58498541 899.26997885 1.69882875 902.43654454 1.74414062 907.09741211 C1.73713135 907.98583298 1.73012207 908.87425385 1.72290039 909.78959656 C1.70532334 912.72072792 1.71694317 915.65089038 1.73046875 918.58203125 C1.72777352 920.62317591 1.72389083 922.66431932 1.71887207 924.70545959 C1.71297721 928.98174269 1.72153886 933.25769136 1.74023438 937.53393555 C1.76300928 943.00957117 1.74990978 948.4844219 1.72594452 953.96002865 C1.711474 958.17486966 1.71609858 962.38952535 1.72645569 966.60437202 C1.72912025 968.62295182 1.72586276 970.64154855 1.71653748 972.66010857 C1.706353 975.48471348 1.72190025 978.30805713 1.74414062 981.13256836 C1.7360437 981.96340942 1.72794678 982.79425049 1.71960449 983.65026855 C1.79665758 988.94543236 2.73425176 991.99030846 6.26171875 996.1796875 C10.3295778 998.89159354 13.56248614 998.78457087 18.26171875 998.1796875 C23.53815641 996.83065257 28.66897787 995.11547605 33.82421875 993.3671875 C35.20859322 992.90962214 36.59335716 992.45323337 37.97851562 991.99804688 C51.47110932 988.62673564 51.47110932 988.62673564 61.26171875 980.1796875 C62.70869225 971.8529625 62.06936186 963.5890136 61.58984375 955.19921875 C61.50564974 953.65705312 61.4217312 952.11487244 61.33807373 950.57267761 C61.1616075 947.35583273 60.97918089 944.13939046 60.79296875 940.9230957 C60.55579311 936.81167732 60.33769908 932.69949005 60.12453079 928.58676624 C59.95694247 925.40771373 59.77719309 922.22943371 59.59401703 919.05124474 C59.50848842 917.53529669 59.42717566 916.01910442 59.35025787 914.50269508 C59.24127887 912.38211863 59.11539142 910.26317424 58.98535156 908.14379883 C58.91793762 906.94072586 58.85052368 905.73765289 58.78106689 904.49812317 C57.9198759 898.99544266 55.64117577 894.6574916 51.26171875 891.1796875 C45.08096379 889.48858168 38.53002642 889.95591586 32.16992188 889.93945312 C29.90066877 889.92974717 27.63232228 889.89868829 25.36328125 889.8671875 C23.90495324 889.86065609 22.44661882 889.85540616 20.98828125 889.8515625 C19.01722412 889.83754395 19.01722412 889.83754395 17.00634766 889.82324219 C11.78235308 890.32050598 7.93881598 891.59309418 4.08987427 895.23432922 Z M-44.59863281 1078.08105469 C-47.06387313 1079.34686727 -49.53818893 1080.59421678 -52.01171875 1081.84375 C-86.10992154 1099.20219832 -118.47613924 1120.61649524 -148.09667969 1144.83789062 C-149.60022205 1146.06684196 -151.11033573 1147.28774233 -152.62109375 1148.5078125 C-170.61958542 1163.09551129 -187.4031153 1178.76548432 -203.80078125 1195.1171875 C-204.34175446 1195.65548187 -204.88272766 1196.19377625 -205.44009399 1196.74838257 C-210.90009422 1202.18784049 -216.29345182 1207.64219876 -221.30444336 1213.50512695 C-223.29879318 1215.83430206 -225.39731681 1218.06230839 -227.48828125 1220.3046875 C-232.31310142 1225.59075755 -236.72001225 1231.13488888 -241.09765625 1236.79296875 C-243.35338393 1239.70512942 -245.68595346 1242.54253208 -248.05078125 1245.3671875 C-254.11064015 1252.7138041 -259.65030274 1260.46068845 -265.25537109 1268.15600586 C-266.73499136 1270.17519789 -268.23260041 1272.17987622 -269.73828125 1274.1796875 C-269.40828125 1274.8396875 -269.07828125 1275.4996875 -268.73828125 1276.1796875 C-268.32578125 1275.75558594 -267.91328125 1275.33148437 -267.48828125 1274.89453125 C-263.75858731 1271.10656084 -259.92130291 1267.52390616 -255.89453125 1264.0546875 C-253.53865167 1262.00609656 -251.23320665 1259.90765748 -248.92578125 1257.8046875 C-244.60216187 1253.90288464 -240.15085673 1250.19820252 -235.62109375 1246.5390625 C-233.1639399 1244.52805854 -230.75389316 1242.47363529 -228.35424805 1240.39477539 C-219.97726056 1233.16842236 -211.12900103 1226.6020515 -202.23339844 1220.03222656 C-199.97478058 1218.35528015 -197.7326409 1216.65932417 -195.49609375 1214.953125 C-162.67580063 1190.08522133 -127.25680033 1168.13656539 -90.73828125 1149.1796875 C-90.01914551 1148.80618164 -89.30000977 1148.43267578 -88.55908203 1148.04785156 C-84.81015973 1146.11446919 -81.03323571 1144.24455961 -77.23925781 1142.40136719 C-74.71911805 1141.17032664 -72.2065468 1139.92447581 -69.69439697 1138.67723083 C6.00853948 1101.14385774 89.45922506 1077.07016484 219.51171875 1069.9921875 C221.01206665 1069.99359238 221.01206665 1069.99359238 222.54272461 1069.99502563 C272.59194115 1070.0958112 321.47835105 1077.28061507 370.26171875 1088.1796875 C371.35003863 1084.022174 372.43420067 1079.86360262 373.51489258 1075.70410156 C373.88132732 1074.29594292 374.24880193 1072.88805438 374.61743164 1071.48046875 C381.0455299 1052.38285636 381.0455299 1052.38285636 380.13671875 1033.4921875 C376.09652257 1028.50927888 371.37488064 1026.6493905 365.21484375 1025.43359375 C364.53939011 1025.29737106 363.86393646 1025.16114838 363.16801453 1025.02079773 C360.95192602 1024.57935518 358.73246569 1024.15951703 356.51171875 1023.7421875 C354.94212787 1023.43918354 353.37254798 1023.13612268 351.80297852 1022.83300781 C316.99337647 1016.19459253 281.71974652 1011.87665119 246.26171875 1011.1796875 C244.61018799 1011.14681641 244.61018799 1011.14681641 242.92529297 1011.11328125 C149.60948891 1009.56980827 56.24994675 1029.6101299 -44.59863281 1078.08105469 Z M-347.73828125 1015.1796875 C-348.81803223 1015.28506836 -349.8977832 1015.39044922 -351.01025391 1015.49902344 C-364.46454283 1016.84998907 -377.70928079 1019.17626135 -390.98828125 1021.6796875 C-391.78264587 1021.82925903 -392.5770105 1021.97883057 -393.39544678 1022.13293457 C-411.44092072 1024.15764666 -411.44092072 1024.15764666 -425.73828125 1033.1796875 C-429.63814261 1040.97941021 -425.42568269 1052.05368655 -423.48828125 1059.9296875 C-423.18792969 1061.198125 -422.88757813 1062.4665625 -422.578125 1063.7734375 C-421.02919437 1070.2328078 -419.37934259 1076.66287113 -417.62890625 1083.0703125 C-417.31469727 1084.22047852 -417.00048828 1085.37064453 -416.67675781 1086.55566406 C-416.02821006 1089.32288223 -416.02821006 1089.32288223 -413.73828125 1090.1796875 C-411.11757808 1089.24323648 -411.11757808 1089.24323648 -408.11328125 1087.78515625 C-406.94571289 1087.24673096 -405.77814453 1086.70830566 -404.57519531 1086.15356445 C-403.95100708 1085.86244781 -403.32681885 1085.57133118 -402.68371582 1085.27139282 C-355.65102277 1063.41138682 -306.06834246 1049.98763889 -254.73828125 1043.1796875 C-254.06416199 1043.08774109 -253.39004272 1042.99579468 -252.69549561 1042.90106201 C-203.23819742 1036.18383608 -151.76581767 1038.74174553 -102.73828125 1047.1796875 C-103.1964763 1042.26459938 -103.1964763 1042.26459938 -105.30078125 1037.9296875 C-112.28272468 1032.91701017 -121.72131061 1031.47317238 -129.92578125 1029.4296875 C-130.61413055 1029.25771851 -131.30247986 1029.08574951 -132.01168823 1028.90856934 C-171.66937663 1019.06786199 -211.98881645 1013.44350008 -252.80078125 1011.5546875 C-253.66767578 1011.51448486 -254.53457031 1011.47428223 -255.42773438 1011.43286133 C-286.24291402 1010.18947231 -317.08944853 1012.09975191 -347.73828125 1015.1796875 Z M-279.73828125 1194.1796875 C-279.73828125 1194.5096875 -279.73828125 1194.8396875 -279.73828125 1195.1796875 C-278.08828125 1195.1796875 -276.43828125 1195.1796875 -274.73828125 1195.1796875 C-274.73828125 1194.8496875 -274.73828125 1194.5196875 -274.73828125 1194.1796875 C-276.38828125 1194.1796875 -278.03828125 1194.1796875 -279.73828125 1194.1796875 Z M-327.67578125 1196.9921875 C-328.815952 1197.11648132 -328.815952 1197.11648132 -329.97915649 1197.24328613 C-332.15997243 1197.48499877 -334.33779226 1197.74457453 -336.515625 1198.01171875 C-337.76593506 1198.16358643 -339.01624512 1198.3154541 -340.30444336 1198.47192383 C-345.10494777 1199.46137724 -348.57889413 1201.02030038 -352.05078125 1204.4921875 C-354.04475124 1207.66776933 -354.73828125 1209.41569215 -354.73828125 1213.1796875 C-352.86971324 1218.66448418 -349.5724523 1222.91949745 -345.73828125 1227.1796875 C-344.43890625 1225.973125 -344.43890625 1225.973125 -343.11328125 1224.7421875 C-325.3243368 1209.59658018 -302.39008314 1200.87021213 -279.73828125 1196.1796875 C-279.73828125 1195.8496875 -279.73828125 1195.5196875 -279.73828125 1195.1796875 C-295.88322454 1194.69322496 -311.63340499 1195.16796939 -327.67578125 1196.9921875 Z M16.26171875 1253.1796875 C15.0401709 1253.89705078 15.0401709 1253.89705078 13.79394531 1254.62890625 C-7.46936575 1267.15014674 -27.43241981 1281.81105242 -46.1015625 1297.9375 C-48.73828125 1300.1796875 -48.73828125 1300.1796875 -51.09375 1301.859375 C-51.63644531 1302.29507812 -52.17914062 1302.73078125 -52.73828125 1303.1796875 C-52.73828125 1303.8396875 -52.73828125 1304.4996875 -52.73828125 1305.1796875 C-53.3350618 1305.45180557 -53.93184235 1305.72392365 -54.54670715 1306.00428772 C-56.69123941 1307.15445771 -58.08975528 1308.27785996 -59.8034668 1309.98608398 C-60.66037361 1310.83353432 -60.66037361 1310.83353432 -61.53459167 1311.69810486 C-62.14192642 1312.30948807 -62.74926117 1312.92087128 -63.375 1313.55078125 C-64.0138765 1314.18774429 -64.65275299 1314.82470734 -65.31098938 1315.48097229 C-66.66413333 1316.83275587 -68.01475734 1318.18706596 -69.36303711 1319.54370117 C-71.39420328 1321.58544508 -73.43563841 1323.61646634 -75.47851562 1325.64648438 C-82.69473897 1332.85480682 -89.43970042 1340.14861489 -95.73828125 1348.1796875 C-96.96463849 1349.66464374 -98.19616767 1351.14534858 -99.43359375 1352.62109375 C-112.25041588 1366.22099213 -112.25041588 1366.22099213 -117.73828125 1383.1796875 C-112.88162115 1379.72398704 -108.46753865 1376.0662782 -104.11328125 1371.9921875 C-98.17558526 1366.4494539 -91.90459705 1361.44038118 -85.45996094 1356.50292969 C-83.81812264 1355.2410517 -82.18687989 1353.96679522 -80.55859375 1352.6875 C-54.73129408 1332.52803666 -26.57714155 1314.3380243 3.03027344 1300.25488281 C5.6033508 1299.01507617 8.1543126 1297.73431403 10.70703125 1296.453125 C55.1960731 1274.32835435 102.90881843 1260.63493037 152.26171875 1255.1796875 C153.1655127 1255.0765625 154.06930664 1254.9734375 155.00048828 1254.8671875 C165.18096017 1253.85618125 175.41631279 1253.93591952 185.63671875 1253.9296875 C187.13137161 1253.92867538 187.13137161 1253.92867538 188.65621948 1253.92764282 C212.30476412 1253.95297285 235.17133068 1256.01468929 258.39672852 1260.64135742 C260.03339478 1260.96197144 260.03339478 1260.96197144 261.703125 1261.2890625 C262.65904541 1261.48467773 263.61496582 1261.68029297 264.59985352 1261.88183594 C267.46720655 1262.20268072 269.50439317 1262.00959615 272.26171875 1261.1796875 C274.89058042 1258.93069588 274.89058042 1258.93069588 277.38671875 1255.9921875 C277.86117432 1255.45754883 278.33562988 1254.92291016 278.82446289 1254.37207031 C298.69898785 1233.85415816 298.69898785 1233.85415816 308.64453125 1209.46875 C307.97940194 1205.49154822 306.2264585 1203.88089483 303.26171875 1201.1796875 C299.25349661 1199.2028912 295.40555062 1198.66282493 290.98828125 1198.14453125 C289.92704041 1198.01936127 289.92704041 1198.01936127 288.84436035 1197.8916626 C286.52617082 1197.62325855 284.20682998 1197.3684137 281.88671875 1197.1171875 C281.08683533 1197.02942047 280.2869519 1196.94165344 279.46282959 1196.85122681 C188.24147255 1186.96859191 95.27805655 1206.34208226 16.26171875 1253.1796875 Z " fill="#0B5B2F" transform="translate(815.73828125,6.8203125)"/>
<path d="M0 0 C0.89772125 -0.00807175 1.7954425 -0.01614349 2.72036743 -0.02445984 C4.62182685 -0.03830166 6.52331114 -0.04902338 8.42480469 -0.05688477 C11.33316034 -0.07410976 14.24038282 -0.11799566 17.1484375 -0.16210938 C18.9947833 -0.1722352 20.84113877 -0.18075165 22.6875 -0.1875 C23.5574057 -0.20500809 24.4273114 -0.22251617 25.32357788 -0.24055481 C26.54471786 -0.23616646 26.54471786 -0.23616646 27.79052734 -0.23168945 C28.86069595 -0.24048882 28.86069595 -0.24048882 29.95248413 -0.24946594 C33.12669225 0.51543087 34.04829347 1.56428759 35.9765625 4.23828125 C36.59113033 7.81346404 36.50945958 11.36663083 36.47535706 14.98631287 C36.48074161 16.09476863 36.48612616 17.2032244 36.49167389 18.34526974 C36.50498979 22.07472176 36.48977151 25.80352082 36.47485352 29.53295898 C36.47867554 32.20256564 36.48409541 34.87212332 36.49157715 37.54171753 C36.5046849 43.30437809 36.50348914 49.06689365 36.49298286 54.82955742 C36.47800791 63.2016779 36.48798917 71.57362943 36.50450205 79.94574035 C36.53099622 93.58207686 36.54182149 107.2183755 36.54077148 120.85473633 C36.54071316 121.67116913 36.54065484 122.48760193 36.54059475 123.32877512 C36.54032909 126.63362665 36.54001189 129.93847818 36.53963149 133.2433297 C36.53867131 142.26874702 36.53998408 151.29416316 36.54272461 160.31958008 C36.5429645 161.12500704 36.54320439 161.93043401 36.54345156 162.76026785 C36.54789549 176.30605016 36.56428613 189.85179788 36.5879454 203.3975597 C36.60062084 210.98149095 36.60670256 218.5653219 36.59643745 226.14925957 C36.48057372 314.65624959 48.07439185 398.710194 109.9765625 531.23828125 C110.53956055 532.21216797 111.10255859 533.18605469 111.68261719 534.18945312 C120.12112388 548.70858178 129.10270873 562.65828281 138.9765625 576.23828125 C139.56856445 577.06086426 140.16056641 577.88344727 140.77050781 578.73095703 C147.35875859 587.88367819 154.07985645 596.8239531 161.4765625 605.33984375 C163.81452541 608.0504195 166.05720112 610.81524916 168.2890625 613.61328125 C173.12228936 619.55719579 178.3622668 625.09206135 183.6171875 630.66015625 C186.37108856 633.58021447 189.0632803 636.54750558 191.7265625 639.55078125 C197.97119127 646.52530169 204.54256035 653.12081578 211.66015625 659.203125 C214.14499174 661.38626039 216.55495931 663.63701996 218.96557617 665.90136719 C225.42770537 671.96810302 232.03933127 677.71488791 238.9765625 683.23828125 C240.08187701 684.1457391 241.18597992 685.05467412 242.2890625 685.96484375 C252.45468717 694.30132569 263.11792298 701.83553287 273.9765625 709.23828125 C274.75467285 709.7698584 275.5327832 710.30143555 276.33447266 710.84912109 C350.16475648 761.12560521 433.97487482 792.21713471 522.52722168 803.33609009 C523.95984094 803.51664846 525.39193096 803.70147346 526.82336426 803.89120483 C543.32489612 806.05179135 559.19557318 804.3258106 575.6015625 802.05078125 C576.39515167 801.94190582 577.18874084 801.8330304 578.00637817 801.72085571 C604.46051061 798.06714095 630.30436081 792.65213681 655.9765625 785.23828125 C656.93275482 784.96497986 656.93275482 784.96497986 657.90826416 784.68615723 C679.92775529 778.39092707 700.99477645 770.3989335 721.9765625 761.23828125 C723.12721191 760.73619141 724.27786133 760.23410156 725.46337891 759.71679688 C738.88535464 753.8070157 751.95895017 747.32575136 764.86914062 740.37207031 C766.58203087 739.45053853 768.30175004 738.54170831 770.0234375 737.63671875 C801.92303873 720.69624729 831.67587525 699.27365484 859.02734375 675.75 C861.84205247 673.35283747 864.71043153 671.04221496 867.6015625 668.73828125 C872.59689802 664.68367315 877.05210406 660.26466002 881.54296875 655.671875 C883.38600133 653.82884242 885.18607388 652.15827493 887.2265625 650.55078125 C890.12728647 648.11153609 892.41076636 645.48785049 894.859375 642.609375 C897.45570107 639.70168141 900.20249022 636.97516643 902.9765625 634.23828125 C907.52634541 629.73233993 911.83866285 625.12852629 915.9765625 620.23828125 C916.87654191 619.2009004 917.77769007 618.16453292 918.6796875 617.12890625 C925.21371793 609.60538818 931.521473 601.94123273 937.59228516 594.0390625 C938.51310732 592.84118167 939.43725349 591.64584852 940.36474609 590.453125 C953.45679907 573.5977325 965.33040503 555.7339533 975.9765625 537.23828125 C976.43482422 536.4488916 976.89308594 535.65950195 977.36523438 534.84619141 C980.94927054 528.66967134 984.48079673 522.46515208 987.9765625 516.23828125 C988.57186768 515.18398926 988.57186768 515.18398926 989.17919922 514.10839844 C1029.27809358 442.62083312 1049.16013048 358.60734792 1053.1184082 240.43457031 C1053.12144921 237.8464197 1053.12497321 235.25826961 1053.12893677 232.67012024 C1053.13695222 227.15224465 1053.14195857 221.63437352 1053.14522743 216.11649323 C1053.15078512 207.39297089 1053.16773593 198.66948626 1053.18656921 189.94598389 C1053.18973322 188.4528196 1053.19288851 186.9596553 1053.19603521 185.46649098 C1053.19760192 184.72312363 1053.19916864 183.97975628 1053.20078283 183.21386264 C1053.2023548 182.46785321 1053.20392677 181.72184378 1053.20554638 180.953228 C1053.20792202 179.83057225 1053.20792202 179.83057225 1053.21034566 178.68523659 C1053.22818551 170.21740646 1053.24446641 161.74957381 1053.25952148 153.28173828 C1053.26158529 152.12387267 1053.26158529 152.12387267 1053.26369079 150.94261584 C1053.28572558 138.37268513 1053.29640767 125.80276456 1053.30389223 113.23281792 C1053.31195577 100.28657156 1053.33520287 87.34041148 1053.3718459 74.39421439 C1053.39385526 66.42654756 1053.40354052 58.45905807 1053.39734557 50.49136236 C1053.39380369 44.40589663 1053.41099007 38.32067335 1053.43602371 32.23525047 C1053.44296619 29.73745611 1053.4430295 27.23963207 1053.43582344 24.74183846 C1053.42700106 21.34164277 1053.44252088 17.94241411 1053.46430969 14.54229736 C1053.45586716 13.5470002 1053.44742462 12.55170304 1053.43872625 11.52624536 C1053.5180515 4.86657428 1053.5180515 4.86657428 1055.88291454 1.62602615 C1058.19976589 0.09033405 1059.37546477 -0.26690144 1062.13085938 -0.27929688 C1063.34231628 -0.29820984 1063.34231628 -0.29820984 1064.57824707 -0.31750488 C1065.44187866 -0.30940796 1066.30551025 -0.30131104 1067.1953125 -0.29296875 C1068.09020386 -0.29679565 1068.98509521 -0.30062256 1069.90710449 -0.30456543 C1071.79664232 -0.30728395 1073.68621782 -0.29992691 1075.57568359 -0.28320312 C1078.4666744 -0.26179198 1081.35518017 -0.28300609 1084.24609375 -0.30859375 C1086.08333881 -0.30595046 1087.92058233 -0.30082546 1089.7578125 -0.29296875 C1091.05325989 -0.30511414 1091.05325989 -0.30511414 1092.37487793 -0.31750488 C1093.18251587 -0.30489624 1093.99015381 -0.2922876 1094.82226562 -0.27929688 C1095.88338562 -0.27452332 1095.88338562 -0.27452332 1096.96594238 -0.26965332 C1100.12711645 0.52894089 1101.05136394 1.56162138 1102.9765625 4.23828125 C1103.59319774 7.86378933 1103.51113144 11.46847534 1103.47776794 15.13816833 C1103.48330234 16.26295831 1103.48883674 17.38774829 1103.49453884 18.54662281 C1103.5081954 22.33135276 1103.49314684 26.11542889 1103.47827148 29.90014648 C1103.47984605 32.60915238 1103.4874004 35.31813425 1103.49464417 38.02713013 C1103.50860254 44.63913907 1103.50099424 51.25095737 1103.48596858 57.86295729 C1103.46907552 65.59390069 1103.47232447 73.32479696 1103.47606266 81.05575312 C1103.48194936 94.89178054 1103.46775562 108.72771723 1103.44311523 122.5637207 C1103.41934547 135.91271393 1103.41204972 149.26158515 1103.42260742 162.6105957 C1103.43411064 177.18089213 1103.43582044 191.75113201 1103.42150933 206.32142788 C1103.41998382 207.88776306 1103.41846346 209.45409824 1103.41694832 211.02043343 C1103.4161905 211.79076211 1103.41543269 212.5610908 1103.41465191 213.35476277 C1103.40996883 218.7060093 1103.41177629 224.05722982 1103.41601372 229.40847588 C1103.45458888 287.41489573 1099.94504772 343.66453492 1085.9765625 400.23828125 C1085.70505371 401.33914063 1085.43354492 402.44 1085.15380859 403.57421875 C1077.91820831 432.53260135 1068.63760751 460.7504529 1056.9765625 488.23828125 C1056.64092285 489.03121582 1056.3052832 489.82415039 1055.95947266 490.64111328 C1041.26123463 525.08102934 1023.78204393 558.11155973 1002.9765625 589.23828125 C1002.50750488 589.94049805 1002.03844727 590.64271484 1001.55517578 591.36621094 C990.36761992 608.03675691 978.38729919 624.0151499 965.49511719 639.40234375 C962.72396282 642.75267829 960.07216294 646.1959859 957.4296875 649.6484375 C956.95015625 650.17308594 956.470625 650.69773437 955.9765625 651.23828125 C955.3165625 651.23828125 954.6565625 651.23828125 953.9765625 651.23828125 C953.74195313 651.79128906 953.50734375 652.34429688 953.265625 652.9140625 C951.64410205 655.83771751 949.63514334 657.98007307 947.3515625 660.42578125 C946.63782471 661.19148438 946.63782471 661.19148438 945.90966797 661.97265625 C944.84997745 663.1078233 943.78817348 664.24101997 942.72460938 665.37255859 C940.85598747 667.3669732 939.00188537 669.37429344 937.1484375 671.3828125 C929.94287425 679.15675128 922.6080342 686.64134368 914.73046875 693.734375 C912.52294585 695.74149866 910.41999497 697.7791102 908.3515625 699.92578125 C904.7632715 703.58495207 900.77828276 706.7170606 896.7890625 709.92578125 C894.16690356 712.0817786 891.66047682 714.31395228 889.1640625 716.61328125 C851.84149018 750.48439312 805.59507074 778.65606926 759.84130859 799.38378906 C758.09105188 800.18581819 756.35544001 801.01959058 754.62109375 801.85546875 C697.80650534 829.18400495 636.2928604 845.06407551 573.9765625 853.23828125 C572.19525011 853.48653187 570.41399076 853.73516383 568.6328125 853.984375 C490.29669451 864.43533671 399.42252363 832.27450934 329.69580078 799.50976562 C327.16005541 798.32408041 324.61556765 797.16039813 322.06640625 796.00390625 C309.27834083 790.15363587 297.11981195 783.31725814 284.9765625 776.23828125 C284.11385742 775.73925293 283.25115234 775.24022461 282.36230469 774.72607422 C257.32279936 760.20626801 233.51696982 743.38623509 210.9765625 725.23828125 C210.00074219 724.45710938 209.02492188 723.6759375 208.01953125 722.87109375 C202.63135092 718.51533398 197.41934822 714.00857279 192.296875 709.34375 C190.27502066 707.5091044 188.22977728 705.71059339 186.1640625 703.92578125 C176.12370129 695.13058295 166.54908359 685.91317511 157.1015625 676.48828125 C156.60365204 675.99295898 156.10574158 675.49763672 155.59274292 674.98730469 C149.83372178 669.25188852 144.233506 663.44099914 138.9765625 657.23828125 C138.03856192 656.15555511 137.09979018 655.07349646 136.16015625 653.9921875 C123.11305996 638.86160506 110.64623519 623.46205563 98.9765625 607.23828125 C98.44256836 606.5004541 97.90857422 605.76262695 97.35839844 605.00244141 C90.12889994 594.99976995 83.38151728 584.7861878 76.9765625 574.23828125 C76.25529738 573.06244538 75.53394534 571.88666281 74.8125 570.7109375 C58.47404751 543.93226975 43.95019817 516.24463679 31.9765625 487.23828125 C31.54134277 486.19043457 31.10612305 485.14258789 30.65771484 484.06298828 C14.11231376 443.95274463 2.15615989 402.03866106 -5.0234375 359.23828125 C-5.20068359 358.19671875 -5.37792969 357.15515625 -5.56054688 356.08203125 C-13.9721289 306.03767318 -14.18977597 255.99348895 -14.22362614 205.40652728 C-14.22642373 201.26463433 -14.23066551 197.12274357 -14.23513031 192.98085213 C-14.24726439 181.46487674 -14.25758959 169.94890304 -14.2610054 158.43292141 C-14.26133475 157.33831153 -14.26133475 157.33831153 -14.26167075 156.22158832 C-14.26188903 155.49042528 -14.26210731 154.75926225 -14.2623322 154.00594276 C-14.26277563 152.52503931 -14.26322219 151.04413587 -14.26367188 149.56323242 C-14.2638933 148.82870191 -14.26411473 148.0941714 -14.26434287 147.33738238 C-14.26831513 135.36090535 -14.28586841 123.38448821 -14.3090314 111.40803444 C-14.33273442 99.05146608 -14.34520599 86.69492798 -14.34637332 74.33833653 C-14.34728821 67.42369432 -14.35299806 60.50913134 -14.37119293 53.59451103 C-14.38818214 47.11730835 -14.38985541 40.64021635 -14.38105392 34.16299629 C-14.38028156 31.78696412 -14.38465241 29.41092395 -14.39451218 27.03491211 C-14.40716907 23.7957931 -14.40138958 20.55721481 -14.39093018 17.31809998 C-14.39898658 16.37620377 -14.40704298 15.43430755 -14.41534352 14.46386904 C-14.37639134 9.31754104 -13.94446737 5.67354818 -11.0234375 1.23828125 C-7.62163001 -0.46262249 -3.7443119 0.03164809 0 0 Z " fill="#0B5B2F" transform="translate(248.0234375,707.76171875)"/>
<path d="M0 0 C1.5003479 0.00140488 1.5003479 0.00140488 3.03100586 0.00283813 C48.59382621 0.09458931 93.4789352 5.73009617 138 15.375 C139.75219849 15.74999634 139.75219849 15.74999634 141.53979492 16.13256836 C143.13658081 16.49040405 143.13658081 16.49040405 144.765625 16.85546875 C145.70696289 17.06453857 146.64830078 17.2736084 147.61816406 17.48901367 C148.67342285 17.8347644 148.67342285 17.8347644 149.75 18.1875 C151.19511418 21.07772837 150.2012875 22.48024382 149.1953125 25.515625 C148.83228027 26.61495361 148.46924805 27.71428223 148.09521484 28.84692383 C147.69254395 30.03181396 147.28987305 31.2167041 146.875 32.4375 C146.46588379 33.65010498 146.05676758 34.86270996 145.63525391 36.11206055 C130.67667105 79.81711254 130.67667105 79.81711254 122.75 86.1875 C114.8088607 88.83454643 106.35322508 86.36294982 98.375 84.875 C85.55893734 82.58003252 72.74943662 80.79273625 59.79101562 79.49609375 C56.93595301 79.20636999 54.0857242 78.88637719 51.234375 78.5625 C25.5297542 75.84126363 -1.63204758 75.58832147 -27.29833984 78.82373047 C-30.17992127 79.17886333 -33.06421479 79.49872818 -35.95074463 79.8107605 C-52.66630643 81.62385278 -69.09393794 84.00169096 -85.53369141 87.60253906 C-88.07343303 88.14947605 -90.6168685 88.65762179 -93.16796875 89.1484375 C-143.84514931 99.01142701 -193.55975171 120.93771717 -237.25 148.1875 C-238.00522949 148.65607422 -238.76045898 149.12464844 -239.53857422 149.60742188 C-260.24900139 162.52567107 -279.77439559 177.2559962 -298.25 193.1875 C-298.96671875 193.80238281 -299.6834375 194.41726563 -300.421875 195.05078125 C-302.38025832 196.74615855 -304.31826627 198.46181787 -306.25 200.1875 C-307.08144531 200.92613281 -307.91289063 201.66476562 -308.76953125 202.42578125 C-315.21145701 208.23320816 -321.41930403 214.25251143 -327.5625 220.375 C-328.31515137 221.12305908 -329.06780273 221.87111816 -329.84326172 222.6418457 C-334.51729083 227.32879793 -338.94400139 232.1621942 -343.25 237.1875 C-344.19949288 238.2704334 -345.14996286 239.35251115 -346.1015625 240.43359375 C-357.66027643 253.68478211 -368.04976217 267.77513587 -378.27734375 282.06640625 C-380.3287146 284.91975057 -382.39183529 287.76363376 -384.48046875 290.58984375 C-384.95508545 291.23300537 -385.42970215 291.87616699 -385.91870117 292.53881836 C-388.81683557 296.12787054 -391.21486432 297.07171301 -395.7421875 297.578125 C-401.53174767 297.48883262 -406.03847296 294.67823696 -411 291.9375 C-412.00861084 291.39391846 -413.01722168 290.85033691 -414.05639648 290.2902832 C-492.83339024 247.43732928 -492.83339024 247.43732928 -499.25 228.1875 C-499.9957523 222.00840948 -499.01092725 218.6918032 -495.3515625 213.6796875 C-489.28534177 206.48591644 -482.3884642 199.98208395 -475.23046875 193.88671875 C-472.92330048 191.90719568 -470.68353218 189.8610788 -468.4375 187.8125 C-464.11388062 183.91069714 -459.66257548 180.20601502 -455.1328125 176.546875 C-452.67565865 174.53587104 -450.26561191 172.48144779 -447.8659668 170.40258789 C-439.48897931 163.17623486 -430.64071978 156.609864 -421.74511719 150.04003906 C-419.48649933 148.36309265 -417.24435965 146.66713667 -415.0078125 144.9609375 C-382.18751938 120.09303383 -346.76851908 98.14437789 -310.25 79.1875 C-309.53086426 78.81399414 -308.81172852 78.44048828 -308.07080078 78.05566406 C-304.32187848 76.12228169 -300.54495446 74.25237211 -296.75097656 72.40917969 C-294.2308368 71.17813914 -291.71826555 69.93228831 -289.20611572 68.68504333 C-213.50317927 31.15167024 -130.05249369 7.07797734 0 0 Z " fill="#70A439" transform="translate(1035.25,1075.8125)"/>
<path d="M0 0 C46.54268281 38.42802669 65.54619078 117.34428753 71.21852112 174.31410217 C71.85122488 181.39745414 72.10942343 188.41372431 72.1171875 195.5234375 C72.1205159 196.61796234 72.1238443 197.71248718 72.12727356 198.84017944 C72.13230015 201.14100733 72.13468322 203.44184241 72.13452148 205.74267578 C72.13670019 209.20487919 72.15488105 212.66675928 72.17382812 216.12890625 C72.26474048 249.70551667 72.26474048 249.70551667 66.32421875 265.171875 C65.94233398 266.19579346 65.56044922 267.21971191 65.16699219 268.2746582 C49.87467168 307.8815336 25.89937209 355.81758055 -7.30078125 383.484375 C-11.44353461 385.17913774 -14.79360772 384.88061432 -19.05078125 383.609375 C-26.1477355 379.87080089 -30.91273435 371.67354844 -35.671875 365.41015625 C-36.92466992 363.77406996 -38.20502085 362.15917653 -39.48828125 360.546875 C-51.3724761 345.53526045 -61.69011035 329.29491197 -71.05078125 312.609375 C-71.41977539 311.96178223 -71.78876953 311.31418945 -72.16894531 310.64697266 C-79.62819344 297.48649303 -85.4248229 283.63340436 -91.05078125 269.609375 C-91.39334961 268.7829248 -91.73591797 267.95647461 -92.08886719 267.10498047 C-114.31824729 212.91939628 -95.81115936 131.07549129 -74.55078125 79.046875 C-73.08670621 75.55138019 -71.58315103 72.07543327 -70.05078125 68.609375 C-69.70515137 67.8270752 -69.35952148 67.04477539 -69.00341797 66.23876953 C-59.80819745 45.64975877 -47.86166363 26.47618335 -34.11328125 8.609375 C-33.70166748 8.06474609 -33.29005371 7.52011719 -32.8659668 6.95898438 C-24.48315151 -3.62417284 -11.73494851 -8.20754748 0 0 Z " fill="#70A439" transform="translate(806.05078125,143.390625)"/>
<path d="M0 0 C1.06033447 0.495 1.06033447 0.495 2.14208984 1 C52.87058165 24.93272316 91.93942672 67.61667271 111.0078125 120.4140625 C122.17542666 152.97299676 125.34083079 187.2445226 121.6875 221.375 C121.56995361 222.48568848 121.45240723 223.59637695 121.33129883 224.74072266 C120.24271301 233.91544915 118.96758248 244.27208866 112 251 C101.30708455 258.36453032 91.03775034 257.78925431 78.6015625 255.57885742 C77.49554687 255.36720947 76.38953125 255.15556152 75.25 254.9375 C73.49042969 254.60359253 73.49042969 254.60359253 71.6953125 254.26293945 C53.35736362 250.63272859 35.9582905 244.83011488 19 237 C17.95489258 236.51877686 17.95489258 236.51877686 16.88867188 236.02783203 C-2.5131133 226.97519814 -19.69614463 215.16461312 -35.28125 200.53125 C-37.57912963 198.39184482 -39.91658807 196.3398101 -42.3125 194.3125 C-79.16273768 162.28235714 -98.88790232 108.31330502 -102.82128906 60.91430664 C-103.78184963 45.25008328 -103.47801375 29.40679824 -101.75 13.8125 C-101.64075195 12.78181396 -101.53150391 11.75112793 -101.41894531 10.68920898 C-100.2772074 1.53807476 -98.48681438 -7.97402745 -91 -14 C-90.236875 -14.721875 -89.47375 -15.44375 -88.6875 -16.1875 C-66.73443314 -30.99305672 -20.88421976 -9.80309009 0 0 Z M-48 41 C-53.03668372 46.29497519 -53.28890458 49.89329288 -53.2109375 56.99609375 C-52.37053482 77.74158944 -46.11984383 98.46193223 -37 117 C-36.69336426 117.63099609 -36.38672852 118.26199219 -36.07080078 118.91210938 C-29.50824012 132.2617662 -21.23954366 144.18841479 -11 155 C-11 150.67093814 -13.35268613 147.7509705 -15.5 144.125 C-27.04101782 123.89427465 -33.1857066 102.84967752 -33.5625 79.5625 C-33.58957031 78.48967773 -33.61664063 77.41685547 -33.64453125 76.31152344 C-33.61960811 71.43437625 -33.59692893 68.83448228 -30.703125 64.7890625 C-27.52082829 62.68286034 -25.55997721 62.5644071 -21.83203125 63.23828125 C10.15496064 71.84167907 37.02606492 95.35576895 53.72265625 123.5234375 C58.46793446 131.76060559 62.67729058 140.0811484 66 149 C67.35804957 144.9258513 65.97909194 142.24000641 64.5625 138.375 C64.29171631 137.62589355 64.02093262 136.87678711 63.74194336 136.10498047 C48.44180256 94.81915983 17.6848194 62.33258826 -22.27294922 43.95458984 C-35.02843022 38.00394642 -35.02843022 38.00394642 -48 41 Z M67 150 C68 152 68 152 68 152 Z " fill="#0B5B2F" transform="translate(487,139)"/>
<path d="M0 0 C7.69330837 6.17470374 10.18415338 14.34354122 11.41015625 23.87109375 C11.5289917 24.76352783 11.64782715 25.65596191 11.77026367 26.57543945 C18.961837 85.32413762 5.48084968 143.40447611 -30.5859375 190.578125 C-36.16136041 197.52504232 -42.17593978 204.07468587 -48.27734375 210.55859375 C-49.20160156 211.54666016 -49.20160156 211.54666016 -50.14453125 212.5546875 C-62.55700212 225.41258197 -77.97553919 235.65132988 -93.42578125 244.49707031 C-95.19642785 245.51220367 -96.95594351 246.54667861 -98.71484375 247.58203125 C-122.61902574 261.28394882 -162.73473802 277.10127246 -190.78125 272.11328125 C-198.4584801 269.57848421 -203.45039136 265.71115647 -207.3918457 258.55224609 C-208.93842018 255.0702149 -209.44262711 251.49772373 -209.96484375 247.74609375 C-210.08150391 247.00294922 -210.19816406 246.25980469 -210.31835938 245.49414062 C-210.67031657 243.18554002 -210.98085561 240.87493768 -211.27734375 238.55859375 C-211.37450684 237.83905518 -211.47166992 237.1195166 -211.57177734 236.37817383 C-218.45852315 178.43430625 -202.14216946 120.19232873 -166.24609375 74.46484375 C-158.39011587 64.64864107 -149.90563074 55.66952892 -140.27734375 47.55859375 C-139.75366211 47.11193359 -139.22998047 46.66527344 -138.69042969 46.20507812 C-123.95564724 33.71052365 -107.79566112 23.66352188 -90.27734375 15.55859375 C-89.21257812 15.05070312 -88.1478125 14.5428125 -87.05078125 14.01953125 C-69.69885259 6.1246148 -51.02529446 0.84127405 -32.27734375 -2.44140625 C-31.01921875 -2.66570312 -29.76109375 -2.89 -28.46484375 -3.12109375 C-18.39916358 -4.7910816 -9.00038991 -5.69664473 0 0 Z M-59.27734375 56.55859375 C-60.15261719 56.88859375 -61.02789063 57.21859375 -61.9296875 57.55859375 C-75.3046872 62.84254425 -88.00600376 69.60423709 -99.27734375 78.55859375 C-100.57478516 79.55246094 -100.57478516 79.55246094 -101.8984375 80.56640625 C-126.75758639 100.12178898 -149.47851912 129.00247392 -156.27734375 160.55859375 C-155.94734375 161.54859375 -155.61734375 162.53859375 -155.27734375 163.55859375 C-154.87644531 162.57761719 -154.47554687 161.59664063 -154.0625 160.5859375 C-139.77676593 126.36602438 -114.80368253 97.87133614 -80.40234375 82.99609375 C-79.64244141 82.66150146 -78.88253906 82.32690918 -78.09960938 81.98217773 C-72.67724794 79.74892198 -67.18641511 78.35483267 -61.27734375 78.55859375 C-58.14115718 80.7003797 -57.47362858 81.96973927 -56.27734375 85.55859375 C-53.91445978 113.51938744 -62.4418038 141.88052435 -77.87109375 165.08203125 C-78.33515625 165.89929688 -78.79921875 166.7165625 -79.27734375 167.55859375 C-78.94734375 168.21859375 -78.61734375 168.87859375 -78.27734375 169.55859375 C-52.58613445 143.26610082 -36.97120322 105.11667003 -36.12890625 68.34765625 C-36.32714044 63.2874676 -37.34057475 61.60657264 -40.27734375 57.55859375 C-47.03818611 52.35794578 -51.88398532 53.6689758 -59.27734375 56.55859375 Z M-157.27734375 163.55859375 C-156.27734375 166.55859375 -156.27734375 166.55859375 -156.27734375 166.55859375 Z M-158.27734375 167.55859375 C-157.27734375 169.55859375 -157.27734375 169.55859375 -157.27734375 169.55859375 Z " fill="#0B5B2F" transform="translate(1188.27734375,123.44140625)"/>
<path d="M0 0 C1.49465286 -0.00101212 1.49465286 -0.00101212 3.01950073 -0.00204468 C67.38508481 0.06689751 67.38508481 0.06689751 85.625 10.25 C80.33933666 16.52303253 74.67230859 22.38893995 68.87451172 28.18579102 C67.38606763 29.67641615 65.90582723 31.17487017 64.42578125 32.67382812 C58.89203627 38.23917615 53.2168537 43.40706214 47.05151367 48.28491211 C44.65967482 50.22191894 42.42090506 52.25864083 40.1875 54.375 C20.91410771 71.83300212 -1.83095667 86.38992312 -24.375 99.25 C-25.07351074 99.65460449 -25.77202148 100.05920898 -26.49169922 100.47607422 C-72.05574048 126.77630597 -122.67942291 144.07820406 -174.375 153.25 C-175.26864258 153.41129395 -176.16228516 153.57258789 -177.08300781 153.73876953 C-194.19311559 156.81381217 -210.46609494 158.2645523 -227.75 155.75 C-228.93174805 155.57911865 -230.11349609 155.4082373 -231.33105469 155.23217773 C-241.84007932 153.62936926 -252.23270582 151.54211086 -262.625 149.3125 C-263.77702911 149.06814209 -263.77702911 149.06814209 -264.95233154 148.81884766 C-273.07833602 147.08351306 -281.13881483 145.16384804 -289.109375 142.80859375 C-290.36459961 142.43919678 -291.61982422 142.0697998 -292.91308594 141.68920898 C-297.53227719 139.76888935 -301.25871483 137.38610125 -303.640625 132.828125 C-303.20797911 128.62891492 -300.16311001 126.60470131 -297.125 124 C-296.48038818 123.42644775 -295.83577637 122.85289551 -295.17163086 122.26196289 C-289.70313663 117.43108737 -284.08573225 112.79087874 -278.375 108.25 C-277.19965955 107.29533022 -276.02523343 106.33953404 -274.8515625 105.3828125 C-266.58345203 98.66544455 -258.15628842 92.28062582 -249.375 86.25 C-248.63072754 85.73743652 -247.88645508 85.22487305 -247.11962891 84.69677734 C-232.89538785 74.94621987 -218.27862629 65.92232606 -203.375 57.25 C-202.51583984 56.74871582 -201.65667969 56.24743164 -200.77148438 55.73095703 C-149.55991036 26.08268966 -92.10597348 7.74185199 -33.375 1.25 C-32.47120605 1.146875 -31.56741211 1.04375 -30.63623047 0.9375 C-20.45575858 -0.07350625 -10.22040596 0.00623202 0 0 Z " fill="#70A439" transform="translate(1001.375,1259.75)"/>
<path d="M0 0 C1.03382813 0.1338208 2.06765625 0.2676416 3.1328125 0.40551758 C49.79532998 6.78960438 93.13656565 27.15170094 129.3984375 56.99609375 C132.52857444 59.54962652 135.76705762 61.95624529 139.0078125 64.3671875 C139.54148437 64.84414063 140.07515625 65.32109375 140.625 65.8125 C140.625 66.4725 140.625 67.1325 140.625 67.8125 C141.18872314 68.05170166 141.75244629 68.29090332 142.33325195 68.53735352 C145.11938503 70.08757969 147.03467665 71.96290728 149.29296875 74.21484375 C150.18693359 75.10623047 151.08089844 75.99761719 152.00195312 76.91601562 C152.92943359 77.85123047 153.85691406 78.78644531 154.8125 79.75 C155.72064453 80.65041016 156.62878906 81.55082031 157.56445312 82.47851562 C163.6805835 88.61215818 169.26829176 95.00885344 174.625 101.8125 C175.15826904 102.48112061 175.69153809 103.14974121 176.2409668 103.83862305 C196.02334102 128.85939426 209.84904277 155.94919786 217.5 186.875 C217.7155957 187.7314209 217.93119141 188.5878418 218.15332031 189.47021484 C219.73585703 196.1953398 221.11702387 202.82845225 217.9375 209.1875 C214.9648045 212.56191111 212.42535174 214.56685838 207.89624023 215.18481445 C206.91856689 215.1818335 205.94089355 215.17885254 204.93359375 215.17578125 C203.83402344 215.17666748 202.73445312 215.17755371 201.6015625 215.1784668 C199.84972656 215.15200073 199.84972656 215.15200073 198.0625 215.125 C196.85464844 215.1144458 195.64679688 215.1038916 194.40234375 215.09301758 C184.04747755 214.94150636 173.88453636 214.17531756 163.625 212.8125 C162.91166504 212.72661621 162.19833008 212.64073242 161.46337891 212.55224609 C135.36953177 209.37794304 109.70569919 202.24492807 85.625 191.8125 C84.88749512 191.49958008 84.14999023 191.18666016 83.39013672 190.86425781 C70.44268919 185.28581935 60.11857683 176.30618175 49.83984375 166.84375 C47.86660756 165.03408012 45.85392187 163.29410109 43.8125 161.5625 C35.15633694 154.01474807 26.91792198 145.68351225 19.625 136.8125 C18.98594727 136.04413818 18.98594727 136.04413818 18.33398438 135.26025391 C10.79000915 126.16205645 3.95479879 116.79011474 -2.375 106.8125 C-2.74157715 106.24692383 -3.1081543 105.68134766 -3.48583984 105.09863281 C-19.85340167 79.76525987 -39.5977123 42.06566445 -36.375 10.8125 C-34.5470201 5.48963906 -31.24180467 2.50477492 -26.375 -0.1875 C-18.23245746 -2.90168085 -8.37494515 -1.08415579 0 0 Z " fill="#70A439" transform="translate(353.375,426.1875)"/>
<path d="M0 0 C3.14365003 3.8621986 4.21916794 7.074298 4.12109375 12.0703125 C0.92720895 36.16276634 -6.33245597 59.40940467 -17.83447266 80.84472656 C-18.79866522 82.66143288 -19.7217006 84.49404991 -20.63671875 86.3359375 C-30.73383037 106.38029637 -44.705546 124.48100265 -60.0703125 140.75390625 C-63.00511662 143.86544496 -65.77843161 147.10162147 -68.5078125 150.39453125 C-69.8125 151.6875 -69.8125 151.6875 -71.8125 151.6875 C-71.8125 152.3475 -71.8125 153.0075 -71.8125 153.6875 C-73.2109375 155.09765625 -73.2109375 155.09765625 -75.1875 156.75 C-78.30400231 159.38871101 -81.32565899 162.09065668 -84.3125 164.875 C-122.83984149 199.39030593 -180.36681949 210.69220614 -230.8125 211.0625 C-231.9456665 211.07635742 -233.07883301 211.09021484 -234.24633789 211.10449219 C-235.29942139 211.09836914 -236.35250488 211.09224609 -237.4375 211.0859375 C-238.35789062 211.08255371 -239.27828125 211.07916992 -240.2265625 211.07568359 C-244.32460979 210.46051222 -247.00315184 208.36560251 -250.125 205.75 C-255.72568336 195.58579687 -250.01690016 181.34417954 -247.01513672 170.91796875 C-240.44666138 148.70336285 -230.19352226 129.51478318 -216.8125 110.6875 C-216.40789551 110.11708984 -216.00329102 109.54667969 -215.58642578 108.95898438 C-207.72702691 97.97928685 -198.86277621 87.82104563 -189.75 77.875 C-189.18958008 77.2577002 -188.62916016 76.64040039 -188.05175781 76.00439453 C-186.68048485 74.52552938 -185.25124089 73.10081395 -183.8125 71.6875 C-183.1525 71.6875 -182.4925 71.6875 -181.8125 71.6875 C-181.8125 71.0275 -181.8125 70.3675 -181.8125 69.6875 C-180.44921875 68.3125 -180.44921875 68.3125 -178.5 66.6875 C-175.20925861 63.90610814 -172.06264004 61.0282434 -168.9375 58.0625 C-139.56622624 31.36134204 -39.19664502 -32.22835257 0 0 Z " fill="#70A439" transform="translate(1264.8125,430.3125)"/>
<path d="M0 0 C-0.41821639 4.87919127 -2.35828755 6.85190833 -6 10 C-8.02372351 11.4114591 -10.09058444 12.76226204 -12.1875 14.0625 C-13.43578229 14.84755057 -14.68313224 15.63408502 -15.9296875 16.421875 C-16.9192041 17.04545898 -16.9192041 17.04545898 -17.92871094 17.68164062 C-50.37727958 38.33490213 -81.16813282 61.70947895 -109.375 87.875 C-123.97700446 101.37198791 -123.97700446 101.37198791 -136 101 C-137.85315439 100.84705851 -139.70524786 100.68080034 -141.55615234 100.50268555 C-147.95462556 99.95317048 -154.30720684 99.83850598 -160.7265625 99.83203125 C-161.91309418 99.82870285 -163.09962585 99.82537445 -164.32211304 99.82194519 C-166.82476417 99.8169113 -169.32742193 99.81453576 -171.83007812 99.81469727 C-175.56652628 99.81253386 -179.30266729 99.79440347 -183.0390625 99.77539062 C-204.239868 99.72482655 -225.25901962 100.88091865 -246.25 103.9375 C-247.39855469 104.09412109 -248.54710937 104.25074219 -249.73046875 104.41210938 C-256.8633423 105.41905609 -263.85724583 106.76494263 -270.87768555 108.37963867 C-276.26681143 109.45038454 -281.43640393 110.12672599 -286.55078125 107.87890625 C-289.6040022 105.53664265 -291.01942217 102.96754499 -292.625 99.5625 C-292.95346924 98.88582275 -293.28193848 98.20914551 -293.62036133 97.51196289 C-315.33347671 51.47816396 -315.33347671 51.47816396 -312 42 C-309.63696289 40.39770508 -309.63696289 40.39770508 -306.47265625 39.01953125 C-305.30186523 38.50044189 -304.13107422 37.98135254 -302.92480469 37.4465332 C-301.63784685 36.90072924 -300.35039808 36.35608162 -299.0625 35.8125 C-297.73434249 35.23805038 -296.4065471 34.66276285 -295.07910156 34.08666992 C-291.06682071 32.35680634 -287.036058 30.67348432 -283 29 C-281.88157715 28.53335937 -280.7631543 28.06671875 -279.61083984 27.5859375 C-239.13146198 10.88155176 -196.31745716 0.74523263 -153 -5 C-151.98882111 -5.13791962 -151.98882111 -5.13791962 -150.95721436 -5.27862549 C-102.70982203 -11.83152358 -47.30545822 -12.31776474 0 0 Z " fill="#70A439" transform="translate(714,1054)"/>
<path d="M0 0 C11.91274206 10.10200526 20.64609028 24.63974127 22.75 40.25 C24.1562921 58.09233108 20.71410808 74.5819105 9.61328125 89.03125 C-0.7372272 101.02555647 -14.27492792 110.17081491 -30.25 112.25 C-48.23305605 113.47961067 -64.40541676 111.23832816 -79.1171875 100.07421875 C-81.6035773 97.88634688 -83.94205258 95.62436317 -86.25 93.25 C-86.88421875 92.63640625 -87.5184375 92.0228125 -88.171875 91.390625 C-99.93314667 79.21302513 -103.78528193 63.06978913 -103.74243164 46.66503906 C-103.25800209 28.86338491 -95.83037712 14.70045928 -83.25 2.25 C-59.91535539 -19.22570017 -24.62869001 -18.56509156 0 0 Z M-49.25 38.25 C-52.24706247 41.2682681 -54.03584153 44.29951056 -54.50390625 48.5625 C-54.18589877 54.26736154 -52.33969145 57.35052676 -48.25 61.25 C-45.25137325 63.52482029 -42.0802965 63.7365387 -38.34375 63.625 C-34.51930849 62.9400254 -31.90025711 61.02612684 -29.25 58.25 C-26.96289947 54.39051786 -26.2203854 52.10882328 -26.375 47.625 C-27.55010224 43.09246281 -28.7945424 40.35142738 -32.5625 37.5 C-38.61200331 34.68627753 -43.57799851 34.68175316 -49.25 38.25 Z " fill="#0B5B2F" transform="translate(833.25,717.75)"/>
<path d="M0 0 C3.10164769 2.55024365 4.72566416 4.17699247 6 8 C8.72393609 40.23324377 -3.14565749 75.05279177 -23.93359375 99.74609375 C-38.6248338 115.77037638 -66.46723294 136.03720521 -89 137.75 C-93.14572871 137.43652335 -95.61818217 135.48510606 -98.58984375 132.703125 C-102.92807872 127.46359467 -102.36758954 122.23847528 -101.80761719 115.78173828 C-98.51152367 87.31952537 -85.90324964 59.68890423 -66 39 C-64.84766574 37.65136101 -63.70151891 36.29740342 -62.5625 34.9375 C-49.84695649 20.40545027 -21.17497077 -2.59285356 0 0 Z " fill="#70A439" transform="translate(1127,201)"/>
<path d="M0 0 C34.87851582 11.90350142 61.35245971 40.51437712 77.375 72.91015625 C84.5102673 87.94374257 93.02355864 111.43321649 87.69140625 128.0390625 C85.45651037 131.73915983 82.36201277 133.53003644 78.375 134.91015625 C71.56568461 135.48746777 66.80684324 133.92334538 60.625 131.16015625 C59.71903076 130.76256104 58.81306152 130.36496582 57.87963867 129.95532227 C44.0567009 123.70479437 30.81869433 115.90905551 19.375 105.91015625 C18.78332031 105.471875 18.19164062 105.03359375 17.58203125 104.58203125 C-2.10519515 89.62514529 -14.15228322 57.70507544 -18 34.265625 C-18.83608796 28.0175302 -19.04856913 21.77092376 -19.125 15.47265625 C-19.14369141 14.39983398 -19.16238281 13.32701172 -19.18164062 12.22167969 C-19.11942774 4.72981206 -19.11942774 4.72981206 -16.71875 0.75 C-11.60426195 -3.74426096 -6.033227 -1.81386889 0 0 Z " fill="#70A439" transform="translate(471.625,203.08984375)"/>
<path d="M0 0 C7.21503191 4.76369007 11.60007861 11.07796413 13.59375 19.51171875 C14.92966202 29.18190009 12.93637086 36.93769248 7.0703125 44.73046875 C1.79616583 50.51212765 -3.78577315 53.67439748 -11.5390625 54.2734375 C-21.25048566 54.61581599 -28.35813874 53.82340944 -36.01953125 47.2734375 C-42.03266387 41.12105339 -45.12130588 33.38926562 -45.4375 24.8125 C-45.03939154 16.15020912 -41.18893208 8.84295425 -34.9375 2.875 C-24.52505481 -5.57954951 -11.54824291 -6.36948914 0 0 Z " fill="#0B5B2F" transform="translate(275,610)"/>
<path d="M0 0 C7.45948574 4.31564117 11.23874747 12.15678571 13.6640625 20.203125 C15.04271556 28.09030298 12.82350057 35.79883445 8.3359375 42.2578125 C2.91662429 49.32510399 -4.15256076 53.75783515 -13.0625 54.9375 C-22.14234252 55.39149213 -29.06087263 52.89368445 -36 47 C-42.04530702 40.74396333 -45.05603824 33.61591783 -45.375 24.9375 C-45.0766003 16.1889633 -41.24149016 8.85292503 -34.875 2.875 C-24.08998958 -5.86338798 -12.14423285 -5.94133238 0 0 Z " fill="#0B5B2F" transform="translate(1342,610)"/>
<path d="M0 0 C-2.01074901 3.51725445 -4.20454777 6.59086838 -6.8125 9.6875 C-15.39085757 20.05417967 -23.71302691 30.64916205 -31.5 41.625 C-31.90508789 42.19428223 -32.31017578 42.76356445 -32.72753906 43.35009766 C-34.41291635 45.72725533 -36.07676553 48.11453064 -37.69921875 50.53515625 C-40.96538287 55.25866393 -43.3611299 57.51608682 -49 59 C-54.48057291 58.90550736 -56.99573439 57.60680517 -61 54 C-62.9592004 51.76526517 -64.7650753 49.42831975 -66.5625 47.0625 C-67.50116525 45.84494658 -68.43996501 44.62749685 -69.37890625 43.41015625 C-69.82121582 42.83281738 -70.26352539 42.25547852 -70.71923828 41.66064453 C-72.44995348 39.41658719 -74.22104132 37.20590876 -76 35 C-71.66462739 25.0020999 -60.18948334 19.80808754 -51 15 C-50.14019531 14.54882812 -49.28039062 14.09765625 -48.39453125 13.6328125 C-34.39473322 6.82209994 -15.75804032 -0.49243876 0 0 Z " fill="#70A439" transform="translate(546,1201)"/>
</svg>
